<mxfile host="65bd71144e">
    <diagram id="uk_B8_QeZncOZCR0ShAZ" name="Page-1">
        <mxGraphModel dx="1165" dy="842" grid="1" gridSize="10" guides="1" tooltips="1" connect="1" arrows="1" fold="1" page="1" pageScale="1" pageWidth="2339" pageHeight="3300" background="#ffffff" math="0" shadow="0">
            <root>
                <mxCell id="0"/>
                <mxCell id="1" parent="0"/>
                <mxCell id="2" value="&lt;font style=&quot;font-size: 15px&quot; color=&quot;#000000&quot;&gt;AWS Account&lt;/font&gt;" style="points=[[0,0],[0.25,0],[0.5,0],[0.75,0],[1,0],[1,0.25],[1,0.5],[1,0.75],[1,1],[0.75,1],[0.5,1],[0.25,1],[0,1],[0,0.75],[0,0.5],[0,0.25]];outlineConnect=0;gradientColor=none;html=1;whiteSpace=wrap;fontSize=12;fontStyle=0;container=1;pointerEvents=0;collapsible=0;recursiveResize=0;shape=mxgraph.aws4.group;grIcon=mxgraph.aws4.group_region;strokeColor=#147EBA;fillColor=none;verticalAlign=top;align=left;spacingLeft=30;fontColor=#147EBA;dashed=1;" parent="1" vertex="1">
                    <mxGeometry x="100" y="122" width="1370" height="828" as="geometry"/>
                </mxCell>
                <mxCell id="4" value="&lt;font color=&quot;#000000&quot;&gt;VPC&lt;/font&gt;" style="points=[[0,0],[0.25,0],[0.5,0],[0.75,0],[1,0],[1,0.25],[1,0.5],[1,0.75],[1,1],[0.75,1],[0.5,1],[0.25,1],[0,1],[0,0.75],[0,0.5],[0,0.25]];outlineConnect=0;gradientColor=none;html=1;whiteSpace=wrap;fontSize=12;fontStyle=0;container=1;pointerEvents=0;collapsible=0;recursiveResize=0;shape=mxgraph.aws4.group;grIcon=mxgraph.aws4.group_vpc;strokeColor=#248814;fillColor=none;verticalAlign=top;align=left;spacingLeft=30;fontColor=#AAB7B8;dashed=0;" parent="2" vertex="1">
                    <mxGeometry x="60" y="68" width="1310" height="728" as="geometry"/>
                </mxCell>
                <mxCell id="6" value="Availability Zone 2" style="fillColor=none;strokeColor=#147EBA;dashed=1;verticalAlign=top;fontStyle=0;fontColor=#147EBA;fontSize=15;" parent="4" vertex="1">
                    <mxGeometry x="510" y="60" width="220" height="458" as="geometry"/>
                </mxCell>
                <mxCell id="113" value="Availability Zone 3" style="fillColor=none;strokeColor=#147EBA;dashed=1;verticalAlign=top;fontStyle=0;fontColor=#147EBA;fontSize=15;" vertex="1" parent="4">
                    <mxGeometry x="950" y="60" width="220" height="458" as="geometry"/>
                </mxCell>
                <mxCell id="5" value="Availability Zone 1" style="fillColor=none;strokeColor=#147EBA;dashed=1;verticalAlign=top;fontStyle=0;fontColor=#147EBA;fontSize=15;" parent="4" vertex="1">
                    <mxGeometry x="100" y="60" width="200" height="458" as="geometry"/>
                </mxCell>
                <mxCell id="9" value="Private subnet" style="points=[[0,0],[0.25,0],[0.5,0],[0.75,0],[1,0],[1,0.25],[1,0.5],[1,0.75],[1,1],[0.75,1],[0.5,1],[0.25,1],[0,1],[0,0.75],[0,0.5],[0,0.25]];outlineConnect=0;gradientColor=none;html=1;whiteSpace=wrap;fontSize=12;fontStyle=0;container=1;pointerEvents=0;collapsible=0;recursiveResize=0;shape=mxgraph.aws4.group;grIcon=mxgraph.aws4.group_security_group;grStroke=0;strokeColor=#147EBA;fillColor=#E6F2F8;verticalAlign=top;align=left;spacingLeft=30;fontColor=#147EBA;dashed=0;" parent="4" vertex="1">
                    <mxGeometry x="130" y="227" width="130" height="130" as="geometry"/>
                </mxCell>
                <mxCell id="11" value="Private subnet" style="points=[[0,0],[0.25,0],[0.5,0],[0.75,0],[1,0],[1,0.25],[1,0.5],[1,0.75],[1,1],[0.75,1],[0.5,1],[0.25,1],[0,1],[0,0.75],[0,0.5],[0,0.25]];outlineConnect=0;gradientColor=none;html=1;whiteSpace=wrap;fontSize=12;fontStyle=0;container=1;pointerEvents=0;collapsible=0;recursiveResize=0;shape=mxgraph.aws4.group;grIcon=mxgraph.aws4.group_security_group;grStroke=0;strokeColor=#147EBA;fillColor=#E6F2F8;verticalAlign=top;align=left;spacingLeft=30;fontColor=#147EBA;dashed=0;" parent="4" vertex="1">
                    <mxGeometry x="555" y="228" width="130" height="130" as="geometry"/>
                </mxCell>
                <mxCell id="114" value="Private subnet" style="points=[[0,0],[0.25,0],[0.5,0],[0.75,0],[1,0],[1,0.25],[1,0.5],[1,0.75],[1,1],[0.75,1],[0.5,1],[0.25,1],[0,1],[0,0.75],[0,0.5],[0,0.25]];outlineConnect=0;gradientColor=none;html=1;whiteSpace=wrap;fontSize=12;fontStyle=0;container=1;pointerEvents=0;collapsible=0;recursiveResize=0;shape=mxgraph.aws4.group;grIcon=mxgraph.aws4.group_security_group;grStroke=0;strokeColor=#147EBA;fillColor=#E6F2F8;verticalAlign=top;align=left;spacingLeft=30;fontColor=#147EBA;dashed=0;" vertex="1" parent="4">
                    <mxGeometry x="995" y="228" width="130" height="130" as="geometry"/>
                </mxCell>
                <mxCell id="120" value="Auto Scaling group" style="points=[[0,0],[0.25,0],[0.5,0],[0.75,0],[1,0],[1,0.25],[1,0.5],[1,0.75],[1,1],[0.75,1],[0.5,1],[0.25,1],[0,1],[0,0.75],[0,0.5],[0,0.25]];outlineConnect=0;gradientColor=none;html=1;whiteSpace=wrap;fontSize=12;fontStyle=0;container=1;pointerEvents=0;collapsible=0;recursiveResize=0;shape=mxgraph.aws4.groupCenter;grIcon=mxgraph.aws4.group_auto_scaling_group;grStroke=1;strokeColor=#D86613;fillColor=none;verticalAlign=top;align=center;fontColor=#D86613;dashed=1;spacingTop=25;" vertex="1" parent="4">
                    <mxGeometry x="130" y="368" width="130" height="140" as="geometry"/>
                </mxCell>
                <mxCell id="121" value="Amazon EC2" style="sketch=0;outlineConnect=0;fontColor=#232F3E;gradientColor=none;strokeColor=#ffffff;fillColor=#232F3E;dashed=0;verticalLabelPosition=middle;verticalAlign=bottom;align=center;html=1;whiteSpace=wrap;fontSize=10;fontStyle=1;spacing=3;shape=mxgraph.aws4.productIcon;prIcon=mxgraph.aws4.ec2;" vertex="1" parent="4">
                    <mxGeometry x="150" y="420" width="70" height="82" as="geometry"/>
                </mxCell>
                <mxCell id="124" value="EKS Cluster" style="swimlane;whiteSpace=wrap;html=1;fillColor=#000000;shadow=0;" vertex="1" parent="4">
                    <mxGeometry x="270" y="250" width="890" height="350" as="geometry"/>
                </mxCell>
                <mxCell id="125" value="Amazon EKS" style="sketch=0;outlineConnect=0;fontColor=#232F3E;gradientColor=none;strokeColor=#ffffff;fillColor=#232F3E;dashed=0;verticalLabelPosition=middle;verticalAlign=bottom;align=center;html=1;whiteSpace=wrap;fontSize=10;fontStyle=1;spacing=3;shape=mxgraph.aws4.productIcon;prIcon=mxgraph.aws4.eks;" vertex="1" parent="124">
                    <mxGeometry x="20" y="30" width="80" height="100" as="geometry"/>
                </mxCell>
                <mxCell id="129" value="" style="rounded=0;whiteSpace=wrap;html=1;shadow=0;fillColor=#CCE5FF;" vertex="1" parent="124">
                    <mxGeometry y="20" width="890" height="330" as="geometry"/>
                </mxCell>
                <mxCell id="126" value="" style="shape=image;verticalLabelPosition=bottom;labelBackgroundColor=default;verticalAlign=top;aspect=fixed;imageAspect=0;image=data:image/png,iVBORw0KGgoAAAANSUhEUgAAAggAAAC+CAYAAABQ8PciAAAAAXNSR0IArs4c6QAAIABJREFUeF7svWd3XMmVLbjTew/vAYIGtMVyLKdWm+lZPfNP59vMh5nV/V5L3XpSqVSWngQJwrtEAum9n7VP3Jt5kUgACVeixEytEgHkNREnzjmx41jT6+Vcs9lsov/pU+DvjQImkxn1eg1Lb19ha2sNgWAIgUAExXweB/EoBgaG4XR54HBY0Wg0UCpV4HK5USwWUSoWEAyGYLFYQPGoVqtyTRNNbG6sIhSKYHBoGOViCTa7HcVSAaOj43C7PVhfW4HT6UQ2m4HZYkEmk0I6ncLI8BhgAnw+v1y3trqC6ek5jIyOYi8axeLic3nPwMAgBodGWmNIZ9PyTL7TbnMgEAii0awjnU6j2Wwgm8kgEAhhYGgEa6tLaNQbMraDgxhsNhv8/gDC4UFEo1tYXVlCODIoc8+kU6Ds+3w+OBxOxPajKBbzCPjD8Pv9Mnd+l0ymMDTM8RSxuPgC+UJe3jE/fwvX5q9jL7qLcrmC6ZkZWCxWvFl8AY/PB7vNjvX1VeSyaYTDAyhXyhptXAiHIwiFwjLPg4N9GVcoGILL44XH64HH5UW5XEK92UCtWpN32+w2uD0e+d3tciGRSKBaqyOZPJCxDg6OIJNOIpNNYXBgWOiYy+dRr9dRq1ZhtVoRCkeQSBzAZrXBYjHj5ctnuHP3I9y4cVvW66cf/4xms4ZQaBCVcgW5XAZutxcTU9PY3FhBrdbAnbsPED+IYW8vivGJSRQLBXg8PkxOTsNqswmf9D99Cvw9UMDUBwh/D8vYn8NxFDCZTKjVasjnsoCpKcqeCjyfz8kmbbW2FTo3S17Pf/mfxWICYJafAfUdd/h8IQeH3QG73SEAhH/jNdyA9PeZzbyvoTaneh3lUhFWixU2h0PbnCyo1apyPcfA+wuFPCqVCrw+r1zLcXPD5SebTYOAhxu51UrQwjECJrMJpUJevrM7XSgWc7BabHA5XSiViqjVG3A41TsJPorFAmw2OxwOu/zO/+x2O2x2ByrlMsrlIpxOlzamBswmMxqNOsza3Arahst7TGazPJfz5Fg4f1KqVq3IdxazBcVSCZVySWhF8LKzsyn0J2h58NFn8i5u3pw7gRYBDT+cj053nb4mE9dA/d3EdUFDnlWplIVOnBdpWi6XhU4Oh1ofXs/reI/NrujK9djcJHjJ4d6DT4UXuFaFQk7owI2e8+Hf+C9B47t3rwVYzc1dl7+Tpzherh/XgWNQPNL/9Cnw90GBPkD4+1jH/ixOoACVttnMTRxqc9GUOK0BaBoUOn8UMGACL1EblPzx0N+4+fG6Q5Y3Agvt5NjeJExyu8AK+V4BDd1eZwQjfB83P/19h6162ng4R7lZe4IM3aRGqP299W59asbrtY1XniDoghutmp/8auJ7TGhwnPpD5e9AQ6Mbx6jvgWJRMdJTs0SqeakFId3lmfU6kqmknN75O60ztCooNEAYxg1fza09dzW2Nj1blNPGe8yia0tmHJt+JalP0ENQET84kM2fFhUFShQN2muu/sjn5LJZZLMpsdQQZOrXd4LKviD2KfD3RIE+QPh7Ws3+XPoUeI8pYDZbNHDBTbeugMhf8UMrD8EALSS9fDh+ZbnpuxB6oVf/mr99CvQBwt/+GvZn0KfA3wwFWtabftzT38ya9Qf64VKgDxA+3LXvz7xPgT4F+hToU6BPgWMp0BUg6F5X8bO1PZ5HHtL53Un3nfe7k9buLGO7CA+0vdDqKW1PaPvnTlqdhTbGsZ3lvvPOv3MtTprTeenfOafzvuMs63YeHtMjEI5b0+PW5qT7TlqXs8znJJ66qnecZXxn4b/j1qaTjmd5f+e1ZxnPSTJ3GfJ4Xjnu9b6zrP9p1/a6Nqc9p1dd0escT1vfy9inTnvHcXM6aQ6n7QXn5fHT6Kbr2NPW6SxycgQg6AFIKmhJmwoDnjSwQMTQCkBi8JEemCRUUQE92o9qM9XjqQz3yXP1Z2rvaF9nUmFcp9ynB3/p71CmSxVs1fquy7h5lQRR6YFZWnCS7g49eWwaQDDQxji/drR1+zqdWYx0UwFwbTYx/m6chwRNgQFi6tpD12kPbq+FItkhOhrXok1S9RyNm1rva/3eXpsj7zTQWI1Ni/jXxtZa046xnbg2hvXX2U1opfFb5/yPf8fhtenlvkPv04PqDDx9RHkYx3qG+Zu1+Rhl6hDfdK6NYb3b/H2yLMrQNL4yynBLFo95h4zN+N1JBwKD3PK5vLfNm221owc8SiCnzhsdvNkKjNTlrwv/GefUqVN02dDHfkhuW0Kn5iaBmFrQaTedxu+ZwNopq0pXtOXq6DuM+k4xhwr+ZNBlmzadcmQ+ojcPy+OJ+k+jo5qHWrwWjY9dY4O+69C3QpqO+zp57tBeoM2L82vxm36QNPCf0PQk/XOIxxUdj/DtET1i0G/d9LZOmy73Ged0nG44uk6HZcMoK0Ze6Mab+vuOfHfCuHW+0XnaqDdaYzPKiaZ/jYkzGvu11ubIfdr+p68NeVHfC4/INK9dXMk1JUKZ6Um1BvLluiyW12lFpdZAsVyH02mBw2pGvsTAogY8TqaGNZEr1eB2WOCwWVAo1lBvNOFxq5StfLEGm9UEl9OKQpGpXg24XSpli99ZrSZ4HFYUKzWUqw14nTZhkHypBsYO8Tv9/R6XFRazCbliTZSS22lFVR8b32+1yH18r8dpRb3BcTfgsJlht5tRKNdRrzfhc1lFofFaq8UEp92CUqUhz+IzzaamvMNqMcu8OC7+x595fa5UFzp5XBZU+F2lAZfDLNcLbZhT7rKiWm+iUK7CYbcK3QoljTacf5PzqMJpN8NhZxoYadOE12VF06ToZrVY4HFyTnVZE7fTImlU+WIVFpNZxlqu1uX9HAsjxTknCiVpVanV5Z1cJzU2puKRphZU69qa2i3yfj6TTMXnMAif7+R6OoRuNXm/322TtSUdSQcX161cF7pxnAQAuQLzzM1w2S3y91K1DrfDqtGtJtdwbfRxOx1m2DWeYnS/x2UTHuG4+W4jbTgnDpK04d/5X6lcR7nWELoJ3xSrat3Ib6UaqrUm3A6z5MeT3hQEeX+tLvfyZ85F8Q3nb5V14DtIb44tV2TwGsemvuNzyTP8L1dSdOP7GLNGWXDazHA6LBpt6vC67CInxTJ52iTXkt+r5CnhN8XTwosOpj025XvyvvCb8LtJ5EZoWuHakG7kDX3d1Nj4Dq6b3WaWn2t1NSeOP1/U7rNZUK7o62aFyay+M1tMwuPkaa4T36FnfejKh3zAOXLOXhf5oYFcQaOVLv+UP1krIFtQ60hakW4co89tlftJY6aQ8tpiqYZKnXxkFf7lO3T5I52Klbqsh9VMPjbMudZAoVIXfuO8s4UqGDroc6m01UKpLmtIuvLnWoM6RqVhkq78zuEgH9VQLjfg81hFqcrYuFYum9CqQj52WmGzmpHJV9V3DrUelAeOjd/xPq6136vuE72p6UZ+R/nxupXezOarcLsUH8l3nL/LpsYmdDPBZVd8TB3I+6jGdV4hX1G/VET+baIv+Z2MTdPbvJeywb9x/mrdOO660I28arep9/O98v5mA/lCXXSmy6F0ar1Gna7WrVBSMuZ0WFEu10XGyQtMP6X+Z9An51WpNoUGLtLGQjlS8kdakcc5HvnOSvnjngLhDaEp5d9hgZNjI9/UuDbaflOoybhEN5Qp40r+uXDUPzabkn/SnnqG6029KXQzm+QdfF9FeErJWFaTMT6HtOb7hd80nc6JC9065D/b0pvcU9T8KXuybmW135FuZErR25puIl0ox4puh9eNa0PdpPMbeVrpTdJN8bvTboXdZqCbq63TuZ7cV0hfjpd7keIpfb8x6G3Rm0zZrsBiVXTju8lTam3MQl/Tq+Vsk0Thx2IyIZ6tCBMPhRzyomSugqDHLhtIPF2RgQ4EHSLw+6kyQj4bfG4b4ukSqjXId9yo+R2VTshnRzxTEYaJBBwCyQ9SJVEeYb8DmVxVmDQSsItSimfKsjgRv10WM5mtyH1UWnwmGY3fFSo1udfvsQlz85l8b8TvkE2Q91FZeN1WJHNVef9w0Ilao4lEpiLv570Ues5Tf/9BkjnUFgS9NmFQCiznQKbcT5WERgNBuyjWTL4mCoFKKp4piVIeDjpQrPD9ZWFsLhLnVK02hTZkJs4joH1H+hKkDAUdsgb8joqDtElkyqIgOV8q1FiqLGCIv2cKVWQKNQwE7MLoiTRzz00YDDqEnnwn6ea0WbGfJt0g95E5+c6A2wavxyrv4wbH72oNyDupkPwuKxJZtW7DYadsuPyddCM/pHNVWYMBv1q3fdLNbkbAaxcBzeWrCPmZ127GQaoCi7mJSNApwkqG9XusIkzkDYI3jptgjGPzOi3wue1IZMuyaQ0EyFOQNSZNOb50viLAczDkEEY/IG1s5Ck7kpmKbLRhnx02q0XoRhqRN7imvJfztVu4bhUBZoNBpyideKqCcMAuSoJzooDx/dwoDtIVBDx2BLxWHGTKogQiPjU20pG8xnUl71HYhkMu2ZjIb9yQgly3vOJ3voNKK6bRLajRjd9zDgSW++mKrBv5rVBuIJOriJKjMMfTZeEljlutaVUUCcEcaUhaDvgdMv6DdFmUHHmRfFMokaasYwB5DmlEOU5lq6JYOV8BPk0oQNFogiUhkpmqzIf8wHUxyj9/5ibIe6k/YsmS6IWAl7qhLOPhWIkeyI92i1l+5xqTX3if8FGqJBsX1456iXPhPKiw+Bx9PSgzyZwuRzZ5X70JDImM10VXEYAEPTalf6p1DAacQjOuI3UTx8a1Ij9yTny/kjGz6IO0vlZ+h4Di3YMibDbFRzK2bEXklLSKJYsy79GISzYd8mDQZ5ONgLxJEDQcdon+jCaKMj/qH86JGxNpwcPLXoJ0s4L8kMiUhDb8jpsJacxNiHxF+S4UqwgHnLBRNyTL7bGRj7MVDAYcQmdey7Xk79QnHDffzfdwviQqdQXXL54qi64PUm+nK7KZDoSotxQfUdeRx8mn1D/DuvwJH5kQCTgFrBEgUsZIN86XvM53cD5ct6CXdDOD+pZ6cyTi1Na7KuOifqAs8hA0HOGaNmSOQeomr010UalUw2CItDEhmigJ/1PncH6UMfIUD6KxBMdmxmjEiXiGY6vKd/yb6HRdb5ZqMmfKBvU950vdSB3DcXCtRG97bIilS7LeA+SpRlPWmHQLedV+R/A0FFLf8ZnUTdxHyFPcUyjT5DfeR/mjzItuylVFp/JQHkuU5BrSke+nrFC/EkzzvmqjgZGQJv/Zisi4n+9Pl0UnDPP93G+Sum6yI5VXtOHYLGbFbwQdfD/fTf1A2lBfkTdMz95mmtF4UYjEm8gk3GhtFgsarGJWUwVjuMBEFGQ0Kn1ew9+JPuS7usqJ5umXp2wyPZ9JBMmfacbgxq9/R+XE77g58J08fdLURaXLBSez8e8UKH5HQgmiAeQ5nDiv5c9mixm1ql6sRZk6uaHx/dwYiKZ4SuVCcIzyDn5nVu/gfxQyPlzdB0F8XFyOT8YG9R0FVcbWBOqcI99vVt+ROHyHopv6jrQjDfksMiQVXK3G4ivMzTfLWIiguSDNpkmK6nBspA1/5net91cbQgf+zvsI0jgWKc7DOYFjUzQV2mh04/toI+IzOQ5+1x6bMq7yO35IY45L6CbrrdENai1aY6s1ZA14HWnCUwPHxvmS1rKm/M7M+TeEtmpskBMTr+P1pI0qMqR4imOTOQpt9O/E2ItqtS73WcxmOcHWG2ot+D/yH1dJaFNroC7jNgmgJP/xI2tDuslasGyOSRS3+o604fzrolRNnH9V+86m6MY1Jr9x7Vq00eim+F2jG9e03pSNjkeINt8otK94QVUg0OnGZ5JmvK/Nb+r93BQ4H5FFjcaco6wbx63JkNCfNKUMi0wp+zj5X7+PvCHvsGk8LfKmZKpUppWiJhsrwRuVMnUDx8UNVKybpLmBHkJHbY1FN1hVjQjSg3zE73VascCT4jElR+R5zoMz4Xrzbxyr4mM1D55gWzyurSPpo+Sf95lE/vkOJX9msSQIj2n0aMu/kcfVnPl+Poc0Fvmvqvt0GdN1Ey13BBkEbMLHDWVxJY05Bl3H2aW4UkPWmc8gT6ixNWC1KUsYwabwUUvGFE05cFrF+HfqI46bfE6+1cdGeSKA0cfNsVD+ybeyjuTxhrKKkv94ule6SeMV4SN9bPraKH1LHS36T9P3pIuut/iACr8zQXS+0jGkm/JZqDU1wc51a+l0k1g8OV+RMeEbpeM5f4oO76Pck/4kkxSmYpEtjTaiG7nfyPsbsOnfiYyp7/hR/KbrTX5HepPHtX2DY7OZZV049pbe0HQTeVHfb0hv4UWD3pJx16h/1LoRIOt6g3zP54r86/xO+ePYtD2NfKP0lr6nKPknraRYmoV7ipJx0pCyQ7qpNTWL3Cm9rWScdKMMcE4tna7RRmRK6MY1Vbyh9kKlU2X+pI3wu7bfWJWVor3fNZHKVWB6vpRtZvMVYXIxZXX4WZVWOBqDICpb6YJ20RKDL+uQ31UcIYbYBeN9nd8ZfX4n+Ws0H6jud+/015zk9z3Ld0Z/Veec9JgA3QeoX3vEzykFWCCLxk+nL+uIT8zgS5P7jP46w1oc+a7jvkP+2Q7/nCxrl1gKo0+q0yfYSbdjx63HTmi805Vuhvcb6Wb0XXIs5BsKQMsfbIhdOc6XqF97Vrp1WxudTmf5Tlj6UKzO4fgQo+9eq7lkiOtpX9vNB9k1dkfzeeuyoJGtxTfHrZvuxtbnSFXLkz5PPzSPczPgiYfKhZYJcTscx2OaHOvjOzT2Dp98t/EYx27kTYH72pqfdl8nP7TjbNqxPN3iCo7lI11uZXBaTJZR/qjHuPd3icE5pBs79NgRX7ZBx56oN7voxm50U7yqrxULQx3lv5P1ZjsmwEj/zr2hRbfj+E+bVzc9YpTNlvx37AVHYhLU2a8Vn9QZ13XoO21tdFlsybE+1i4xcF31hiF25sR9o2MvNM5JdEEXfdsTL560F3TRoboYHrs3dIlrO07eRO++fJdt8iRM4ed//c/VUkCvnqcYtx3kdLVv7e3pEkyo7WyHK/n1dn+vV+lBolpc2OFUGe39elU/JVgaCu31Bf3rzkUBin+G7ql0WcysyorAU7o6/Wg49VzP7t/061NAlfvuqPjZwzD0apm93vu+6bEepti/5BQKUA2Lxfjx63QzKX5nq/gM9ejqPgUvnwJ6aVrVAIjmuzpYnU1q2MvvyvSqF5Ph9aram172t/2dHvVLYVbPVWVt9WtVyVzlruEz9HfzZ4Vutahtw3U0obFWP81oLpdLK/2r0YFleA0kaWerqL+qd7XL8Orj0OdF+6mUEuY8taMdSxaLmb1SkWeQDvq/7BHAZj0cLxsf6Rkiao59IHv53KmoSh81ffL0szKgdj9VFH81fZ993XAVVL/8Z4rLsab6blit7LvhFJmmBNe1qpG6juksXEV5LZVLqFYq0ieDPTdYmpomfl2fGAEBdRjllLLN63Vdw1mp6yjybT3Wb2R1+et9FU/UXSwCEHhiUIEhfYBwFcTmM9nIZWtrHXvRHdxcuIP92B5isShu3FiAy+VRfjg7o94Zv6Citfk7f6ZfTgTVbEGlUhI/kTTLoe+/UpEmNRRMbqq6AY59AewOFfjIpj1sKmOx2FCrMShQARN2GGw26qoWvcmEtZUlxA/2EQiFMDU5A4/HK6dGjomKQBoP1epIJePw+QPS8Y/vl5gRNsqp1qTLoAIn9IFbpEnPQXxfuuwNDY0il80gm8vK81jX3h8IIrq7LcqFXQ/ZKOfGzdvY3dnC7u42LFardC9k4x2n0y0d+sxmFZ3f/1w+BcQPW2+ID5w+5714UQLWGDTXp/jl0/uynyiR6bkM1tZXkEomMTQ8ipmZuVYTMcojP1WtURgVDdfcKfrEjL3YLlZX3sJmc2Biclrkjc2tqF8oi/Uasy7q8jMbdbExFjtbUj5D7NhZLknmEME+dQP1jM2mftZ1mg5KLnvu/eddLgXkEPrybaZJvyODHyTAqP+5fAowdczuwC+/fI8nj3/AN9/8M5ZX3mJrcx3/+I//O6q1mrSaHRudkG5y8fi+CNn07DWwe97+XlQa2zicLkT3tgXdRwYGBNmz5W0wFBbrARUCBZSbNTfq8Ylp2bT39nakex471iUS+/I3p8uNxMEBytUSHn78SMDAn/74O5RKBdxeuAeHwyWgxmK1IJfLSTdBCj27DL55+xqTE9MYGhrB/v6enFBC4bC0/S2WiqpFcqOJSCSCuWs3sbm5Jp3zFhbuIxrdwf5+VDr4jY1NYWhkFBtsZRyO4O3b1yjkc/j000eI7u0glU6KEsqkM9IieWh4DNeu3ZD59evhXwGb0oJQ1SwIbqbImiSLgUFbfd1w+fS+7CdyE+fmvbb2Ttpnj45OIDIwJHJLEF4ulTA5NSuWBcqWx+uVTpv8O2VrdGQcr18/w+NfvsfC7fuYnr4mQIJg3eV2SZMq6ikeOILBMIaGhpFMxJFMJhEJR1Ct1+TQEYkMiLUikVRttXlfKpWUAwVBh5LfPty87PW/7OdJ+YPnbzNN5iIzGlJFXfc/l00BOWHb7Xj2+Cf89NN3IripdEJO5h9/8oWcnN++eYWR0QnUa1URQG6A128sCAJ//vQXadnr94eQSsVhs1phtlhRrTJ9sgoXWxizra/DjkQiDqfDDpvDDrvdLf3sG3XmCDPlh+mSEJN9Kp1TucluJx4+fASfP4jFxefY2lpDOBSB1eoQsMAPQwRjsV0EAn4MD41haekNJqdmkEolENvbhd8fFACSiB8oC4LW6pcn/q+/+Ufs78dEad279xF2d3cEJPAkMjY2KffGE/vwuD149vyxKKvx8QkxicbjB3B7vDCDlgg7QpFBzM/fknn2TZWXzaUqsC1TrCAhMQhO0QmshcEULQcj8Puf95oCBPTUHa9ePhVA//XXv5UMj9evXmJ3d0OAu8vlRzqdlMBFl9uNaHRbrH0jo5P4/LOvkM6k8PLFE8k+CvhDSCfj2IvtwO3xSVtrgg1aC7i/+/w+FAtFlEpluD0e0RG0VgSDESy+fo5CISNWS+oBtsuenb2GWwv3xZrZBwjvNStpWRxNmH55lWoyTzXkdUjebh/YXf7CSRqL1YpXr57h5Yuncsr3eDxyQg+FBlAsFcT14PX54Xa5xXxPQeemWK/V5QRO0yA34YP9GKZn5wQY7G5vIRgOIxAMSW/6wYEhQfR2hxVOlxPbWzs4iB9geHgYwUAYhUIB4TDN+n4svl4UBREJD+DmrTtincimk/KuN4svMT4xI9aMTCaNjz/+XDZrnuq9Hp9YIMYnJuU6jnNyelaATDaTgcvF3Fum1dDykMcXX/5GWuUuvnmB+flriEb3RKkwFZRWEZ4mmIrFa/humjn1EwpBwM2Fu/B5fNjcWIPd6cSNG3eELn0LwlXwqUrzpGuBeeAsmrIVy0v+utQwMWQpXf7b+0+8KAUog9VqBYuLL7AX3cLHnzwSHfP61XPU61W43W6kUhmUigWMDI+iXK3g7dtXGB4eE2seDyRsy02QsLyyiI21VQHi1Ek8vFBv0Vo4MzuH9fVVLC+9wey163I4yeWycmD4zW/+CTabE//rD/9D0jr5bB5saDUsV8p4+NHnGBkZa8VCXHTO/fuvjgJiQXi6mG6ycAyLfbBCWP9z+RSQQEGLBetry3J6ZgAgAQP98cyZzmTTsuFzw3Q6nILGaR2oVetIJhPI5tJy0qbwEkgMDY9r6D0vsQM0DVL46ELgRstKaDa7DblcAZlMRsyIPK1zwZ0Oh5gLt7e2ZAwEDbdu3UEgGMHKyhsxRdIEeWvhDna2N8Ui8dXXv8Xu9jZ2drcFvFQrVRljo14TADE6Ni7vTiVT2ubNGAeznBoIPmhufPnqKbKZlJhAJyZnwRiJWp1VBasYGhwWEyQVmMvtwZs3L2ExWzE6Oo75G7ckLmFtdQk2uwOTk7OtoM7LX6n+E5knzUqcrE5I3zSLzrAuglRl61uF32sG0X37sdge3rx5IbI2ODgsloOD/ajEAdB6SXnyBQJiESDI93q8mJmdl3gFWgQJ1KkDqLOoI3j4oP5g3AFjomZmrmFvbxfPnz3GnTsPGL6ISrmKg4M9OcgMDAyJm5TPGB4ehcfjE8skdc29ex+LvuhbAN9rVlKWYwKEV0uZJlOZaF7spzle3aJReHkypoAxKJGbfVkCDhvI53OSRsZNl7HkKnNBaeNCoYh6naVpzXj75jUODqLMcsb4+CSmpubkeYwnoAuDioDP1TMhVDQzgwoTcLpccLncKprZxMJSKhAym1P+ff6XSBzIhu/3BSSk/fXic7idHty9+xFSqZScTgLBYCvKmaCAMRJ8r9fnE4WkRzirfxtiXmSwIn2XDFZ02p0IRwZUtc39PfFZShAVTGLF4LPocqHZk0CKY2aQVLlclHHzBNMPcroaPqUOyBYqUgmOFgNWwWPUuxRgYgZK//PeU0AChLVDB62JlEtaHtMiv1WJDxA5NbMMvU1APWWLcs2NvFgoiJxS/0gsgdmsrJI2HizcolscDre4Qqm3qLNURpVJDg50nXrcXgmQzmbS4uJwOenqzIqbk7FKetbWe0/MD3iAKs2xCdOTxXQzpZ0SpB9A/5RwpWyhin/oaXpMHmLlQZWOqKcFdVZloYKmUPN0z02VQkvTHU8Hek0BvSGNgn5qCuo7FnNRtdgFeGjFRvRRsHqXKtjRTpHkJs2ARwIGBg8yi0D3GarcapW61Bovf9bSMY1zM1YLMqZd6u+ihYEAhwGSejqnTnwp4qTadmmT6ScuXCljasV1WEKYdeaZ1cR1UhlOtn6G01UT/xKfr8sXqzBSqpXMMhVaHQKVjldNpcRtpG3wLdmjVuLXmkzrp315rnZPW1+pip56EvThVEhV0U+9U4EIY4rkJU65/6hLpoAABFZ5ZAwCay6zxjT7D/QBwiVTuuNxxgqd7Z6wAAAgAElEQVR7Zz0J8zRH/78qv8nKdj2e6owvNYxHF1qlL5QA6xqAgITfEyzoYEPHHmepQqCABZ/dHmvrvQoFtJRLZ20FYyBTX7FcLV/qT1flxVUpbmY37cYL0m+AdeT7uuHXWYPLeItxMzYCAKOMHfq7IcDkuHvb4L1dQ8X4t170WT848TJW9+qfoSr/Ms1xKdMsVRtSarmfynT1hL/oG/ob5UUp2L//WApIXY2GNHNh4xkBCZLmyJ4KPYLRPnn7FOhT4G+eAjwEinX5xVKmyQ5bLIzST3P8m1/X/gT6FDg3BZj6xi587OgZlk6gZqmsSL3AZjb9T58CfQp8GBQ4VGpZyqm6WS3N1mrw8mGQoT/LPgX6FNApIJU5q3XQosi2vqyouBNna+K+i6HPJX0KfEgUoC5gFpOkOaZyVbidFnidtlbbMr1zFYNV+FGBKIcL3Hb6ovWAsuN81MZndLv3JN+28dmdcZTGcXX+bBy7/jP/PYsfvRtjtDq46d3m2BTlBA7SgxMv+t4PiUk5V71nxGnzbvWw0GKv9Ot1nuv8vRuvHsfjJ/Gt8bk6Xxn54DgZMfJg51i63X/aM9thr2051WWhm0zonfCkIY+BuKodrWrHS4AQz1YkxVHv02IMaD1tTfrfU1+yWVJ3SjB4T9bN2KHQcGnnmveiX4/TbSfdexxvnUV2Omd40ti7yZPxXZ3vPSS7WnfbbrEMOm+Kru1C0257yGl7jvH7i+qB4+TcKLtGOp60j55lnU/SHaIHNB7s1LUqzfFdtsne0ox3Y1tXaa+r9fPWYsg6AIIiU7fB96J0jUrLSAwVz3/8cl0GQDiRUAYQ1I3Zjyp6Nd4m+3xr/byN7Ue7LTSVr95k6Xjl2QnDum07J6nebvef9RlXodqPG9fRd+nrpFJvVYOnk8AX2VbvIaB4tr1anXzVyUedwtkNBJ+kGI5TdscJei+bf/uatkwoCqjRdcpJN+XaOa5uyp6kZTll4WMtk4XxB8lsGSG/DU52c6xTN5gkRkliXRsKtCm6vo+f49StPtbe+fAis9PpLc3RDK2/25LInhdsgNQd0Gk6WxuCpmu03y5r4zisf9UbD8vO4YNUm6cUh56mrxWlj4798HPUU3oDCCqQmm0BqHO76QTyJnvV6KDs8Abf3ru67VWn6f3j9qije5M+58NS1wnYj8776PWnAa+j3x/dn9X4jvu7egJpSl3QopvezfHZYrqZydOCYIXLaZHCKNv7RZTKdRVhrlG4tRjaHI4DCEc3UjWAbor3KIMef7I/aYPoVMadi3/SvWdFb/q79GdKAxKrGaMRJwaD7Dp4+KPMtg3sp0pI5asqMvREd+4ZFVin5j9C6TMqxl4k51ya06AlT9tZJPXKBLvVJDSl66udnnWUvgykI8+Sdxuy0XVcY/i1Gy8YeeA0eHWScj7ES13o2Pr+FBk6jbzdZOykOXSTPXbU5IFgOOSU/wQomIBcqY50riI0Z5BiKluGx2WTYknUCXuJolwjyvKw9j26m3QKZqfAH8sHZ5SBo1J3Qk7sKc/uhuBOW5BOpdB6hUmsL+Rht8PS2gS5ie0lSthLlqAfzuS1R2S5/eLjgKuuW/XbO3XtSUvUq/7tqj8JxA0P70a20/Ru58baqYuNc5afNauA12XBxKAbfvdhl3gqV8H2QRGMqdPHdmj+hjEf3dS7s283+nW79yQWOVFMtIcJiOzcO7o8tHMf7rb+R27rwletMYmuBRx2M0YHXAj72L1TGQpoQTT98ird3E8WEfE7xIrw5F0KsVQFEZ+q239kkfWXncDMxxLrPPf0Kpw9K5/zPPCYldLMXSwu47BacP9aEANBVadcFk5LFVnZyWJxMwubxQKnvd/vopcVIAmZk8/o+ftzAYxGXGIl6NxzyMRvN7NY2c2JEnaeVg301+RBo/Sehz+7jfWs4z9GOUiRrGJNavLfmvJjfNAlioFF00hn1aipgd2DghRNcjosWNzIYHOvKIcJft//nEyBar2BcrWOiQE37sz4hZd5QNhPlfHkXVJ0KwGEXq/kb4qevfKh8bpe7+lCCOG2JkCapgtVjIZduDcXgMNhkSNRLl/Fi7WMgC5ucgS/x+5dV03os8zzuGtPeoYRofQyl1OAJy0utByaLSZ8ciMkWIAHLTkEvHibaTIwiZHK67tZvN7I4eaUH5NDrn571x6ITxCQzFTwfCUtxWQ+vRkW5cm9jIDrIFXGL2+TUnhmfsInjW/6+eSnE5bNYtLZCp4uJYVhP70d1hRs+17SORov4bsX+xgddGFhOgCbRfWu739OpoAZJuTLNeFbAoNPbobgcVglayFfqorFgNUTy9WaWMiiiRIeL6cxM+zC9LBHK77Tp/NxVOamRaC1GStgfa+AT2+GMD7gQr5Uw+OllDTB+mg+JACByrj/6ZECTWA9msNqtICFGT9mRlT12XebGazs5uX36RFPz7FLPb717/6yZLqC7xcTIt886LKLr1gQXiylm7VaQ1oHv1xLSZnVzxcGEPLaUKf8X7YOOM6m320JOm2y+onsssd0geW3mIFSpY7HS0mk8zX85sEgnDaLxBoQIKzu5vF6I4sH1/yYGFSMexGA0CpGIg9RBDrPhih3tvxHbYKeRFr17ouNv1dSs/Q0Gwc9fhtHIlvDl3cGBIAZrQg2qwnL2zn8sJjAo1thzI75hO6H6Ntp3+tlAIo4yvamf7rZ9Xt51nt6jR6E/Gw5iViqKhsYZZ59WVSpZbvEIFSpG8wmrO7ksBYt4Ms7YUT8dtEN5+FjYyXRixbNMfLwRZ912cvEsZFuB+ky/vIqjmujXtnQWLX2zy8TGAza8PGNsICzM9Oxm148bQKavb4VO9Lph1OK5PjPWfS2rqdPe+ZpY+7yPXUq3bW/LCUxPujGwpRfrnqxnEIiV8GD+RAG/A6J7zj1o8u5NnHdjSH3nTTfTt/HRed5VtoaxmeMEzx1vl0uIJVobSmWa/j2RRxs6PzZrTA8ThtKlRpMj1+nmomMata0tptFOlfFp7cicuKtXwG0JYOy65gI9DGSoRcDMpb4bJUPJaph8Jpe9vOYSRvX+CqLC1HRsrkNT2LJbBXf3BsUN4IejLi8k8PqbgH3r/kxHDpqJj/boqpSpbrrQm2GjGlQHKYYXK+IePjJwkgaIxpdIK39TxSVASh0+usMgETd0/09Z5vP8VdzfWmOfbmSRDRVwaOFMAJe+xGA8G47Jxaaz2+FMTnsliC6lgVOAzQq7qOLk++Y15MO5D3yqQowa0r3SRXMpxyhwoMSgHaYbuqRJDT/UwLEKpJ//e6TRq2mjdAEvFxLi0vx4XxIurkyzoCnXA/lv97AXlJVWd1PlrG1X8Sj22F16u1B/3Yjb7v6J2msh16Sj7UgyBYfa5TUbMv693o0k146XF8fvXzwIf4/Ylo9TAN9fIdl43BF0YvwM1mO8RwEsOODHtydVQDhu5dxDIeduH8tIHqsV1rqpc2bbKl+ht4YOj/znja99NOfpjukRbsKjuqaISDjVDLQy4fyY1yjXu7p5RqCrkSmhMfvUhgNO8VqSHl8sZqSGK/71xTQPQ0gtHWg6hlDXuTURKYpufr42bvGMDBd57b5WOkEBfS6C4WxjP1JngNVjr4jtsfwbuNzZHzyXqWjzvvhkBmgyEMu+ZSP+vRGCGy7wEqqpieLqSZBAX23K9tZMNDj05sR+L1UEOd97eH7ODE2Cjk4iCGZjMPj9Um7UXbuI8OR8chNJDpL/PJarjo7/LGxB5v7sH1wuVJBgg1/nC4EgmGQnXmvUZnroEJX3nxWtVKB1Wa7kiY/ZAwChGfLKTBdtBMg0De+vFPA/Tk/RsLnBwj6RsSmJ6QhGyWRRlTig4ND0jZZL5Hb2uBMFpWV0lClcylIqvmOaqnMBkxs5EIa83f2aWc3NhUpzL4cirb8nk1cUukkvF4/vF6v2hgbDbGIqFrvSuFTyZBxuY4X+SiA0JCTwV66gi8WwvCfABA+uxnG1EgbIKhukgXs7mxJF7vBoWEMRIakvrxsTM2GUojae0gcvtNisyIRjyOZOJAWt2wYxUZTbGUt3ScrFaG9zcaW2m6hu520l34aChzwvWxC5fP5hHbpdBoOu13acitwrOjG95OOXDfSjDyu6KjWiFY98reyRqnvVA8Mfteui2+UAaXg9d4equlXpVJWqYtWa+v9GqbsAAjs1tdEtdGUwmkMrmXRJAaFReMVbO4XBCAEPPbW5n7WNSYt0+mkNPFiMyDSTo2ZpFPATCktnacI1NQ6sfW5roxJN64rdQqbmUUig7Iu0rCMfMkGdGYF4vg7G37xw+8FZOsxgRp4UzpENTIj73INLtI7QCCiySQA4fvFOCaHPBKHIADhVRzDIYeYcnsFCCKzxSJ2djZRLBUxMjKOSCQiXU/bPMLNTOlTBZTMYsVkA7b92B4GBgYRCoWRzqRF9tm+mTxHWWczN8o1S7jzP85fgVsTavW6yEP84EDa1A+PjEoTNaVPFAhu93tQWyDXuFDIi25igzVdVyhgo2dzqQwanX974SWuaTxTwpOlFEYHnFiYagOEZK6K+/MhhL12MY+f9Mnlc4jubrVaWHN/IC2mpmZkzgcHB6jXajJXxUMsO2+W7raZdBojo2PCU9HoNgr5AsKRiHSx5Fw5v/Y+pFpwcx+yOxgbYdVoqzgwm01je3tLaBkZGFQyIe3sNVkQ4VD/J3pV+Jj3ZeX97ITLLpui0yQlpt3sTy+XfyIh6ArXAcLrhMQkMQ6BLkZaD00v32WaKv0OeLmaFoa+bIBAoaTCfPnyibQOpZIeGZmQVqDsKujxekXR5nIZ6SmeiB8gHBkUYXY5XdKeOJfNw2y1olwuCECwWewoFNhNzCvNfpKphGiZYDAkiiSTTYlCZMrA5sYagsGw6hp4EbjVhdK/FkDgBkGhe/nyqTD1+PiUdFNLpeK4cfM2BgdGhEkK+QysNrvQtFwqSzMkh8OFcontW81wu73SvW1zYxX7sRju3n8oNHn37g1GhsYwNjEpCpJAhOvEzmy1ahmbm6uIxWKYv74gbZkJKLgOClyUBFw4HA6USyUReNU5kiDjfEfNiwAEjptCufzurbSuDQXDGB4dh9/vRz6fF55iFzoqSW6ewUBA+I+AlEKcz+WFHkNDwxgeGRMFwW546XQCuVwOU1Oz0kI7kTyQzpxsletwOqSbHRUNFcjPP32H+es34XQ68ebNK2muNTY2IUDL4/OJIqHiLhULsrlRqZL3BfwGAtIKnIqcHfZIb3a4ZDc8DztoFguifG1Wgvi6tO7lhssWuwQV7OBHHmGnTb6nWMiLImObbY5BAIh26jBaEEI+G3LFKlLZKgI+OxxWsyqWYgJWtnPKgnDnfACBPEbavXr1RGg3ODSKyckZ4RXKq8ViQ71OXmWwtFnmR94ifakjCsW8tCLm2lKJk79ev36B7e1NaYU+NzsPr88v9zmcTgFk5XJZQAR5k23T2ZVwemZOFDD5gzSnkuXviqfLAu4IsEgvNilje+Tz8PFlAgTpvlqrYvH1c8T2ogiGQhp4ZZfENHzegMbPSWnlTHqQBvF4THi9Uq3i5YsnwlfzNxZkw4kf7CO6tysAJRSKwGRmF9UkfF4/RscmBAhwU6PeoYz8+OO3Yj+bnbspGyH/RrknjciDBH5sDx0OhVWn1tie0H58YlJ0P/8W8AdFb7A1PbvH8n7ygs/vh9vj68lndVGAoOt/jvfVq6fYWF/FxOS0yGksGsWNG7cRHhiQ+XCO3LTL5QqcDqf8vrL8Vv798qt/QDwex/Nnv6i0S6sNc3M34LA7lEz6/bKnck8jrUmD8YkpDA2NCF+TNuS7tbUVkQm23CavX79+SzZ58uIAu95q1nIBm+kUtrc3RAeQ/wn6yQvcU6nzuccVi3nRK1arHeFwRA58J/qOTgAIYkF49ibdLBRrsNkseLOZkcCwTxci8Hsuz4JAAaPyevr0J+JFURT+QAgDA8NywgsEA3Iy5c8U2P39KKanZ+FyewUkUOiJnHgKFItAtSqtRCnMPn8Ao2OTsgi8b3x8Qk557IlOQR8cHMHa+jLGxybx+aPfyPPOu2l1Q2K/FkAgDWOxKP78p98L891auIfo7g6ePftJ6HLt2i3ZTNbXlmXes3PXsbu7LUiWpwZ2grQ7nBgaHJG+7dvb69I2+p//+V/lhPDjj9/j+vxNzF27gfX1VayuvBWhoSKn1YYKk2tz69ZdaRF9sL+HcHhQxkJlQKBGZcF14MlmlsLicJ677/vFAIJFrCzPnv4kyP7a/A2gaRH6vVt6DafTgYHIMDa31oRXRkbHBaxubq4jkYxjIDKInd0tEXYCKn8gIOic8yfv8vSQTiWwurokVoTr87fg9rjB7pRDQ6PCJr//3b+LouVpbGNtBfPzN+EPBrG+tiKbUWRgAFtbm8gX8sLrgwNDePv2tSgV/r4fi4oC51hoaYvt78Hr9sLr8anTWTHXSosj+PD6A1haeg23yyPrTbBDZUyAxxM2FcvHn3whrbvFiqQxcwsgXFem2WyhKumibM5ktZoFMDhsFmzFCi0Xw3ksCFRwiUQCf/nuv+HxuHHj5l3pMrqyvCSAh/zNkxBBWTAYwcb6ilhsuC7c3KuVMrY212GzO/AP//Avovh++OFbjI6NC70IjtdWl7F/sIeBwSGhA3meypzWRipN6pcHH30ieoMnOZ6Y2R2VNJ+cmpVTMnUNT9NU2gSCjx79gzoBnxHoXhpAYJ0Vs0XA/M8//1kAzuzsvMx3Z2cLb9++En6iXEf3tgUUhYIR4T1uPgTstBwQKBM0kle4SdEKkUwewGF3SkAagQWtEwQIkYEhjIyMoVqrwOcLymb+37//d9jsNnz08JEATq4b+WtweEQ2edLUZLJgcmpa+I38R11LcL65tSGbF+lNWWDtGIIYAmm324XrN+8gEh7oxYAgVqGLWhB0a+zW1hpev3qOGzcXBNx/9+c/yMGUcyfQp8WGhyolRz7k8hmxWPl9QfzL//Zv2N3ZwdOnPyMY9CKdzmBq+prQn/qSz2nU6wLseT/vm5iYwdDwqOhM/m10ZAJbm2t49uxHhMMDYvHxBwiiSqJraPG0Wi0IBEJiROBBd2trXawy1Fk8yFBGDvajAhjGxidlzBsba3LQ+OKLbxAKq/bex366AYSbISmaSLeDpDkepErwum3YjGaR0GIQLh0gJA7w84/fykmATEoUSoW6/G5RTj1UwjytELHvRbcwNjaCnd2o9CunACws3JVrXjx/JqjZ5XIK4YjiqDRIoJXlN8JwVB4ulw97e7sYHBwQRqf1YH7+7pkF/TSu/bUAgjKplkXot7fW4PeHUMjnRMi5gZAhqFgTiX1sbW9gempaTstUllSMtAiQXpUKT2l2DAxEkEim8OjRN8KMP/7wPW7dvo3hoRH88X/9Tp7D6wkeaKYcGx1BIpGGzepENpdCuVJq9YUnsyvzrnLjPHjwsSgontDOqlh1el8UIFDxP3/2E2ZmZ3HjxgLy+ZLQ7s3iC0HZPDVxh+XGzhNCMBCSzWHp3RsMDgyLgrhx/QY2NtaRyWSEp6jkCoWsALFiSZ3iidK9Xp8IJXnw4cNP0ag38P333yJXyMJssqLZaGJ6eg4Op10UApXG8PCIKBCny4l8voCp6TlsbqwLEBgbm0Qhl5XTNa0BB/v7IuTc+MX9RktZKCTP8fPUXCyhUChg/yCK8bEpoTutRKNjYyjkiyiW8rDbbLj/4FOMj0+rk2EXCwJjEKrVuqSSMXOhXG1KN0daE+KpikTkn9fFoNyMFaytvsPu7hbsDoc6ycZjAmh1s63JbMXw0KjIbjS6I5Yw0m9+fl4AHmMRvvjia1HIvzz+AY8efY2pqUksL6/hyeMfMDgYQS5fQDqVEWsj5Z/u5Wq1JjqDemd9dUUANE9y5ImtrQ1pnU49wxMk9dCTx99jdm4ed+48lOt0k/Fp+kD//rIAgnL3WcRS8uTJD7h3/2PMzV5DJpPF8vJbbGysIJ1KIhIegtvjFPft9taWuGVpQeQmSF6nZczv9yKZSMJq46mSLjyedAMC6hmoxnkS3PP0SrcYgQEthtww+Z71tVUxc/N9qWRCXGYEdVzX+fnrKBZL0iKeFiCb1S4WTgJkr5f6ewGvF9/IGk1NzYu+og6hC480p2Wrl7iKywIItIzs7e3g1atn8n4CnBfPf5FNlid1AiZu9pQ/t0uBf5fbKaf+YqGMr77+rfDnD99/C4/HhaHhMQQCYUR3tuRgRksX/xsbozvGJWsyOjqOZFIBd1omb968g7W1d/j2T7+XgwgtagTLPq9HDs2rq6swwYzZ2TnUanV5Luc/OjYicrC+tiEAwuN1y0GnVKrK+NKZlKzZxx9/LmvIe88EEFouhiZMz99kmkxtslqANxsZ8aNfhYuBvptnT38WZbpw+y7y+SxevHiGxEFMmJoT4b8T49NYWnolzJ5K0kpQFMblwlFB85RA1wIDwKg8SsUyyqUKrHYLMukUPG63mKsGBkdEqEhsIueBwUHcvHlfUO5lpmb8WgBB920TLa6vvUMylVTxB0PDgtJ5oi0UixJzkEomEYmE4HL7MDExhSdPf0atUhUGpBm7XqtiYDCCeCKFzx99hXq1hu/+/CehEU9kXCc+m6Y3bkJUtKMjo0gm6LZxIHYQlY2J4IOnYCoEMj83Xpvdhfv3HyoTmOb37VWpGq+7CECgiY6b98sXjwVM0sLEdecGQ+Bgs9jEJFsqF0T4qcRo9uSmSlDl84XEnDo2RoGOy+ZCheLzBcSlQ6XKOVMBMs5gaGhMTh88QXz55Tc4ONjH4msCWQILlyg+mrlLpYKYFqtVmg8HBZzQLL6xtgqH0yX30afLDZKnEKvNKmCBmyUBHkEGwRzNzaR9lkrc70c8foBsLism+OvXF2Q+BDJcP57k6K6gEqdCmpm5gVr9eIBQLtcl1dHlVP5sVYvCgo09WhDODxC4tpTDWGwXO9sbWFlZlg0mHA7D6bAjmUiIZWZ/f18UGsdIAMx142ns3r0H2N7akPk8/PgzEeG//OVPMn9aB1PplFgdhoeHkcspM6vL5RD+J5jgBiB+dg9Pe2nMzc1hZ4cgZFvkhW5KLy1zt+6INePVi6fC0zdu3f2rAgQ9boK89MtP3wtoJPgmCKWVi7JZKVcFtJpMDeGpdDorGzT5TXjUHxRrkJ39NaoNOOm20fiIGzVl3OV0C0/T4hYMBPGHP/wOU1Nz+PzRNwLyaXHc2dmQ9SFgI6ijtYygitaImzdvi1Xm22//S8YwNDyCWHRPYkyaqGNmZha7u1Esvn6JubnrGBwelfHRsjUyPC7g1W5n7MPJsQOXARCkBqTJJADhzZuXuHbtJsqlolhZCBzJn5lsWqwKBJR0M9DFSF2ix6l8+dVvsRfdkT1sbu6aWE42tzaFb7g30eVgszpw89YCbFYbnr/4BTeu3xJr2IsXT/HV1/+E+fkbePXqhVj+uH5erwfFQlFiHci72VxedI/DbpP14qGFeoSHYAYnRqN78vPg0JAcBLg21C2U9YXb95TL4zQr7qkxCEvZJk+JVKovV1Mqi+HSgxQZMJYT5UzTEolOf9fS0hsxifBkpAK+bAICNjZWRVnTJ0OfJH2p+UJBkDARE03kNNXSfEJfvNWiTMoUHp4EaQpzOj3iR+KpoZDLi1mV/jOenvWI5/NsXJ33/FoAQflws1hfX8H+XhS+gF9M4IwvECEtFiUOgydJ+qbp1yYd+C+ZmzTlz9yQKOwUCK8vgNu374myefH8CTLZDCYmJgVAEelSgRO4UTHztMFTH5UDT1z8metGdEyARpM50Ss3lbGJKVEMpwn7SfS/GEBQ7kya9XhiJW/ThMcTQTbL4MEA8rkc3r1blE2ALghlGlSnH5qkGRtAkEEQStcJNy3yJ0Goy+0WunM9eB2vWVx8gevXb+P27ftyuoonYrI+jG3gmlRrVVHE/JeghKZcngxpmWDwJ60JiWRCvqM5kSc2+t5p7h0cGBTwRx+uAK9GTU5gPOXw/kq1IgpvZ3tT1tfvC4iSIJDhpkzrAwEH3XozM9dU0J9WKrkzBiFdqCCermAg4JCGTbQm8DS8upO/UAwC15o8SrcMQSoDNEln8gxlmjTi/Ciz5EMBmzbGBnjFXcADAl0AnOPsteuyAdHMzVga0oInMoKHTDop86TvnSAjFAgL+KtUufYEbE646DobHBTT9/5+THh1YJDAIiu0YgA1FTlPgLQ+keZn5eXLsiAYZYSuvPX1ZQnmpMWA/MkTpy7/dMFws6AV1myxip4gsKXe5GZMnRsKDYj1ifxOSxKBMM3U5GeeQqlDCXp//OHPuDa/gHv3Hgq4Ij8yhoNgg4c80pm0oqWCAILv4DrQiss15WGP4IS0297aFJnRXZCMCyNAzuczAuzo8picnO7p8HY5AEFRlb772H5M3BsE3XTdcR50odL6wj2DtKWskkbccwScDwxh7tp1CRSkzhgdHRMdsBvdlRgFHmjpMlcWmQFZA/J9wO+Xd6xvrOOrr/5R3Ge07tLNyJgPWhbIZ+Rjyi8PB/yX6874Dupv6mGuB4EuD3H8ux4vwoMEn0frJtfi88++FlfEmV0MWhZDqaJVUoyny/C6rdiIZpHMVPHJrcvNYpAYTEMEth4ookwfKjq0ZZpj5Ha90Yq2J0PwQwRFxUZ0T8tALLojaE98PQ2eqtpRx0ahUtH2Kk2NC6U/7zLAAZ/xawEEvot+x1qtIhuHzW5vRbZrlfRlji06mRmgSfOkOgnSr2UyNcUdw02Kp3siW6JSmg2pLPhcMjU3Qv7ONaOSVhHgKpCVPk8G9vAEQUXx8SeP5PTBa1VQaDv97yI0vghAkLBILUyd/lAVgWxtRU9TqAgcGPBFhD84RD9qVXynqulTO4Kem7he5llPcZJ1l94EKlOCcQ3899bt+2LNoTIhz5HfhPclJUllF6iMBPK7ltbXSh9VpzLewxMMTxni49z2ddQAACAASURBVB0cwZ27DyTbRGIHJM1VpVHqKZdqPIy+V3PVM3jaMsVMiXprjXj/cUGKxUpNrAbMg2YkOAtRMb2UbshNLc3xPDEIug7gJkT6kMdUxoGWT6ul53JOVJIcL0GERMdLrraKHaLC5Fryfv7OjY7XM16G/xIs2bR4BslEYLSF5k6hcuezeKDgu9UpWlmHyLt8J68hz5PZ600WkFNydtbPVQAElfFCPmVGCumhdAL/TnBA0zhjiLjBq0wO6lfFp4r39NRdg+tP63MiPKFZxd4svhTw8dHDT8XNSLromR2kPenBZ8saie7W06/Vc5VbUfG37srg30hz6hEeSLmerUh/i8rY6eVzmQChnc6spXdC1QMSnjSkjKuMIQa0UoaYEUadoLKRKOdMoRYaa1kGipbcdxgjr8srJK7oxYvH4o5gLBd5WM+u0bNteK/K5FFZR3yGypDSnsnsBnH7qswejlTXCQQIz5//IsCMfPvZ519jZHhM5O3Yz2lBik9ep5vJXAUuhxVrO1nwZ9ZBuMwYBKOi0gkvrKMpO2Eqnmj0DlxaKoxxkRThVEQ1A2+4gdFMLCkedQ0ctNKltDfqyldj1KvIRf81AUJbENvLbfTxS/KWVt9HpTkZ6yK0c8BbmRyS36+EQc/r1Z+nB/K0NjQNaBEB0xJEmtOCQ4Ssp0Tqozpv3IGRiS8MEDSQoCueQ/MC5OTPzYYnVAoqhVKnSycNugmXyp0nT9bEf85gJp4a9JRPnX46n6tnGEGB+otaJy0XXUtd5KmfJxNuprQC+Pwh2dTUuA5nhRjH2kJFhgG3n6/WX7++awyC14YqN8k60xzNkuZ4kC7B67EhlihhM6bqIJwXIBhlXpWT6MhwMSSJK92gZqtM2opOuh4QC4iuPxQh1YZERS0KXnu2MfFcCcQhuss6afd3q45zXl6+CoAgefraRtrJowST3LAZC6RvXsfxs5HnjLyt4kSqcoKlTNB9w/ep69s1FIz6vEUfbT2N71QyoMB0m8aHpcmoZ35tgKDzYyctW/qxtY0oECv/03RqS4602hG6/jjETwaakI6Mv2NaIwM/GXuk+FS0gv4mrVjNYT2h0/E01zjXju5GxqrRZUaLHN2UJ/LwSS4GWg9fvs00q5pyvKo0R50JFHEVylSg7OTiEu0TkoGAncDCEF1sLINi/NnICJ1C0wtTnnTNrwsQDCPRc7l1xagFBB4/PxK8XeSnG9Ooe7tXStTBB0eginSokxjJr6+nvuFdlKa8/1IAwjEDUbn0qgbBWU3HnY80Pqt9ejo/BfTnCS21cV7GcztHdFyQIjOaMoWqNMJh7wBaEagDV3QXwwUBQqdSPo5SRiV9CAR30RltPaIDju6VY7rpGwNmUMra+PxOJXKGZb0SgHDC+4Ve0m3zfGnFHdu2ZjVrA8ozTP1KL71MC8LlDVTpTMWzh5lG3/yNYNjYFbJVfK1jMCftjSfJjF70S7dInApwjwEIrUJJz9+kJUiRpqI3G6yDcLkxCEQzekEemmYkIMblFvO0KhKiCqPoEayKeAqx6opR/44mct2EKiffFrJtL0qr+qKhIlbrpEGzYa2mitRoJueLMslfCyAw2I1mPsZo6KZS+qMZdyCnMw04KcWhihrpFgjdkqIztPq9TXNdURppY3xeC/CJxUKtib4eCmlf/HOVAOHio7v6J1w2kD0VIEiaox2ZfEWKI7FBE83YRUZG28zYiBawdXBxC0IvlNP5i3EijBugf5f6gul45G29op9+utWVL33HdJPR162K/eiVLBVHGk/OYpW49Dry7dn92gChF7r+PVzzPgEE8hNj35hSz3gtZoAp15exWJnR7cKiVSmJXWAcA+ON9KJWojc1Pd22lCmX5Nk+R62UJ95/bJoj+7JIDEKqyXrhRAwb0fyluhi4mDRH//73/4E7d+6LkD97+gvu3X8oOfT0c7F4DSMyKdzcxEhoCjlNMTT/MtiFZu1SsSQBIxL0VcyLz5EbIv0tNUaZW+iDVWlhejAZQQADOBgcxaAn+uZYJY8LOjt7HaFw+Gy073L1rw0QyDwEWoy+ZUbHp599iYP9mEQ037nzoFVAg5HE9JlVKiXZsBkESpM1zVAM/mRaE+lIcMGAFgJEpjeRpvyZgV3i0tFMvHTnkFn14DHGL5TK5Raw2Ituyz3MHad566In8w8dIFyYMU95wHGVFNl+mD0wmLnAToTRg6JKc0xfLM3xLPOh/FJGmYVC0zn96hMT08J/NKMTFDNOia4YBuMxUJZ/pw+WcRiM8q+UK+LHpc5gnAJ/ltS6MqtK1ltFvs4yrrNc2wcIZ6FW79e+LwCBPMq9jbV9atWKFEubmJyRfYo6ljqQPMe6KTTzs3YC3ZEMnOahmTWA5JBXr0lgPis7Mv6FAdRSTKpclsJWqjLjFX5OcDHQxWh6SgtCmWmOZixtMs3x8iopMkCDkbT/9//zf2FickqKtqyvr+Gzz74QUxizGJiGxM2EKWjc5FlQhmfQlRVGg9qkKAjTT+hbIcBglCnzT6UYCgvIRLeRzeVaQUqM2iR42NnalFPt+DiLKMUEgDBnXfJJd7bxyadfSp5zp7/prEvx1wAIpMvPP/8FP/3wLb748jeI7UelDCrnlErGpdgPix4xQph/50mJKW6FPLMg1iQ/nqes5XdvJK2PufHMk2YELKPDCVpZB0GvpMYiNbcW7srvDFBktUrJbtjelMhjBtDt7W1LvYBvvvknSac8MTCmByL3AUIPRLrAJccBBCoF/sf+8ASI2QLTrC5eKOksQ2VBLxb8YjVKZhss3L4vmUzLK+/kEMEaEkybZiwSszYYAc9MEAbpESzwYMEiSeTRQDAoUfQEFywYxIhwZuDcvHVHfMG6T/ks4+vl2j5A6IVKZ7/mvQEIdoeUan78y/fwety4uXAXhUIJi69eiF0qGA4jJ6mSFYlNGh4dk7gt8p8cyKwWKd9OHpU6KutrKFVYPGlceJsZNMwgYYzXedwNPVP29DTHTFM1TTHhxWryUl0MnBhPt//1X/+BRrMmEcXciPTKVa9fvRCkRUTPIkg8lTLAhlaA/dgu9qJRyeXOF7LiTmA52Ww2J+kxjARV9kaV8UBQwFmwLjYtE8pHbpVADUb+UpEwT5QEZ8rTw4ePBLmd3YRzmPR/DYBAl8vr18+l6AjzYHniI5MRTDE9i6lGUgjIZBLmZTEp1m6nNYaFQRg7wLoGrNTHIktM/WIqZBMNSQdkXrjbrUqGmq0WyaP3eohsS4KKafJlZG25WFQFWRhJLhHNVnz2+VdC1792L4aeBeQDvfAIQNAqKTL+IJEtI+JzSNMx1T2zieXtPLZ/JRcDLWS0DDI1jKA1FI5I1VDWLwgyJdpux250WyLBCVpVKmdNZJlpf6wBwJoerLDIPPO96K4q5+tijYCUgOO79x6qEsMnxEFdhDX6AOEi1Dv+3vcFIJBvaAFgyriknjaBdCqNZCouhyy19+3j/v0HooeZ2hgK0IpQRzKZkgnOzc2L5eHnn7+XzCVVYXVYyuJTx9+++0BqROiBz1dC0RNiECTN8enrVDOVr8HpsGB1+3KzGEikRDyGXx7/2PKvECAwBoG+G1ZJ5OmTBORJn+CAVb1KRW7wdeTyRcmXZQEZmltoZlQ1EgqYm7+pUtNqKu2Jube0GPBa6fdgMknZVub30mRDxbK6uiynCPo2ifiGBlkW96w+nr8+QGAsAU//q6vvpNgP3S5EogwlYL0JVtKymCyyUU9NT2Njc102cboPmA9PFwKtKdG9PcmLZ8oRT2ys6c8KXDvb2xgaYqVB1hhng5ID5HJFMdsSiLA4EyP3GX/AOgIsA6sr2vsPPmnVZ78IQ/ctCBeh3un3HhukWK4hV6jB57aJbDAF2uO0Yi95OVkMp49MZdSwJgEtf5J/n0wKYCCf0zrF9K+NzTWxVvEU9sP3f5Q6CdQrBA7sWTE6NorpqRk8ffKL3D82NoVgKCgWNrovaEFgmjQPJRd1h3WbUx8g9LLSZ7/mfQEIBLGMj2GxJRZMouuAltdSKY+p6Vk5dLEyKi28jWYd//mf/4HZ6RnRuyxlzzL3LJnMOj4rK0uIxahzhzEyMim8v7a2jJmZ67hz977w/VXwqFD/tDTHx0xzlHbPFqzt5i41BoHvp2CzwhutApI3Lqf7pjIRlksIBsLiU5egRYtZLADss1CtV2A2WyUegTXG6TNnVToWAanWyqoQkNUuOf3ShU9yRlUeNE8SUknN6ZLCHvQR0WzJaoN8D90VrHnNQhQXDVb8tS0IpCk34729qMRp0FwlfQLqNQE+BF507bC4ByvHsS47q/+x2hljMVhch/EJlVIRW9Loxi/9FiSmoMQmOiNiumWDLL6HAkkLAmCRd3BtWFRGdWGrC8CjxcbUNGEvFsXM7JyUTWU8yEU+fYBwEeqdfm83gBDwWVGvMU+dOdgqzTGWKklGQyxZvlCp5dNH1L6CBwVu5CxDy6JKLO5D+SUfu5ztXhNz8zdEP7BIFQPEWNODFQfpguNBgbzN61lYjZYyWsf4M0EF3Yu0qp2njHIvc+kDhF6odPZr3heAoINY9kcgj9IqxUMo+wFxT5GiX7mcuNDpLni3tIhQMKTF1KXA6jQ8yLGpFov7sbAag24Zm8e/06LLQzNd5pfdP+gQ1U91MbxlN0fVJpKVFKXU8iXWQTDmi3LD0U3PNLXwOyqDzjgA1Y5XFfmg+YadBFke2GSySVCeHgRHF4IKmTcmO8sWKgEfqtjE4TbP9Dly8+LmZtV6B5ydTQ3K7Fdq99w5Rh1Rcn6cpyqE05BNnoxGS007a0Gl4ZAmag1qYDGUWGxHagGMT8xIMZ5GjXyAwzQjfbViIGQTVmTTLTY6WNEDbRkQyfXUW55elK4Xafd8kXd/CPce282xRAtCFQEP2/6yi6DWzXFH6+Z4CWmOp9FX0k/rdQmCJQBgFT6212bVVbrTWKFSWjlL4R1IN0geLnRrIA8irMzID2MSaAomz0sBMDlQmIVH9dofp43nPN/3AcJ5qHb6Pe8LQNBHKkWktOJa0peCxbekqysLSqkCTEfcWFrGAnmbOo7Wbz6HvKlbtLijsX/KlX9ODFKsq14MpWodVrMJixtpafUqAMF7ed0cu07SkA7XGQegV+DifaxQxzgGpoOwtC+jPBXBdWDQnYStNDFVkeXQQl1mCtlfw4Kgz7hbDm0rXbSjUJKep0sBYyUzuhrYkZEAgy4Dol9jeqRQV6OxkZbyzhbt9QI/bfpynS7otZGH9S0IV6sauscg2MFSy8l0BeGAAw6bCcVyTYCC9GK4hEJJZ5mVMT25fR/5TxW1OrnAjUq3pdtRPUev76HSwK7MZKsNtA8QzrLSvV/7vgGE9l5lrIXQTjNv6WqtGNrhmh4K1B5KvzUUTrtofFxPVD2hmyPLH5gev0o3GZTkdlqxvssYhMu1IPQ0yBMu0sGARl+58lchXI8D/2sChG5DlM28W5U6I5LVlKtegVKVQFWf02h7UlDXZQZ89QFCjwx4zsuOi0GoVOvS5tVps4IF1FhB0e+xYT/167kYDitVKlBV5+QswL4TQOi8fZZnnJO06jCiyVs6V8H3i3FMDnlwZ8aPVLaC717FMRxy4P61oFYL5iJv+rDufd8Awt889U+yINQYpLiYbuZLNWnvurSldXO8RBfDZRLQiLQu87kXedb7BhDOMhdRokpznuW2X+XaPkC4WjIfBxCYBlytNaQOQq3RQDpXg8thwc5+4cK9GK52Ru/X0/sA4WrWow8QLpmuJ5ZabsL06l22KY09mOa4nEI6370Xg1bJ8/DoLqNkXuvoqsHu4+Z/chXV46l23vtOWAc5z6hCjhIQyFPXs2UVv/HNvUFJD9PLD6/s5rC8U8D9OT9Gwi4tbUyV3KaSfv+25ktmwB4e16KnAatcBkCQfiYXzlPpYQJ/A5dooSQtLHhsmmO+goOM1s3RoTVTkjRHxiCUDvVikJOyXl32b4AGVzlEPRRKapJSL5zDgiBrcpk69SonfJXP1ujHDNtO/XhWgCB6lmvSp+uh9iStM+GJaY51ZUHI5KtwOCxY2To+zZH+CAYvsdLah/7hxsNTlc9lkzK0NMmeBSBw82OVOvp3q/XOAMsPj7oUYJfTIsBK/1wEIOhGkUK5Jmujt0T58CgrlJBpO6xmcSNaLcw+UeCUn852z7liFdQH7ODINUiK+9GC3Xg7zZFZDXwqn1Ms1cAYJmnKKE/8MDUxbXGkLbtgWiwq/oEWutNcDLpLkLEShbJy76jPh0lHcSUB0gfE7bBIAT/jjnMWgMDn1OtN5Ms1VBiA/cHSVPV1IT0cNgs8LotkUeihZGaLSfjuh9cJ0Quf3AjB47JCa/ecaiYyFfnDekeaoyQ3AEhkK3i3lUW2VJO8eCqO99AqfeX6X+8uJyl8jSamRzyYHfai3mzg6bveLAjM0GAxmtUdVdaai/MB860ILYXYaTVhbsyLoZAqLXo+gKDKQbO4z1asIGl5xLNaMPGV88f7+gLKMSuXjoacmBn1SM0TtYU1DwGEoI9R2KRfA1azGeVqA3vJomQ0HKTK2NCCFINeu/ouXsLaXh5Vaej04fKxWGdI42YTEb8ds6NeeF02ofBpAIEtrUnLLbpwYgXU2SfmA6alQFqNlsMhJ66NeWBna2tNuHoFCOThUrmOjb08dpMl1Y3xQ8VcGu2491hNZoxFnJgYcsNuUxZCAtpuAKFabcL0gt0ca2yXbMartbRyMdxU7Z4JAsi8/HuuXMXtGR/Cfsf7qgd/lXGRx4hGl7dyiCYquDvjR8hnx9N3adnwT3IxjEZcyBdreLqclFzza+Me+L3qNPbhfthitoGlrSyqlSZuzwaEx6TXfb0hbq+9dAVfLITh99pbLhrSy2Y14d12Dr+8TeKzm2EBbNz0WPHvzUYGgyE7pkfdFy6n/be+NuTZaLyE9b0ihvwO3Jpm1VLVDM1oQQj6bCiUamBMks/FNC21NgSxa7t5bO2rZk0ECDsHRbxYS2MgYMPMqFtiFq6y+dH7vAY6QEhmK3i9nsXEgBs3J/xiXaQF5vvFRNcgxQfzIeHNrVgeb7eyGArZMTXsVoeGD/hDvtxPVrC6W8DUoAezox7ZxPTW0fFMCU+WUhgdcGJhKiBGsherKQmwvz8fQtjL+jgNrO5ksRErYHrUheGw84M+iJGjuOfsHJSwES1hYdonPEna0U3eHSA0CBDSTZq7mbP5er3dzdHnscopI54pC/FvTHnx2Z0InDaV2/khf7ih7x4U8bsf9xDyOuTk+3w5LZaW0wDCbqKIHxYT+PJOCA+uh8S0fikdWmVBjO6K87ouzntfrxxx+PlKuSof9/96vI+JiBsLMwHU6mzMczaAMDPqlU3qL6/iqNbr+NfPhjE26DoGgJ00T/2789LCCPm6KftennuW4Jluz1N/093atFr98ck+lreK+O2DAamUSEsLwX8sVcFDrdRyOl9FIl3GQMAOu92KcqUOqxVY21HdHL+4E5HGbovraWzHi/i3L4YxOewRJXP0c9E5dPJ0rzx21vuOp99Z3pgvVPG7n2JIpKv45HpIwD9peRxA+Gg+JGtA/Vqu1fHPnwxhKMwCZbpjqBc+6Rzhee7R6cV/ewEnZ1nXs1CwHTPEg9T//CGKWLKKr8hzTqvohF4sCAM+u1hpny8n4fVY8c2DAUnbPXwQu6o5GJ/by1r0ck03Gh53X7d5tWceS5Tx73/Zg8dhwf25gOz7BKmHAMLNkNBbujk+1ro5elw2bOxlkdTqIPjcVrkxlizh7UYGn90O4fa1gDJ/9T/ip/2P76OgN2d+3CcnMbpqTgtSpBnxxXoa//ZoCNen2MmyT0xSgOl0//6XKPwuO+5fCwnaPStAmB1jF8km/uvJHoJ+G/6PRyOipPsfyEb03fMD/PAyjW/uDSDk6wAI8yHQgkBAQGXhclrFekBAG/TSxaC6ORIgULm8XEuhWKnh//x6HJEAi3L1Pzy1/unpAd5tFfDwWkAsiyxVfRJAoDXy+UoKPJD9y2fDEu/R/6j6Ff/54x5ereXxm7sRqeZ5FoAQz1bwajWF2XGXHGzdDmufrACyhSr+xw/7qJTreHAtqLmzulsQVDfHxXQzW6zCYbNieSvTKrVsBAhvNrP4bCGAO3NBMfVc5MOeAMVSCQ67XRosdVZRND5bmq8UVOMKp5PV09jSuY5isSSV1ViB6qT7LzLOk+6lqYsnrf/8IQqLyYxrYz4xt7JkdTeA8G6ngI/m/BgOu0TJvtrM4F8/G8SNSf8H7x/X6SwA4fs9BFx23JsLXggg/PeTPQT8NvzboxEELgkgMNOHvMfSvH8NnrsoLzNO4C/P4/hpMYOv70QQ8trE392yIGgAge5GKmIWR2LZZbrNJEjxQAUpfnEnLMFjvK9QqSqA4Kcc9jZC1t5gtTlWNbxoJUPqB7Yr5+d9WBdu9t8+OcDKTgEP5jSAkCrj+zfdXQy0IFAJP19TAIEWBMaC9T8quPB3P+1hcSOPrwkQXGcHCK9XU5gZc+Gzu32AoPMUD7b/88d9VCsN3J8NqP2804JwIwS3y4oa6yC8XMo0qRBoWXq5SheDSnO8bIBAYWYZ4Ddv3iIai0mfhKnJCQwODoiiYJlKBuxQ4AkAkqmklFSlMnE47AgGAtKqmd+zq5vH44HX62kpbSmjWq22+sXzfZVqVYVi0ae1H4fL7UQkEpYujxf56ACBJjAGfZwZIGxoAIEWhL7HRpZiTywIewi6LwgQmk389+PLAwjknWQqheXlFZTLFXg8bkxNTcLnVdYKq1Wd+MiX+ial2mSbpYb6oQ/LXTfqrQh36ZapXcf7CTx4j77pXcYmqr+/F4BAqwJPGCzmE/LbJYiJuoGb/yrTHOlioLK1W/B6LY38GQACAVY6k8XK8oqUPh4dHcH4+Fir9LoOuvTeCKz2ya6j+qGgXKmI3LPjXcDvl0BKrslebB+hYBDX5mYEdHBNeHjg87gO+iebzUr1xFAoZAiwVlXseJ9+Pa+pVmvg9aFQUEo19woICRD+9OQAq32AcBH1KvdeFCDQ3UsLwvSYC5/TguC8mM6/8ITekwf0ChDoRizpFoRcsSYBNcqCUJUgRYlB0FwMYkG4FcAdmiTOaUGgICYSCfz5u++l6Q8FmcJORcFe7z6fTwQ/tn+ATCaDlZVVjIyOCIigpYHKdGtzC5GBsJQHttvs0to1kUgiHA7LdXuxPQEC01OT8o7oXkyUMdsTv371GpFwGF999Ug6H17k0wcIF6Fe93vfV4BAvnu3soLHj58K/xAsTIyPy+ZBwMsNR1q9plMYGRmWzWdjYxNenxeRcEjcJNyAuOHx9JxIJuV3boTpTAbhUFD4e28vJv/6/T7ECKBdbkxOjJ9pgzppVXoFCExzTOeqCPjssJhMSOUrcNlpQShKoSS6GGhBOCtA4Ga9tLSMnx8/FpmfnZmG3W7D7u6eNBuz2e0CBoaHhgQgkR6BYECA2P7BPlLpDFZX14UmHz/8SGj3w48/IeD3YWJiHAORiNxTKBTl+ezNsLsbFZJwk9/c3JKOpvfu3kahUILdoVxPmUwWQ0ODcLs9iO5GpV8JwcjS0go+fngf16/Py3r18ukDhF6o1Ns1lwUQxILQBwgtovcOEGySvmz65WWquZ8uweu2YTOaa8cgXAFAiMfj+MMfv0UmnYXT5cTw8KAoxDdvlhCPJ0TQ87k8hoeHsPTuHcbGxhAJhZBMpaUrJAHE2PiY9N1mp6yDeEIUrdvlwuzstDRzefl6Ubq4UWs7HA6xRvCUl0ikMDM9ha++JEDw9calx1zVBwgXIl/Xm99XgMCN/e3SO/z5z9/B5/GiVC5J5zb+y43MZrHJZsRT6+TkBGKxfeFlWhoIYtlhcHAwglwuh1yugL29PUxMjstpmIBg/to1OQmz9bbP74fdapP2xLdu3sC9e3fEUtbrCfaiAIHuGJ7MJfXJbJYYAwIDZi0wvoYR4ecFCARa2zu7+PbP34lcXp+fk9P/xvqmuBxpwgyFArK5RyIRvHj5ErVqDUF/AJlsRjqQrq9vCr2++OIzvHjxCvsHB/jmqy8RCPixtLyC16/fiNuR7cwp/zw8EBzQKpNJZ+S9I8PD2I1Gcef2LSHXy1eL8i8PHpVKFcNDg8hmc3jx8jX+5Z9+izt3FvoA4fLF/dQn9gHCqSQ61wW9AgS6ulijR7IYWBCBlgFGJks3xyuyIBzE4/jjH79FLp/H3Tu3ZcPf2d0VBbyzs4vZ2Rk5Cdy8cR1Pnj6TEwTjsNfW10VJfvrJx/B6PHi3vIxkIiUngqFhdeLgCYXXRKN78i+tE3fvLohFge/l6WRudhZ37yyIYr7I56oBQmcTGo612yYhOf/1uijAzu+Nz+D972OZauMavM8A4d27Zfzhj3+StEuXy4nBgQE5rQaDAdVp0GoVqxdpTN6mhYFtx2OxAzgddgwNDiJXyKNcKksHQp6Cl1dWcX3+mlz7//5//y4WhunpKdhtVhwcxIVHP/nkoWxoF/XVk869WhBYEK1QqsPjVLUSShW6TkxYjxYkzfG8LgbSJl8oimVw8c0b5LJZsfw5HU6xBNJ9Q/dfPp9HIBiUTZybOuk9OjKMsdExkfvx8XEs3LqBp8+eY3t7RwA/u7v+8NNPKBRLmJ6cxMuXr2QtaNHx+3zY3tkRVyVpyWZifMfCzZuI7e9jaekd9g8SCIYCmJ2exu2FW9jfP8Cbt0vy7NHRUQ1wnK4xrtKCoGS9IfPigadX0ChVcqW2gopW5+/GfivUZQRUpz1PnvP/s/ee321cydpvgUgECJIAwZxEkVTOtiU5zpzxxHPmnHXf//LeDze8d71r3TPB4zBjW5KVRYmkJOacQOQMEHf9qtEkRDEAJBRssmd5JJGNRvfuvXc9VfXUUxtGkyyT+b7fiJj7E3MeXZNKjvcBIBiaKmgMo6VS88rYmWNgjqeZTtRuxaQKi+PNNczGYBWPW01N+QeMAAAAIABJREFUVdZ+6bhXAhCUpIgOgplnHJ4qtnt+QwABzwjE7vU2yJnTp9Wrf/jokSwtLekkZrNs8vmkr++EPHj4SMOFrS3NavzD0agCgZ6uLils5CUcjsrE1LRY7Vbp7enRl0AP7VQ6o3wFt8stg4N9sh6kt3ZYkqmMWG0W+fTmTWlobNh3Qew1md8kQOA52MAAP0RC+NNqsypnwzzMhY5R4vnwevA0TRDANULhsLa1xZMlFI53hKdlTuTSpjXbG9js9O+9AIf5vbudY+Z12SPMfO/28X2fAcLkxKSMTUxKZ0eHzM/P6/tYDwQ1+oVRZ36Ojr7QkDlcmlQqLa5ap6YPFhaXlGjLnOMd1da6pK+3R54MPVWvub+/T40mEYbBwUFpqPcIgGQ9FJRPPv5Y+k/2vc5lqGSnLZ67L0A4ZdSPk1JYC6el1esUp8MqWS2BtshkUQfhMBEEwDvOwPLyqqTTKensaNN0HxEExrCxsVEjKclkUsGU3e5QgNDV2SGdXR0yPDxqOAoffaCA4sdbtzVS0NZGaqegTgYtcgE2ACwcDHhKRG00SlEQ5TPhPJAuAgTgPFAEhmPCNQAjHo9H3+eZ04Ny5swZfa/lHG8KIHBfRExJmfAuujo7Nwne+63j1bWAhMMR6Whv1ecmzcv8zG8YHA/WJuPOujQ5L9vBAkaPqBh7itNBRKxFIzM7OS4GcTQvGxt55XKQUmtq8ul3m+qSpsPCubuB33cNEBgX0k+kvAHt7J2s0Ug0plFrotyAHsAkzwsYZdyYawCi9jZjvEOhsATW1/V3Lc3+YvTaECnbaZxN/hHvic8T7ea8rfeMs2cAtf1A3U5ztlyAAAdhs5sjWgeGkuJWN8fXSIqH5CBws5CTGGTCgCxCSITLS8s6+dk83W6XEggxaoCHUChkeGkuvIyULhA2XV7W3NyC3HvwQF/UtatX1BMhhcGkJFRptRqpB3psUzKXSac1b9nT3a3XP8jgmgP+JgECxnzo6bCMjo7K559/quFmxorcbDye2BwnwMHo8xcapr3+kRFZYXKx2AkR/3j7tm66ly6c17QLG+5nn36sQAEPhMnH+4gnEvp3xgpiFiS6xoZGzZezsWxIQUFbuggyGDtQdSKe2PQkMJhM5GQiqaF3wBm7QTyW0DIawN/0zIyGeM/usuG+rwBBN+doVGKxuM5FxoQNE284lUqqF7yRZyMMSXNzs1hrrDK/uKCGCTBLhCywHpQWv1/D5DU1Vo2cBQJrypHh88zvtVWiBk59v6Qp7A678mp494eZq+ac3RcgFKsYiBik0htaFrbVzdFW7OZ4cA4CGy7jODk1Y0T+Wpp1vVOhhLEyeAhOBbOcl0qm9NldbpfUOp06nkRWorG4RmD4LBEE0hb19R7p7OzQqI6ZomSuoYmB0WOeM++5rqu2Vq/LWBOliEXjUt9YL/WeellbW1UOSUd7uxo2Kq0gUr5LDoJGpWJxeTI0pGud/Y81ZLPbdB7q/BCL7qucC2jlTwihdW63TE5OydPhEbl88bz09PaooY9GohIMrmv0i3UL6CAd09raumnYeA9wvXh2rn333j1N6RItA9SeOHFC9wDmK6CLcWNf4d3yTti7m5v9umdxXSWRZ9Ia7eHv0Wik6Mw1bBrBUoP2rgECThqAFEDLnufz+tSoT05N6zq+du2KAtLAWkBTYt3d3TI7M6NzqrunW86cOSW+Rq/cf/hIpqdnxOF0SHtrq5w7e0YBmt1hU6cPcApQY+9mfnPN5mK6q6GxUercLgXDAF72CfYd0u2MO/u0SZIuB8ByTiUAAZFEy6PRcAFSEkSkiYWIwUE4t0MVQxUAgokcS5Enk5zNo9SzNT1kDZ8XwywYGYMdbtWQGBMaMhdhSRAtSJRBLmWWl26s/DyfN5jmhw3ZvkmAgLd55+49+fabf8rNmzf0Xp1Ou4IqPDAmI0iUvxNyxcs6e/a0krhisah8cO2agol/fP2NLK+sKCnrzk/3FFR98flnShTDm2KTBd3Ozc/r5nr29Gn1dmdm5zQ/C1HrxYuXuvAJu2Lo2DTwsLhHEC4Tl/fha/JqbnhhflEneVv7FtGM++a7p6am1cD+6Y9/0AX3c4kgcJ9mGNEMMxo/M9M7RhkKoInNkzmHQWI+66aYy0m+pMIB5MSGbERVjGoH5qTpOfB5M21UzdK9cgECYWwtc7RaVDHUkGG3ylLAaPd80BSDOY6MDQZse4lyaRTKKCk19gRDwtmi3trmXlGseOLfGH7O4XqMoUEKNd7D5jVVvpdQL4qxRqUIf5rns8lu7R983qHnclTyDt5EBIFnhKMCJ+L06UHp7GhX54e1OTUzo2sdb54oF+PQ339SuSxwNEibZNIZGR4eUTLtiRM9GrUy0j0JBRAAJdbz85djei1AKZGyuYUF6enqVp4YzsjX33xrVIhAJi1GJnG4iNaakUnInkuLywpKIPOyj7AuqEZbXF5WsEB6rrW1WaNmi0vLcvPGdXXw9D2XHO8aIABwfrp7X/c9HB4AKilw9jFAptfnk+cvXmiED94MY3r//kMFYDdu3lC+G/Pw22//qREErxdSc1IjVeyR7IEaHaipkU4FpCGZmZ2VpcVFJcYy7xwOp+6zAERnrVO/C1DMHj042C+fffKJvr9KjnIBAgEDHGvLs7FIgZcBktmzzLFKAMEECbt5ReXmylk45kZaWk5Wml+rhue10+C/SYDAwn3yZEhTMXhO5EzxZJxOGO4e9S7hX+DZsLEFw+S+N9QocZw/d045HKRuWIRsdqDhltYWOXPmtExNTsnY+KSG/fC8iLgAnIis4Ik8fPxEyXZ4xQCIOg8kuRpZC6xJk9enRo8NBZQbDIZ1w6l1OXRjDqyt62bFhoGHABOfRcKGT7oIIulHH36oHsfPCSBUsgDf13P3BQhFJUUqmuAh0ZeBxi7sDUSDkBZHwvowAOFtjU25e0i17+dNAATW5+jocxmfnFQOFulE1tKz4RF5+vSZpDNprdoCrBN9ZR/v7u5UIw1B21nrULInvA6igBC+SV0SMcToEB3wNjao0Wpvb1fgkFXQVSPXr3+oBh1C7d///pXMzS9oOoc1zveS6iB9Cxigqmegv18mp6bUkQBE9PR2633g/QKGierA++CaRNUALx/fvC6XL1987VW8e4AQVl7L3bv3xVNfL598fEOf79nwsI4d40y10tkzp4Q0Dntns79J3xPR2kuXLsrJvj755tvvZOjZ8CaQymYyCi6IrM7NL2rK5vz58xp5IMJFNAGQR6TC6HdU0GooUpzNTU36vpLpjJw/e1pTkG88gvB4NFJIprJit1vlxUxYQvHszjoIVQIIIP5Mhry6TQ1gqRFnMYCymFDlhvVKZxbhLQwlBu1NCim9SYDABCAkCBLFayKNQITE523UhU2aBfY2CJXcKAsbLxUjTGj0wvlz6qnD4SCfCyObKAu/J2SINwCRzuV0atUIoaqlJcrDEvpOiDqc6O6WVDqtOUfY9HyGzQGSJyFOrkvunSgOs5hmVYR3+TfgArCxuLio94sEL5sI3gO/++DaFd0o3meAwLokxcJRGjV4Tdeg2hbmDV6vHIDQ5LFLOJHVqIG/wSl2q0Uoe3Q6amRuJSWzqwevYjjIo+Hhqz5ETY3BLSiD6IbTYGpSvO339SYAAs9DieaDR481ekdum/QB5EqihuylrDcOoigYc5wC9g9C0vR1wFgTQSByuLa6piW4cGEIc7PuuW4wGFIPlc/964db8sVnn8qN6x8pmOd3kMtJBdcXUxjss6TQ0KshHUNUA8OPU0H6hwgMEYWJiSlN3+CM8B+8D/YcopVEK4gekCZ+PR9/OKEkUwfhoGWOPMeDhw+VTMxYQXjv7emVoSdDmiZBv4c91lNfp2Ra9tcrVy6po3Tv/gONwvzqi8/lX9//oJEByLLsJdio5pZmBRSkE3AA29ratUwae8g5XV0dOm4cpDbQXSGdjk1kvyctef3Da7oHVxoNLzeCQLOxZDYnlofPwgU4CG63TWYXY7K+m1DSIQECqD4SjcqL5y/VCBFiOXf2rCJPDByGhlAKE4gJw6RngrPYlfTlqtWwC4YGjwYUx0uBx0AaQkNxk1OyHghIS3OLli0R/jKqG2r085xLKSQDDQqudHDNTe5NAgQmEGgSohYLi8kFgs3n8ppS4ZkaGhplfT0g4UhYmnxNSoALrAe05I4oAV7/9PS0su4psyN8F4nEdDNhMTOOTFgMOGNB3hZgFosndKwBI6DjUCSsoTGiFZlUWpy1tUrGwRMh18m7YCwsNQibbGhEgWgEQCWbzeh3s6dz72xm/O7SxYsartu+IbxPHATSK4QS2TypNFhYWDCaa/Wf1CnAfAKcmcYIUhJzkLnGPNf8d6GgmwHPycZtssAZb4PIhQKgEe7l/RgCQaTRMpvhd0PoyyAjwa/hO3n3lXoN3PO+AEE5CEY3RxTUaOZEDnIJqeU6u6yGkVreUlKsVAehUoDA/B+fmJC5uXkNxZLCIqfNuGH4GS8zWmjm6RPJpKYfAcUaIfN4DNVGm7EGMGq8B97BTpU/ld7j9vPfBEDgO1iT4+PjGu4mKsc4LC+tqBdPbhsyHaHnwYF+DXcz7xYWltSjJUpAuBzHrKUVwwToNQS8DIa+RZqavArwKcslv33vwUP587//ST1Z9kjWAXl002kDaLCXYKy8Xp9yvuDTsB80eb3S5PcpuY89musDMuDUsC4W5he0sgyxPJw4HJArly9tkh7NMX3XEQSiNPPzc5LJ5nTuMF9w1CC1AlY72juUTMz+zPpkX8T757nYEwcHTirpfmJySucspOVwOKa2a2XVEAok3UAJL9GUOpdb2ttbN8EWwI73QRUUZdWsA6Iv8DuY+xB3iShhPys5ygUIpBi0imHoeUSbNbGwjDLHXZQUDwkQmKCUNxFyYmACwaAaKR4QrxmPzeOp1/pnNlw2hJ6eLgkFwyqAxMRnwMfHJzXEduJEt/4JgoWgF40mNCdESAYSj9fnVSML+uXl4C3zIjC+fO+F8+d3NFTlDPabBAim8TB5GWxweAAQuViokDFZcMlUUhc9i5AJQ1iPUjk2Rf5tGhczt2cyi4kMMNmZfNTvs4BJUSjYyqA8V5BkMi1Png4pUx+jRNoCb4BrschV/Q9QZnaZ0k6/KNdBBjMMXGnuFo+cPDxhUMDBTtGh9wkgkJL5xzffKceDjZJ0DR7Sr3/1hawsr+giJ19LhCW4HlS2PLwQNkWMU2cnOUkxKh4Q/2lr03Av5XyU2rHhB9bXFCCwWbNRcj3eL/lKDADfR3UPIIv5fe/eA43e3LhxXVM4lR7lAoR0ZkMS6Zwqz2FM+LvDWiPTy4crc6z0ftmIb9+5q5VJrAmMFXsAcxKvjTHCULHRQo6dmp6R2bl5rTwgd0tajrnImOPZ4iCQ845FY+qRoafChl7N400BBJ6fZ2FuAbgRfoN0DS+Ldffi5UvdQy9euKBzg7XO3sdaBUzyWaKzjAFrn+vxH2uevZZxYG0SKRwbG5NMLicfX79eTC++ypcxP8dncSjIx5MHZ34TPodUau5HzG/2j03GvcWi4096hEgopcCA7iuXL2vUofR41wCB5yxV4jQisEa6lOdhD2PMAFS8B08dyqp5dXL5nbnPcQ7vzOAWbej+CtGQMed9sL/ru9I0slPBHedt6XlQhmq8Q5xn0sbs7VThQE5XobYKjooBwvDLcKFQgGkuMjQZMqSW30CZI+GpO3fuqnGBmALJhomCYQMVR2MRY9MNhXXg+Lm7rk4nNvkajNmFC+cVKY+PTUhfX68iVjZzXg4TXYHGxoZqI7DpDj8bVu/bbrVJk79JN19eIIvoT3/4vXoZ5YQtt4//mwQIe73r/fp+lZN73e8a6lnk8xrlwUOAJQ1aZcIa3vPe9czl3MNOz/i+AYSvv/2nPHz4SFX7pmdm1cgQ1rt7/6GsrQdk4ORJNTgsbkJ+p08N6PyCHEYqhQgVXhfAF8Ev8ovxuAFsyQOvB9fVsyCESI4Y8hmpHy0L8/mUpU7qp7bWoYB69MULLef9w+9+q/O20mNfgKBljnYJxdPa3ZEyR3etXSN7/G9sNmboIFw6mNRypfeLhgTiVNF4TPudwOhmT4AJby2KT+E5MyYYG8Ye8HD16iU1kITaUWkk6kVEDAPEecurq/LFZ58oARhSaTWPNwUQzHs0Iyavkq83NPTPqjRL4jhfI3slS7WcdclcplKBUltND1a41sv5Dvbn9cC6LK0sK2cCnQmike9biqGSeVH63OWMwWvvpswemlRQkbpl38DpIHVcaRS8XICgKYZMjiqGUCEUyYrLaZWJxaghlLRTL4ZDRhCYfA8fPVGP6+zZMzI7P294Y1KQvpN9GsYlIoBxOtHbq94TXgQICQNFaAXNdTxgSiPxIMipezzU+VM+U2eEvQLr6lUDEAjvfHD1qorUqHcWCInL5ZS+3l6tpd4pF17OxHhXAKGce6vWOcokx8OoQBjlMN/9PgEEDPXt23c0zcAuS6oGz59Uy8vxcWUWm+kZcsKcr8bGYpGpyWn1mighI3XDPOXzgAmAKczyUDCkn8eDIh2G4cKg4TmQLqLslGgMkS7TeyRagTzxhx9+oPO70mNfgFAsc0ymc0KrXTYISlzXQin9++p6WmbeIgcBns13//yXPH8+puFbnAfCseR2daxylJrGNRIA9wUAALkOIixRRhwBym9JVUIiIy2G9gLvBc8Lwlm1jzcNEHa7352Aw0GebTOqUBT5Ocg1yvmMmW7j3N1SPe86glDOc7ztc3g/2EdT3KpScMD9lgsQSDGQWbA8BCBEjTLHqTeog8CkII+CQEwyRZi7RkvtDC/Kq8geEMGmSt7H6bBp/SwRhUQirmG15ia/luMQtoXIQfiVmnLCL/RpIHTDRkHagolHXowSQEKQbLAvxyYUFJwe7JfLly4Wa4Ar75Z0FADC25787xNAgMn9+MlT7RGCwmgOsSBrjZZ+zszOS32dW7kZyIXD/CbHu7qyqiDU1KIAyGK4IH5Bup2dm9O5CrGIVAQlZqSNmKvLi8vKHlf2d41NTvT16N+Vy7CxoX/nOwAO165d1fBipUe5AAH+AakjyhzhIKwhw74JEN4eB4GIwNDTZ5uly4Au1Bd5B3AKSDdQsssY4hxQqkt0EX0FwrrG+HFepypaojuBwwHQIKRNmgEnoprHuwII1XyG9+Va1QIIx82aXn2j5QKErW6OYxH2IA0jPh0PSzj+aophOZiSl8V2z+cP2e6ZnA7KUyxUFf9paVEhI9ID5K/YmED6kBnJu8IUBSBAlgNE4FERNiTyhQcGgjJVztAFILTIz83aUPI55ILIrSPXfP/BIw2Vk8P/+OYNZdGSV6r0IEwfiWWFbo41UiODXZW1ex6Zjcjvjts9vzLsZrvnBpdDLh+63fOKNDbYDtzuGSNvlHAWNN2FwVHBrWxOQ9kYfLgegAaYx7RIhvzKvCWqyzx/8XLcINim06oM2tHRJoV8QXUsMGp2m1VzlxCeKIsqoJ9QFPMiZaGs/RqDxMh/GDyu1dbSeiAOAiRL2j3ffV5s91y3rd1zscxRuzlS5uhxSK2jRlnW1HSNz8eNbo7FZk0Hbfdc7lpj7ULCJUpIZKBgKUg2nVWyJlwleB5U1sSjMfE2+XRMINoRyWHvoJU10S9EbUiVIXqzumoIIcFtomytWiJU5jNpu+fHazI5n5DLFbZ7bqizyW8+apW6466DOpzYgq/vLcvIdFzbkze4K2z3HMloQ7G+rlqjWZOz8n2+3Ln6czovWmz3nNmn3TNKivCRlKRIWBGP/sVsRFu9IpTkcdsECttKKCWjMxH58EyjXDqFZ165x106gIRblRwDr6Ck1/EWI9mUkjR0qA2RGs6v2Qz3sgtvansjOVnMm5siNMb3bclZwg6HzDj+cky7PAIi+k6ckDoPQhWVaYTrpeneF8vIX24vicNqlVMAhMmwUFrz+aUWqXUYRCCAzMRiTMYWEnK1v0Ham1xaKvZkMix/vNkqZ07UV6xR/nOajJXc63IgJf/f7SVt93xlwKtiPYTcn46HZDmckY/PNUmDx7FFjBQRu80iY/MxefAiKNfPNMnJDo8a3W8frkhjvU3+9EmbNHpe11zY775Mo6yzqCi4o68dYlfR8GzPmZZ+Bl4Mzca0p4LTKQMD/Rpp4DCJoTvdg4YQN/JSYykKBJWcBCgFyRvrpnJyHQDh1tCa/DQckS8uN4tPGzMVBEMP5+BaESBESssc7RZJJKkCoMwx8Uo3R1rpJmj3/HmXNDdWJtay3/gXl5g+ry4ioyDcMBy5vFisRZJssTeBjqmmgvK6Nvm3efBzwAb6H6h5sm/0nOiV/v5+Q/a7nJsp8xxY398/XpPxubhcG/Bqy+xAKC13nq9LT2udXOhr0P311nBA2nxOuTrok2xuQ55MhKTObZXf3mgTzzFA0NFmz/7qp2UZnorpfK0UIFCq+3QqJH0dLrl5sVnctZWvmTJf+8/qNADCX39alky6IFcHvcrvY42lMnn5aYTSepEPT/s0asjPLA+Gw4VAOC0ghmm6OZZWMYhFcxZPJ0PibbTJB2ea9EWZC/hnNTKyoV4eXh2iQyiCGUdlW4SCkY2CjtX9kZD0ttZJV4tLnoyHJbgHQLjS3yAdfpesBNPy00hALp9ukCunvMoWN8HRz2s8q3e32IGx2aj89Gxdets8crrbIxB+KwUIfR1GP4r7L0IST2Xl1x80S2dL5fn6vZ7MnC1bJmvrbAOSGgwxCLR4wHXuOq3/Jkq2+fs9vqCccyodeWwsacQfn6zJUiAjn11oVml1wM4mQICD4LFLJpfX8ia0D/hzKZiSxjq7BEJb3RzrXTZ1JqZX4vKbD1ultx0J6crWUaXPsGnwzTHe5QI7jR8/g6cEdwEHB8IjkccS3HHQ29kCIiISjefk6/srkkxtyLVBr9S77bIe3hsgQA6nB040lZPPrvilo5nSwOMDQ/bN/RWJxTfkxrkmcTltuu8yzwKRlDx6GZKO5lo519uoiw4bFYxl5fKgT/z1DtXveDYREqvdIp9eaha/t3JH4Zf0FnRdFERI5X51d1UdhAt9XjH87tcBgpY55jbE8oQIQgoJYiIIW90cGzw2IbrIS5laisvEYlz8jXapryuvccn7NrhskujkKzot6bBV6X1qCDm3odKzLmeNXDrpFae9Rh6PGRN0pwjC+AIhRwCCW4jWsCnTFKfN79TxtGgYeRtWMf+9/U8Tne20i5hWy9wlS8/Z7frmAOz1fZUO0l7n71BGkckWZH41KU6rVc73NUhDnUMNLdGmSiIIGCo+uBJK6xjXOmuks6VWvUZDK7RoXbZb+dJ/72ahdxrT0ud85bmK3dwwmmgeqFKp0RXOvI1XsGnpeyt9Hzvh153KUPb6WfHaq6G0BCNZ6W2pk/4uj9hIX6CeakYQTICAWFl2oxgFE4kl4ANZVAOBKoab5/3iq3fIciApT6fC4nBYpMOPRskOE3Kn59o+3w76vObYlD779r9vjp8hFmRELI3yPv7btMQ7XaOccS45p7BhkXA8K/MrSRno9Eh/h0cjL8FoWu6M7hxBuDzgU47LUiApw9MR3U/am2ul2K361VVUOi/3QhC7lSnt9S5K52U56GS3a+20x2xHdvvsSezTgCYiAIDSU5310t3i1qiQRu/KAQgeh+qWzCzHZWwhKk2NDvE3Ol6p6thch5WMZTklYNv34NLn32nv3mnObv/MTvtpue+5eD8qLZ7fkNVQRsLRrJzva1SHFbvDmG6PIKjUcq4gluGX0QJsdVYLKEx1EM74BYBQ7Fwp2eyGwEUghG5E/RBvqabV+PlcS0v/CxviqrVKR5PL8LqyG/J43OiEuRdAIMXAJE+mN2R+JS5r0bTO0yM6lFsvvWBRvf+eVrd4i+AAo84mXilAYMIzRyHXATroSFaSyXrLE+1NxAMqfISC4TlgiDqaaqXd71aFRHP9bgIEs8wxkZG1UFpaGp3qtRHq5RifN8ocb15oksY6NuCChstnV+OSTNPitsL7+oWdTqk4oKu10SHtzS7thEnyMxzbCyB4Fbxm8wWdrwtrKSWGKnQ7yuNZnK/tvlrpaHZvglmmTDkAga6kRB8R/VoOJWVxPSX5HGNqWu9f2OQr43GYTixleEWdTS5pbjRUNs294fUUg01ScBAejYQLgAI2g0maNRXLHCHNFNVm9esxbOoJ8S17oIP3YEssY7gqO+VV0GtMMnI3Ns2FwvbOy5MyAQIRGYaPsSQScdTTCzqYBYvyCQwv1BjtAwMEsC7ztRjpgZXPJY/sfgtA0OiZRRw2vGhjUzAzAq9EEOrtGuGKJ3Licdt1zZvpx6X1VDGCQJqR7n2GPgLgGAP3SmSkuLx+LuC3nGDBfjuGbrQ1osCAMVZxHAUIGbkzGtiRg3B5wAAIbKmMZ5oKEgzZz+B40+8WQMt85c/SVFC5AEEbDZEOVpEpozLnbR/ljFE551TzvqlOIuKt3Crde+Hs7BxBULD6EA5CJCV1LrvMLEZlfReAoFt3ceJX84Z/jtcyBxbvigVO3rYSgKD5Wq1ppY8B6YUja76KYICyOiatgXKrARCMjRdQuyEbR3x8jfQacrEGGDOIlsY4lwKExnq7kgB5B5QSp9J5WQompdFj16gCaYab540IgrnhKmlSHQYzibM9hmyu8K2f7+5EbI9d7xTL3umc8tfP69/9uuFQddEdY3vGucbvXz3MT2hFmCocGpHWcgECQ8g4Gr6Xef3dnt983v2hTWUO26vft9NYbY2NcZ+lx6vn72SQt7+n15+v9MnZX7fzRCoBCHqHJeO6dUf738fOdskc73LM+k7vbqerljPntz5XutJ2d3u27u+VlcnaZ2YzruYl9wAIlEZbnr2MFPQvFouSOsijlaYYfo4G/G3ec6UAgc2ZcM7sclxTEqZ3+/bx7dscpT2+i5SAFKTWbpUTbXWbVQeHiSBg4FbpymOIAAAgAElEQVSCKVkIJAx506OaDysOu26yBZE2X60SauEbmVtkKUDw1dslnsoJpY4NbpvRpz5vtEieXIxvRhAACLp5vydT6H28jUoBwvv4DO/jPVUKEN7HZ3iv7mkXgKBljpAUh56HCxgs7cUwE5bwLhGE9+qh3qObqQggFEmKI8WeF61Nteqd7RiffY+e8U3fCrmu+ZWEgoTzfV41TvhglZIUT7S71eNYDaWU9OUg3wbpy1q+h/mmn/VdXJ8xWVlPayXDiVa3khQh7THvSjkIMJu1zDGcFn+jU0O8iTSaDRaZXU5qia4ZQTgGCHu/yWOA8GZm+jFAqPK47goQzDLHZ6ECWgf1bofMrsS0VA+p5e0chCrf1i/mcpUABFijkD1vjwTkozONcvmUTyWuj7onhrGZnI/JD48DcqLNI2d66iW3UbkOQl+7R6sF7j1fl0QmL19+2CLt/tojH0EggALwv/VkTWaX0/L5pWahVJH01itljvV25cVASrbbjW6OC6tx8dU7lVU+oykGn6YYjgHCMUB4F5v4MUCo8qjvkWLQbo5PnocLsWROHDarvJyLvFbFUOXb+cVdrhyAUCqUNLOS0PKwPyCU1Isa5C9uSA70QJTN/fftZRVKovwL7kClOgibQkmPVqS+3ib/cbNNGuuPdv2z+TJgdN8eWpWfRiPyxcWiUNJrAIHaZ4M867BalGeADgoglgoGo8zR4CAcA4RjgHCghX7IDx0DhEMO4PaP78VBIMUAB4G8OGFI1ADNbo5mmWOVb+cXd7lKAEIbSoorCRmZicjvbrTK6Z76sgECTTroOUE+GLnogzTqMAffbADENc3WzO/6xWxKLdcCEFBSPABA6DSVFJelscF+YKnlncaCkksU+TiMVqzlKbMhzGW27uYz/BvgYwgEGjLKyH3v1rSmWu+FqpnbT9fk7khEPrvoF98uUssAAsTS/PVOLYniPXCzE9vKHI8BwjFAqNbcrOQ6xwChktEq49w9OAjooVgej4YK4XhOap1WGZ+jm+NxiqGMYd085SAAYXgmIr+nF0OZEQS0/Wm/vLC4JB53nTb80UY+RQlqAB6sc8AD/cW1X7kNhcYNNUj0EqBPBX0pMEQoyk1Nz0gmndFOmk0+76ZgBsDD7BrG3wEldNk0+5urwIxKoRry12aPdL5HS7XSaf1+GuhUAmLep2ZN298/QIoeABNTdGp0yImeHm1Ry2Eadsh8DCLjwTgwHkj50pWQ/iN0JGxsbJRwKCS0beU9kVvi81yL/iAOu0Octc5NiXFDb6Q6/IlXmjXtBBCK3RyRVoakaHBjLBKMpMXlssni2nEEoZJ94ZiDUMlolX/uMUAof6zKOnMngHDGp5LfChCQWtaWrm67zC7HVAzpmINQ1tDqSW8aIGBsMDDf/3BLm/qc7O+Tk329aoRoaVtb69JGQhgZdP/pYAnhlH7hNL4KrAdkcnJGe8bToIaGVw8fPpYXL8ekq7tTzpw+pc1vguvratTpUkgvgVAYffg6WV5ZlYcPH8lnn36irYtpsQu7PRZLaFOs1tYWlRUGwAAIaJFMo6GPPvpQJYbLPd5ngEAnxR9+vC3BYEi6u7ul7wSdAO2STCWFxkqu2lodd4AE4wF4WltbE3+TXxYWF+XxkyHp7uqSc+fOqOQvv6OxEOPV2tKiPQcWlpbE3+yXs6dP6XugsymNimgWVQ2QUE43x0ZPURipuGkkknmtBCFNEwynixyE4xRDOXP6GCCUM0qVn3MMECofsz0/sUeKgaij5emLSIGcIxoHI1OGGuAxQCj/JbxpgMCd0Db41u07EolE5NKlC+rZjY2Na2dBETpa2qSzo12NEG2F6XhJgyC8XqII4UhE1oMh+R//9Z9id9jlX//6QXp7euXq1UvagfDpsxFZWlxUg4YHy3WJWnjqPNqGeGRkVH7zb79So8VBa925+UVtv9vV2S7JVEo9YsDHyOhzaahvkN//7ktpavKVPZDvK0DA6L8cG5fno8/lypVL0trapkCAZkzPn7/Uzo5t7S2yuLCk0RPaCbe2tcrk1LR2KPU3N8vs7KymFehOSqMwzsuTesjntYwQoECrYk99vXR1dUqL3y/BUEi6uzqlu7ur7HTGXoNdDkDw1tslkcqpjj19BNCmQI+dIpBXyhzdDtVS0BLdogZC2S/6F30ieSNDVM50HirVQTA+edRpy4bWhJn6Lp0ylQIEFazShn7HZbnGOBrCU5sCfXuRFLXMEYCQNbrEjUwXAUKJ1PIvej1X4eHeBkDIZLMyPzcvQ0+fSTQW1TA2holpj1fra0KRrUYaGxoklc7IixcvNKJAOHzw1IAkkylZWFiUP/7+txpJ+Pa772Vw4KRcvnRRJian9Lqtzc1qrGbn5sVms8rJvj5NRRClSKVTcuXyZVlYWJCWlhbx1HtkenpGZmfndOHhRV+7ekXv6/GTJxpKp50291ju8b4CBFIFL168lOcvXspHH32gz5pIxGVsfEIBQnA9JH19vQqOMtmMLMwvysmTJyQciWn3wP7+kzoEvI/lJSNqABinXTQtnFdWVhVQ8P4AELF4XFZXVsXX5JNrVy7rzypJ1ew23vsChM1ujhkJhDPS3FCrPRhS2bwChalSHQS33eiVQROkNM2dDHElY/s5mgePj0odbYXNxlXsDeUABB1LTc9tqCrrUT5U4qdAp9YacTqtOqYHVlK00PDN0J3BCT7Khy5Pi2jpMqRjlFD0Z7ulGFw2SSK1rN0cI0Y3x5nFmKwfcxAqmkdvAyBg1E2DvLy0rAa8p6dbHE6nhEJh8fq8kkwkJLAe1DQEgKCxsUEavQ1y9sxpSSQSMjQ0LJ9+clMN1d37D2V1dVVbXtMEZX5uQbLZnLjraiWZTIvTaVeAQATCTB8MDgxILpeVzs5OBQpwGDBqrlqn2Ox2TT+Q1sAo4i3zXd7GxrLH8n0FCGaK5+69e0rYa29rVfQ9PTMr0WhMowCAho0N+hEYrccBSoFgUDZyeenrOyHxeEzod2K12qTWWSv5PJwfp0ZnAGFd3V2aemgtgoF/fP2dfHzzuv4HyKvGsS9AKHIQMFCZdF5qnUY3t6V1Q0nR7OZIFYPX41CJZfoH0MQNQRU4MEcVIKgOVZHo3ep1quAX7YXLkVpm3HScA0mZXo5rea9KNR9RqKVgSbWnRTr9tdKnTa+2QEK5EQTWWzqzIbMrcVlcN3revKWGo9VYrlW/hjmuAK6eZpf2uGBcoZShE7NTsyYVSno8GikQUnTYrTI2G9Eug8cphvLfz9sACIlkUgHC0tKS1LndyhPQ3HRNjQICZ22t5PI5iUZiSoKz2mzi83nF6XBIk79JBYfweNvbW6WjvV3W19fl+YsxzZVDeISsOL+wIF5vo0YhNgobUl9fr0YLAzi/uKger6euTq+7FlhXkOB2u8Xv92sb7dW1gPR0d6khxOgNDvSLz/fzTzEwE0i3kAIYn5hSQNTc0qxEQwiccBGCwaC+m+6ebjnZd0JJoUQG3G6XpgtC4bCmDNpb26TOU6eRBovUSCqV1HdAxCUSjSlwYMyHh0fks88+0TGsRvRAnyG/IbeHAnJvNCKfXfBru9ftOggoKRINwPgjMgXvMhynT4tVG1+ZZY4ABAwa5boNHqt227Pb0fN4PTRejiht+avtzZxZjXtEvhYhqon5uPS2ueVUV72Wju/VzfHKoE85TPNrcXk+GxVvvU26ml1SYzsatc+7jTtjSQ+Q+dW0nGzzCAJoSIWDG8oBCH4AbD6vUS9AF91Gm31OUW2wI3zkcxtCtRidiM+d8OpcU+C0SzdHSqMtw2NR0tQqdzs0jtTyMUCoZA69DYDA/Wg1QiajBEA81J0OvBiMGTk3CG6lBHg+zw8gGJpGj8oG2PNa/ZDNFKsSzHbeW8uXa3LwvZwLwocYifdjVjGQVzfLL8mv11itFeXO39cIgjnOGHIAAeFOxox/G9UKeZmcnJR0Ji0D/f0KrPgd403EAMIonAXSNw7eSdGNMRD9RlF/3+hcGQyFZXh4WMfx0sULSlas1lEuQIjEMxKIZFRJ0e0wRLx4zpdzMQUJH1/0q8gSaqBzawn5j8861GOuUrFFtR73nVwHPZm//rQk66GcXD/tlQaPQ1Upd2v3fHXQp1oTdNFNZvPy+xtt0tZE6vBoH8w5JL//cmtJVoI5+fxik7hraR5YXrvn5nqHRONZeTwRFLfLKv/2QYvO56N+MK4AhP/1w6LU1zrkykCjAi8W747dHLXMEaGkeE49hrHZ6I4RBL3IZn7xCBNoirsgYZlSItJ+zZpMoSRTB6HSMkdzYmsTmH124nLOeR8XyvsOEBgzk9hT+g5K9REoPT2Mx0/kIRIJi8vlUnCw37uu5D2WBRAa7FriiOoi0QRSSEQU3U6rLKwitZyUjy/4pc5pVYnmRDYrf/60S5oaAJmV3M0v81xSBd8/WpPx+bhc6/eKr8EhgVBa7jxf37GbIwABYaqhiZDU19XIlx+1SZ1rZ/D/yxyx3Z8K4PSPn5ZleComX1xulga3XTvglhNBACCg/PlsKiQnO11y/YJfAcbxIQqc/vbTina4vNLvNWTodwEIyUweDkKosB5Ji7vWLjNLRanlc35lMZt5tXgyp+xmY4Pcq1d5aZexvV5Huecd5JXudu3K+prt7KGjL1CjY0Nb13K7OVYLIJTeU6mx2slwHWTk3uVn3ieAUNqCW9uilrCkdjPa1QBmpnBSNfUPzHdaDkDweuyS1WhHwZBazmwICpcNJd0ciSAQWUCiOZnJyr9/1iX+Y4CgwwxA+OHxmkzMJ+RKf6P46ssACNkNGZoCINjkyw9bjwFCccIqQLi7LCPTcfn8or9igBCIZmRkMiR9XUWA4DwGCAwtQmhf3V1VgHD5ZOOuAAGgqk0cqWIg76hVDFMRI8WgVQwOyWbzSlJCHph8pQ0i0hH2FIyQ8obUu+zS3+lRoEB0BWLXXu2eqwkQuAfKHdfWAko4hAewtLSspEQz528aGFPUyPRq+bf5O65jih2Z3nHp70qNovl504CZYkrGORYt20M7gXuw2w/mTb5PAIGUyuLikqQyaenu7FSyJhtWV2eHUYVQFDDabtA17aA5PaNbIqkFzmVtGaVFRr7P/JxpvLdf79XxNSIXkUhU7HZbxQJUlQIEvIZ4OqtCKdxHKp1TJvn0UkI5CCZAGJkKSzyTlf84BgibuNqMIEwuHAOEwzobpBP+cW9ZRmfiqvzZ4KowghDNyPBkSE50uuTGcQRh83UAEP5+d1WyZQAE5rNKLWP0CDMQNlSp5bN+aWpwaqOWB2Mh8bjpslcvTluNdtk7ukdBc4pDE1FpbqyVywONGrpKpfLyZMIoEf38UovUkrvVdIDIxGJMqg0Qxscn5Z/ffy+DgwPS0uyXf33/o3x47ap0dXdLNBrV6gHy2JDnMFKUyhHtCAQQQ3JrLX4oFJRQOKKkQ87FADkdCPO4tHKBSgjaAmPUAB4mGQ/CCnl2zkml08rGp5Li6dNhuXnzI+np6dEqi0qP9wkgAHa++vpbJYb+55//JA/uP5SCReS3X36p4wvvBEIn50EuRGWynjFdD+qYMN68f4iK8DQYY/gjpBBQrUxnshKNRnQlWSw1YrVZdYwpewT8eRu9Cix4f3A8eD+PHlM+2qClqR5P+QJUZQMELXN0qIOAcFqLt1bJiZSHkWGcWIjL3JqRYiDlcAwQXp/hxwCh0lW/R4qhSgCh7zjF8MoglwUQUFJ02SWZzovl4XCoQN0zIYXpZSPFcP1cszTVO+TRi4BMriTk3z9pl9O99UcaGpijzKDdfrYu90ZC8sWlZqGsiVrwx28TIExMyt+++oc01jdIQ4NHXo5NaFkhqoqPHj0Rn7dR/H6fzM4tqMEa7O+TtvY2efRoSGx2m5beTU/PysrKipYmOhx2NWZNXq84nA5l6FMaaXi/NVrXX1NjlZnZWR0Gv79JoxYYN0+dW9BpACD8j//tv5Rcx/UqPd4/gPCNPHr4RD7/7BMVRaJy5NNPPpbHj4dUeIoxWVlelVAkIs3+Jjl1akCWl1flxdiY9CGF7XBoKWQum1PxIxNM8DtABmqKRCWoaqDWiHPQnEA1s7m5WaMFVIqgJUEJ6cNHj6W7s0t+//vf6but9CgrxVBvl3Qmr/PZVUvfCMocU9JQ55C1ULrIQWg6Bgi7DP4xQKh0Vh4DhOqNWHlXKgsgnPYpHtBujo9HwwVISXi94/MGSfHG+Wbx1Tnk7siarCcy8udPO6SnzV3eHexz1kFztXvl2cvJEVfl5ikXy23I8GRE/vbTqtw465Muv0uR1tuMICBnjPQvEsC1rlo14pTEEe5/+XJMGfUIGsG2R98A43T69CkZH5/Qv6NlgCGCYY+3uri0pAx9SvS4pinxa1YmEDZHkIlySH9zkwIHdBQQAYqGo5LOZlWH4Xe//VJ6eg6m/Pe+AYQfbt1WBUWXs1a9/462Nuk7eUIFk4jEEBVg3jX5mjTF4vG4lbg6PjYhLrdL3HVuVZpEVRKyH1LUEA9RlyQy4Kp1KbCiZBJhJKIHqFFSxspn0ZxwOpBZNurC1wIBGeg/KTdvfKRppUqPcgGCtnvO0e7ZIrlcQeAn1dXaZDGQlrnVRFkphjfBiSlNj+307OXyNyo9j+8ql3j6JgDCmxlLI7q5F5/G3Kf3IsqWO5aM4fZ0537zt1ophtIIgplW5eFN3Y797qP09/r5Yq7QdJ52+3xpCteo/DKEmsqZS5xrpn/LOZ/rmvdGdHOvd1YuQHC7bOogaJkj904NM2xaUgwmQLg3GpBAPF0VgMADkNslRE24Go+03IMwOfXh5G9VQXAbZZoN2izZ260EsNzv2u88NgG4Gl/9tCrXz/ik8x0AhMnJKZU0xstnPLRSpaZGgsGwhqiRU25pbZFmv1/yubyqJdIXAf1/zkeWGUlmeikM9A/IzMysNhW6evmSivcgnmQo/aXFbrOreiOiQFwb6V/EfpZWluXMmVOyurIm6DSgKIjxwpPm/VZ6vE8AATXDu/fu6/MyFrlsXstLWbREBQj5k2LAUHd1dWkfi5VViD8ZSSZSGsEpWIyUzulTgwq4AG6kEU6c6JbFpRVVXmReoyMxvzAvYYBWJi0up0t6e7oknkwoWEB0ivENBYPi83rl+vUPK9KXMN/DvgChREkxGMtKE90cnUaKiQL0zTLHSwZJcbcUA+s8HDHSMIwP6aZSI7cf0C8lhZrrnJJRtDWYu9tLP00jhaz1ahG4uV2uzT1iu0NC6oz3yvgDrjk2v9NosWmUr+bzBli2WlWnwuSemOO5k6NTbYCg3BNSWjU1wjPR2GvXsSwRFTA4tVsVT6X3SjkzaTGuRzpxuwHkXOYxvBvmK+fs9E4g2+BssFbgQnGe+T2l38eaAfiShnTYbRqJM8d8r7GsNkCgMyljyTrl2dvb2jYbq5Xez/b3WvpvxmVldU11X1i3PLf5TrbbJAD/0vKyOhL0tInFYuqs8W+zE6z5mdJ3ylxnL2a/Zc9mD2c/3c2xNue/EaGMqsOCRk7p+aXXLxcgEEGApGx5MhouxFI5cdhr5CVCSbFsCUBYk0A8I//xaYeKfxzmgFT34uVLzV0zuEj9uvCECpSuGB0EjQcxqg0QyzBrxgmT4/HabVYNiXMO3q+JtJh8XJfcL0aP65hd9diEzfr/ctHYXs/JJjA8GZZ/3F07OECYLXZz7Gkou91z6WKKhMMa5sbw8JxMRp4TzxSpZSYuk9JZS71+QeKxmAIoBHvIl9NTYfT5C52oTT6fMaYFEU99nTYeYtxtVpvkN/Lq/TJpmcy8Q76PRY4xM6Sd0/rd6lV7vdLb2/2zBwjGRrCqTZQQoeLfpArYXFdW1nTempsDRhxOAWqJvBPVwLNYVFGSz4DeOtvbpQ7eQKGgYlWZTFa7beKNMF8BevwumUrrxkDDJwyrEhqLJbWcAxDu6e7WTabSY1+AMOjT0kZE09gD4CPUWC2CLoLLYVWC4n4kRdYdaZIffrylqawPrl3VSAkNw5hXcCdYq6xDxg+FUA6MPpsuGygcGbqHci04F5SOzs3Py/37D1Q99OyZswra8ACJ7ATWAjov3XUugZvT3t6u0TREqgAD3I9BnrXp30nv8HPSNkx6HBWkwwEgzHXOI3LE9wIEEQerb6iXSDgqdXVG+Smf531gFHkOc1+pJkAwxjImd366K3aHQz4oSpmvB4MKvOj8CXDnuwHz8VhcamxW/R33ls1k9bmI7LE+MfasXfqC3H/4WFBGPT04oKRa5hpzi8ZsgCfeAZGyrs4u6T/Zp+8tHAnrOjD4MYCDhO4nOH3+Jp9xHatVx4375p6Z0y/Hx8Xj9ijPpqHeo/eBaBjrxuA7xdURYV8q7QBbPYDglo8uNEkiGpQHDx/r3se9nD51Sh0lwDcHvC3WI6AQAMFzMI48M5wrwCkpP64Bl4j3fvnyRX0G7r+xoV7XPXOM8WE8791/KOfPn1OeGP10uD4Gn9/x3hhXxNGIzjLvUGRl/H+8dUf3bbvDpvdJyjEaiapTQgqYcWXvZp3Mzc1p5ZHH7VZQy/UxoXwH+zH3RB8eHHP4T7mCXf5+d21fkiLKymgjWB48CxVWw2ll5M8sRyUYfTMAgQlHfjyXzara3sWL53VweQEMABOFhQfpLZFKSiqZUq+Nh8Ug0TlP2+labToQTLRwKCz5jZwaSgaUhcImncmkNafLNUBjgIkTJ06oMTxsbXk1AMKz6Yj8/kaLnOllc6mc9GmK9JhejflvNliMOuOmm1bx0oCtTXEjq1X7Mjx9NqyGn/z5uXNnpd5Tr58ld759jEz2PZOO72LjNENsJjolXM7B5w8CxIgg/PftJfG6HHJ5wKeyxnjPT8dDshzOyMfnmrSyhry9eSAVOjYfkwcvgnL9TJOc7PCo4Nd3D/HQbfKnj9uk0VO5VLEZHjSf0RxfxhEVRKPNtSFEpW1gLMXxzWR1zGPRuIw+H1VEz7ifOTUovb09OnZ4A6YHUeq9ci2eV6M2dpsBsjYrcwlR5vV9sckfJEJD6eKtoTW5OxJW7oy37nUlxcZ6m6C2pmWONqskMzlt8+ylrrzYzXEvkiKGiGjUf//1KwWnn338sTbyYhPDcOPZzM3N63om1UJHUfgqbIxrq2u6CbOZIuMN+GRzbWhs0H0DQ9nR0SYXLpzXRlc+r0/VLReXl2R+flFODQ7I2Pi48mJODQ5qb5Hl1VU1/N3dnVpdQ2WKy+XUzd9aY5VgKKhKo329vTI8MqrgDM/yzt17utHCM1GDm0zK5MSUfj+b7uLyioSCIWlrb1XODfsKRzUBAmNJw69vvv2ngsjPPvlEgRbAtbenRxVUSTtx/xhb7s/lrtWGa/ycPQCDQot4eC6XL17QZ7l374Hcvf9A01WnTg1KIp7QXi4oofLuINoSGRx6Nqzz9Mzp07qXEoVE+RN5dtY6HCQMKVEY1FbZdzG4AIjxiUkFDj5fo9y+/ZMCu87OLk3DZTI5mZqeUqfE29igETnAFyqs2AQI1Ky7agGEk11u+fCcT0aHn8rjoady7colBZSIkrV3tElgbd3oPXOyT52o8fFxbc2ObaLXDAq1PPP5c2e1U+0/v/9hUxHok49vqoFnvvb2dCsQY04SwQVwzM7OS0e7oZ7KvMRIAy4WFxc1DUlzPewhbeTZN1FPTSaS8pe/fSVtba06H1knrJFwKKKOg9ljh3fJ/b18+VKjxxDW2ZdRzQVEMgcunDurewWAl8jw55/clObWTvn7vYBk0mWUOZJiePo8UqAhC4IJqKPBR9hKMVQvgjD6/Lncf/DI2FDxGtwGeuSlIP9LW1wGkoFisgEIMumsDhATnQclB85nGCRCKXjBrW0tivCS8YR6FHjTpvcBIib0iDeDEbx25UpF6n47eWkHAQjjCwm53N8gHX6XLAZScmckIF9c9cvVU8ghv339T0AZ0QbGxqthRLeCqHd1YPOnFmLy97sr0uV3y/k+rxrLgwAEUmU/Dq1J3lKQ//i0TVp9b1+Zjo2CxR0K4+15ilUlladdqvk+oqm8/OvBioxOx+U3V1tVDXG71DJSv5AUE+m8Nh0CtFD2aNcyx7jMrab2rGJgXv10957ce/BIjXBba4vOMQw24VIqMfDcAUvDw8/V6NAJE28Yz8vf1KReDsABY/zBtWvqMX377T9lfmFR5ygRFDxVrvFseESHCJDNBv9seNQAryISi5N+c0knRiCwrhU73sZ66erslLXAmhqwRCKlnUkhjpKyA2Dwezyzjo52/T7Iu0SIWpqb1RnBuOCoGIqZBfUiMbYYtWoCBMbyu3/+S0ZGX6i8NwaV6Me582d1PgGaiJjCA7p774EaJsirpP8wQkRNiN4QfcGwfPThNb3fb779Tp0mIoy0GicSiAEn5ciYsP8SNXj85KnYHagPGikH3h+pluC6Uf1ENIC+JOvBsKTTKfVYBwb7pbHRK5MTkzI5NaXpyHgsIZ2d7brP4x3zJ/s3aQf1qjcgxJI+qdH0Ge8XAF4tgNDfVScfnPXKgwd3ZGl5Vb74/FNZWlyWe/cfKNeHCBFRJOTnAT7YDmwOERhsCdE6DP6N6x/pu//6m++KHrxNPvjgioJ+iMtciwgU0S2ALmA+Eo7o3Dtz+pS0trfK0tKKxIrN9rBnOHSk4uAbAUggRDPW//f//F+SyeakCel7b6N+B6nbFy/G9J7o8kozt9HRF2oTiUoCrADAfC/XgjxN1M5utRlOczYjv/vy36SppVPLHMsGCM9eRAo0CMFdGdZ2z6UchOoBhJGR5/L9jz/qRD9zelDJXFMzs4qw8CAg0EGkS6dSOjhSI7IeWJfe7i5tQqSkLSd5s1o1bixsSvPw0hR0FDY0fMRkR+J2eXlZ80Xnzp7RRQDi+vzTTw7kfZVu1IcFCLFkXh6+XFcRipMdbmmot2v3stePvRTiy1GP3+OcovgPY6ZcEFMAS2+i8ohG+YbMfNCt78CgoyaHhj21udAkHbcAACAASURBVBcHvOKvdxrdAiuMIJxor9Pbn1tJyPB0WFp8Tulpd2nnssqfqvSlHOTTZprM0ER49Sj3/ZX7PrZSc6++P+Pn/P9SMClzS0lp87nk/IlG7dDI2CN4tBLKyLWSMkd08ClzBLwSyQEoTFLmWFRS3K3McXU1IN//eEsymZRs5Atq0DCcFy9eUKMwNPRUI38YdzgZeMgXzp+V5pYWTT1QVtra2qy8GTzaD65dUUN8+84d3XTxdjV9aLeLz9eknlhbS4vKfhOhmC8aQ8AZfBtACg2wCLGysULChbwLEGDjX18PKVjQaGTY4O9goIhwEo3k3ml9zqZNlIDvxjvjWTrbO9RLw3MjelFNgAAwXl1bla+++roYzbNILBHXfeLqlcvqMD0EbPmbVN773sOH6tGfO3NaQQPp2JnZOfV8CfeTC8f4sMxpOka0kPC5GRnj+dlHzTA7KTEAA6lgjAtGjvHguQnB44jhMWOUZmfmNMrDnqxj01gvqWR6cywBBKQPMFxEYjCKRBJ4Rj7DdQGNhNlpp36it7eqAOFkJxEE7MuI3L//UAYG+o0+KhrxpGjfIharVdOwAEMMN7whIxWV3ARm165dUXv0/Q+3NDUQTyaVawSoYnzcrlptnoc9A+AQueF8ouInTvQocKK0mXEAsBnPH1JgxTXOnjujUR5AyN+/+lq/g/nGvGf+aeXZ7IzRe8dRKy63U+1iPSmw+nqd68wBHH2iNTjS/GemfwHQgESb06ME+/10EIwUw4ZYHg2HC+vRjGpWTy2+qRRDQSYnp7Vh0MDASQ2tjI2Nay4MtEZ4iXAJg5BKJLVZkKXGqosWQEFJGPlfI6xrUW8CFMXAmRsB1zFAQkpTEI319Tq5WSQI3hCapX3uYUmMhwEI7U0uDZFDFJlaiqusLS/0XcjUbhFkMELvUD67IDomeIUn2lzS6nMZpMsi87eSFENvO5wWGhMVZH41IfNrKW1KDEp/64ehYCoFBBRK+9W+9RtRjqHkCgVpa3DIiTaP1Dqtm3MO7RMFCHRzbLCrpkcilZc6l1UN5WqI9KNNVoJpmV3ZWwcBz5R1zIZPqoJKFzYpDAqGi5A1pbWkGDA2ExNTGrKHUMtnIXs2NfnVkJA7B9wTEcCIY9i51upKQGLxmHJf8P7w9PHySU0SKeTa7AtsvBgCPDa8f6JkhHXhE3A+c4L7o3spXU/hMjAogAg+z2cxgITvIeJhMElbwNMBVKsWSCyuz8WGX12AkFcjT0ibNAabPOArmYRPsCHtHe06PhhrUiEAJu6Pv/OsNA4LBEMamQX0ABKuXL6k75N/t7W26mcxbOyRAAWMPJ9lbOAg4GRhvPE8+X72YCIThN+VNOl2a+oDkMW+SyUO4Xi8VwAaeX7AlsEDiep4GVyTlMwtEO0gNQKxUcRT55EE1VVdnTp3qpliMKsYsum4PHnyTNZD9GdwadTn8ZMh5V3QsI73Dmiam1tQgw45m1S1Nq1LpxUQEeV6+PCx2hPGmqgKcwjg2txK1ZhT7Q7rnhQG48YzE40AGDGX84UNjb5g/PH4Z+fmjZRZk08BMdGUiakpfRfRSER3ZuYiHBB+BrmWcnNsHFF0ysz5vbPWuen8AvRYc7zjufkFBSJwcj68dkU6uvrk64fBsiIIKpT0aCRcgLWMKMrUQkT4e/VTDAUltSSSKR0cBhJ0xsvI5bPS5PdLgVCTC2SZ37RXhKE412iSQ+lHQScS/2aDIYwIIkMPoNZtVDewsAhr4lGQH3I6a4slI4jbGKSNwxyHBQgQVUCt9G+g3tzo6XC4ezrM87zzzxYfnzJbp92qQ8HiYQNn46oUIEDq4xrMFcY3TS0vEZN38qDvz7u120TJhnarVVMLJvXlFYBQj1odqR0RGwqhubwEwinxuO2yvA5ASOybYmA9smY1J5/OaCiZjZdUASFPjDsGlo2Tn8Pr4Hw2XTxkwrlEEWn2BQBQ+FooGJtrPq+GH5InUQO8K0LiRAd435xjVE0Yc4BzuRbfZToGXJd7ZFPG4BHa5nNwJbR9uculYW+u6XAYREXOhxCo3+d06j2bJOlSTki1UgxmJQHfy3ea/2YsIXOSOgFsARgYSzb/RDKhHUIZDyKmjIGmZTNbhDiz1I5n4NoYPt4RzwsZF94C48BB2odn5DqQljGCRjTArTlvdiyAAoYKDziThjtjVKexP/NZDbXnN/R3lFzze94hhhZwAZERIjDXMd7fViO6aqUYTICAfeN7AZnMRUAC/Aj23/PnzkmT36eRK8AU98F7N7hXBndA8/sArGhU5x/gRudNEoJ4TseP+WOmagFymBojlZDd5A9xTR1XEeXjDA09U+4X43nlymXll3A9rq1Vf5TWZ7K6bgAHzEnukXthrnIt7oE/WTt8wKisoDQ9KI+eDKmjDbfpyqULcqL/tHz7iJL1MjgI+WI3R14O++rT18ocq5diMBd6qYFmsmi9p9VqeHlltEtQAMFSoP1nsba0lPRlhs1Kf2bahsOCA930DlDFYHIQzAiCUYO85bi/G+P1TizmLl9qUYPFpC5tgnVQgKD2wSJGp7LjY3NZEUlgrXPsBBCMKoacUcVQZxOn06rvg/cyPhczUgz7lDke5eGuFkA4ymNoPnu1AcL2Zk3sLXAgIAQTJTgIsfqw7wknGe4dHj5pns6ODgVO1bBT3BsAY2llRbkPpHl6ujplQxzy93vlVTGoc/XkeaSQTMGOrpEXWub4ZjgIhx3M9+XzhwUIbLjZ7IbmhKkY0YhCKVrYjCZsz9eX5pk3IU8RZWxvUGWij1IDudP1uM5Oza22f26v61TyZl6/ByP6bhFPrVXa/S7tAcCPDhtBQOwnHM+qiJXWGuz1SDs9wut0ifIfdC/6wk6/2ynQUPr9+93Lbp8vTgMqOxy2Gq1cwJNSr7A4HqURBAACaS/mJR0a6cFA2SONyWaXi70YjqWWd50HxwCh/CWy35lvGiDw/fuJb+13j4f9PZEhIjlEYSh7Pmz6e6f7IepDtI0ULtePJXLytzJ6MajUcjYnlofPwoVVwoguu8wux2S9igABb5+wGGEW9iMGA89+J+/+sINd9udLd8eyP7R14uEAgluylNIsxGRmJa68j/o6xqa0Y+BuBrsSgFD6YDuBB36/G2AoBR/medUACDtbRn5KZzGIcW0+p5zt9QqiJozJgSII5NshPS5GtckYhhBC3lE9GF84Hsimtvlq5Vxvg0olm8f2FAPzEw4HfVdI0SwGktKoZY4ZmVEOwrHU8m5z6RggVG+VVQsgHDdrevWdVCKUpByEoefhAoIIIIzRmXBVIwgQOEafj8mpwX4lEE1PzSipCGIPORpTsx8QQS7KyPOAqrKKdgAS/I58If/mP8ImhIP4HYBD0wxFBTQFIpQbcY7FosBE8415ulXWaJ4OYhGlfeSgDnIcBiBQ5rgWTsud4XU5c8It184YmtfvmMN2kGGo6mfYDEanI/LoeVgGu+qlv7NO8huGLkAlHASqGGDmTy3GZXwhKn2dbu26+WqEpqq3/rO4GDzJpbWUPJ+OaoTmyqBPHDYjfbBZxaBCSTZJZTeMXgzOGqFDVbwoojazLYKAWFgim5U/f9al0YZDUnt+FuO4301utnueS8iVgcraPTfU2eQ3H7WqrPXxYYBaujmOTB2w3XMkIyNTITlu1vTqbIoWuzmW0+5ZAcIw3RzzRsxROQglvRjujR6Og0Bt8f/+f/yf8uWXv1I28Pff35YvPv9YWltblZWLGAQbOmQKyDLUzRIOJi8DGabZ36wa9rAxKTOC+crv3O46JWjAekY5EGISqnUdne3KZp5fXBS71a6MWMqUIENRNrK8uiIvX4zJZ59+rLXZB8k7HRYgUIL3aDIsf7jeImf7Go7z5EpCE/VU/3JrSZo8Trk84FWxnkoBQl+HwQ7+4emqUL35h5tt0txoEOaO9KGEvQ35/vGqPJuMyq+vtEojQkkbr5Y5NtXbtRcL0QJ/o0NcDtQ0IdUWZGwhLvMl7Z4BCLEMAKFTWrzHY8z8Ikrzr0erMjGfkGsDXvE1OCQQSsud5+vS01onF/oaJBTNyK3hgEbLrg76tMR3aDIodW6r/PajNgUIx2CrCBDuLsvwVEy+uNQiDW4E8lC+tEggkpJHL0PS0UxErFGDoU8nQ0qwvzzok2YiXpGMPJsMSW9Hrdy81HwMvIobIADhr3eWJZMtyNV+ZJ8NQhxBgp9G1pWb9CHdHGvtksqQYhgJFSAlEXacWIhWVWr5+fOX8n/9P/9Ty0hgzi4uLMpHH36gYhKISwAQlG2eSmqFAwIdlI9QfgKbljKnqelpLZvB2FN2QxlVk7+ZwKnWjBKKhuQIW5eSRqIGlPxQpoIC2MzMjJZ5UZYDW3R2Zlb+49//KBfOnztQquMgAOGVds+rCRmZMaSWTx1AavmXauhWgin56+1laXA55FI/AOFgQkl4xd8+WhZvo0P+eAMlxXcrUPS+vC821ztDa3JnJCyfX2wWn+d1JUXKHBOpnOYp6+uIbBU09UNN9HIgs9nNkbJH+pHMBxLyu+ut0t1Wt0l6fF+e913cB2P39f0VCUdy8sFpnzS67RKIpOXO6O4AAd9seDIkiWxOfnW1xRD2OuLcWtJiqXROvrq7KoFQVj7RtJYBVssBCP56h3JphsaD4nLVyKeXWzTKdXyIrue/3FqWepdd91kV3N0BIABUEU2zPBwJF+jYBstzejEmwSpyEBAk+frrb3WzpzQI6U3qaPEY0arncNodqgaG8AR1n7A5EfagRpRaVaRFiR6g4oVyIqUzCK0gkoIcLCJLTBxKQUghUBNKuQ6AArAQChv1wEQsqM2lXOd3v/uN1gIfhC16aICAiE8RIJzurbwXwy91kr9PzZp+iWNcTi8Gr8fw0gDtVptFm7WsBJPS4LarVgJljjfPN2mfhoVAUh6Oh4TQeE+rS5C9PqrVONhzxgxy5+RCQgY6PHKqu16JocHo7gDhyoBP+10QmXk6FZIGj026W1xKDj3KY0mpMvL/i6tpOd1VL73tdRppBfyXAxCaPA61OZOLUXkxH5PO5lpp9TmPdDU5LCzWNkq+a+sZudjfKJ3NRn8lxvSVCEKx3TNEb8uzsUiBHLCGaaaQWq5eFQM6208eP5EGGmHQ+IcGK+mMKpBRZ4xxp6yjt7tHUumUik7EYgmt+eTo6OhQQSVSC0igUs9JNEEBRSKuaQUkRfF0EIbg39Q+UzaC6AZa36hZ8flAMKhRDMRHEA0hOnEQsuQxQHgz5vMYILyZcTWvWg5A0DLHVFbCsZymICAqIrBE1fb4vKGkePNCkzTWObQl9Foko8RmQusH6SnyZp/47V5djZfFIv4Gp3S3uNXh4gjHdgcIpNIwfOlcQVYCKZkPID1vNKk7ykEEaGWEulu9tdLT5ha7fauLZbkAAVEo8uwLawlZCqYMcHHEQzOMgd1WIx1NLiUsU7lo6DLsDBC0m6P2YsgUezHMRCQSy8j1c4QgHQIHYS2elf/8tF1fVKUHCmThUEgVyThIG+Dp4+VDPtTuVHabIZC0kVcZSeQu6cOA8AOa389Hn6swB6pRSHEiEgGfQQVLVNCDELLRnlU5BQXRVqWGHKtXQQPkRxTBOHd5eVV7PqDEeBAOAhvjsLZ7XtEGQW+73XOl7+Dncv4xQHizb6pcgBBJZIWIor/BoWuTsLnDZpHpZaMXAxEEIgqsPTaXTDavAAEu0dE+6DBrUTEqBUtK67Kow3VnNLAjBwGAoFFM/LPiWKZzKNIcjyVRlFq7VSMspSTucgGCKRFOZAdDx/w/6uPKXAMgqCCdeSAGtR0gKAfBJkkAwn3KHEMp7eaIN6AphnPN4gUgjKzJajwj//XZ4ds9l24epf2pd9pUzG56dIEjTcG/kZm8cOHCa720d/s8P98phbDfd++3yQEQnk6E5aufVuXmufcbIOzWQ3y/Z3wXvz8GCG921MsBCF6PXdUTc7kNLTVlg0Cy2lckfSG1DEAggmB21WTDVtGlos7ZK+u8+I9yvOFyNCfLOeewo1j6HZV9HyFwo7ZeK6mL+89+AEH1Poq6FPwdH6dk734tknDw+zvsyLx+X+WMTznn7LyHG0TF7RVelQAEvW5RME3nYMkcPch9lRaa7zanD3Ld7WtmJxWbg66r7WNLdAbQtAlBdwIIxRSDVjEglKSlTCqURJljVq6fbVZSx9OJoLxYiMkXl/1y7mSDhmjeFrZlkJCcpCETvRlQgkI22byBt3UfpQPMRhhN5OTHJwGZWkjIJxebxd/olFQqJ08maHSVlc8vtQiywYZxFplYjMkrJMVdOAiUY9JfHa4GGt9wLSo5SsEAfzeadRg967nebnwLEzDtBqi238N2gEUJqSGtatVIzU4HUSFDLrugFSeGRCj9ALaW2fsAENjcqZzg3soNmfMZ3p3RAhoiVV4lW1UuumS353d7cV72k+cwVEf5j+sievLq+O03V8oFCEQE0tm8ehmsMcheNG0ivTBXAhBe2WT2+/Ij+PtKAcIRHKIDPXLFAOFA33KEPrQHQDA4CC+jBfI1HE8nDQ7CR2f9mmJAQOnZZESy+bwSPRx2A96+HeOMsrihA64d6ejF8A4FAxTVFSy6YUL06G1xy2B3vYKBdDovjw8BEDAytL4dHxsXd12ddmijAQwNqkivcADOTB0IjAUpFgwOxomUDYAATgdAKhgKycjwiERjcW0ycubMadVR582ZRhyDrZoRmayWgmK06Q5nSFmD3jf0RaNVwXlwO/idAraNDb0/rsVnqVZpbvHLwEmj7a15mPdHky74I1Sh8D28Rrgn6GGY9/MuAQLGXBu1zC9IKBjWjqAtLf7XQIwJwsxGUjwnn6NqBnItUS7SaJTtJmJx1ZpXrX6HXdwut9S6alUxzdB3N1YR10JylcY5jA1pse1AgnPh7TCG6L3TcIhyXki4zINyUmXlAISmeoeEExkJRDKaYiBcrmWOFpGx+ZiS6cwIwjFA2NuIHAOEN2NkjwFClcd1F4Cw1c2RZk10c6y1KeszGDEAQoPHrt5KNJ6T+bW4kJtEOOXVY/u/d9KErRROvKr8Z9gbI+iyOz4wgzJb51Y2jOUFQQkFwtZu9ToF0SNIHhhuPK4n4wePIGCs//uvX2lJ5q+/+Fxa21pleWlJ21VjLMgRNdQ3yInebu0+trK8ph3HMAwYtaWVZW1S9enHN+Ts2bNaQjo+MamtdOmCRwOXZ8+GdUhoTwvBc3p61uiFbrXK0NNnet7gwEnt7kaHPQwfzU3ocoaBgtyJpUDXO5tJy5df/psa+LGJcfnuux+0ycjVq5dV1MowoHk1YPSpv//wkTYaOdl3UmpdTnky9FRsVpv84fdfaktZjncJEBDWevzoiXYbxdAzDuiz05ilsaFBQRfRnUg4Kn6/Tzk1VNow/vx3+85dbUN++eJFLafFmE9MTCq4g2iLCNnC4oJ2yWOcWltaNnvP8w5mZmblx1u3VQfkg2vXlJ+jBNoia5tWyJT+cp+cQ7e26elpBVe0/0XjY7+jHIBAKkHLHFM58bitNMI0ujnWUeaY0jLHY4Cw30gbvz8GCOWNU6VnHQOESkdsn/P3iCAoSXGnMkcFCHU2KQYWlFlL98EtC100qK/Z1X0yMJu/3uG8nbBF6bPp74ufo+3bK0dJS13TgzVjtq98rsiseiVhWrzmDpfc/ArzlILR5c6BFDDpFgYXLzx3OICAZz48OirPno5o61s6Xr54OaZGFKIn30X3yn5aV6fT2qELDQmrdkHbEKvNptUan376sXq/33zznWpNfHLzhhqpBw8eKnFTu8DZbNpyFaND73aMPx4vjUIwSlyffuhUlDx/8VINeCZFd8xW8Tf7ZXT0uRrF3375Gy0bvXfvgQw9G9Y2p/0DJzcVLIloIH5FhIJOeHjHpIjo6ja/sKAEVcAQHTbfJUAwm7Z89Y9vpLmlWa5evqRREwS66LRGBIBoCZobAGaAAHobs/Nz2iKYqA2tcIms0EHU39ykXj6CXnQRpOsbUZ6XY+P6Dr2NXuns7FBjD+g72dcrDx8+kp/u3pee3m4Z7O+XSDSmwIRKn0QqoddeXFzWqEt7W5sClkdPnujn//iH32u1zn4lu+UABC/dHHMbWg5lK5Y5rgZTKgcOT6mUg3AcQTiOIFTZVJV1uWOAUNYwlX/SHgBBiZ5PX0QKmmuwWGRkOqxKX0YEwaZtXzm2k2fK//Zf3plghY38FsmjKgBhY0MNOF4nhgTAQBUGwlHra+tCrsViMSo0VEp4alr7f9c6nHLm9KDUulzaV/zSxQsKHP75rx8kFo3Ihx9+oJyGH27dVq8XeWk8ejx7/o2hJ2zNpdGFoFSUChE0JyYnpzQ6oeH3ZEJ+8+tfaX/3J0+f6ucAH6Qy+C7ABikgrok3S448lUD8KiFNTb5iy9OcpkEwboCG1ha/tjfFU3/XAGF5eUUACKdODcqHH1xVwwxAG5+Y0GiN1+cVh9OuKRS0OPxNTQrMJiYn9VmJCAAcEmh5RGOq20HaoK2tRSMxVNhQ3kvlDHyMtcCa2O0OjTgAFv72t7/rWAM2ABGcy3sEuJHCQdODFAWKovAbiNysrK1JW0uLXL/+kY7pfke5ACGZzmlHx/papM6RLYeTYZHJxWKZY5GkeAwQjgHCfnPuTfz+GCBUeVT3IynSi4FNgFw/vRjCsawBEOq2AEKVb+kXdblqAAT1MF++VB5CPJ7U/u4ut0u1HyKRyKZ3GAyF1VvF6GAkMOYnTpzQUPOzZ8+ko71Dzp0/a4T17z9UTxhZa/6cmp4RW41VfP4mJeCRw9bSqkxaQ+lwDDB8ba1tev1nI8OSz22okYO/ADBC5Gojv6Eh9GtXLquhn5qe0igDXi6GD5IfbVTb21o1VbEWWNdnaG1rUaCAoaNUlTA6xpi8PeD0XaUYDACUlO9/uCXrgaB093SJ21WrKRiMPPocdR6PlucSSVjXSEytCm6h10GKhpC/QW40Ug5ES2JEAbyNSs40+8YDlhgXABvphn/71a8UjPx4+45GYNLZrESjUS3NJZpDtAVAaLdB/jRKeYkadXa0y3owpOP2ySc3dZyrEUFABwGpdTgILY1O5RxRAm23WmRqyejmeJxiKG/7Ok4xlDdOlZ51DBAqHbF9zt+Vg2CXJFLLD56FCqhWaTfHlZjARzgGCOW/hGoABDPMv7q2JjabQ0PGZDGdTrsaBaOmmi6FeTVKGBDC15DfXLW1akwwxBgniIZ4dwCJaIxQdb169spnENQsmwyCXLHkxyDJpSSRiBsh8TqPRjDW1wNKUONe8JLXg+vicDg1QhCLRZVTYLXatJUoeXQMIVUTmXRaYom4Gi2uh2gVuhZEJQAI3CvnkuaAkMc57xIg8KaVBLi2Js9fjEkwHJKTfX36HIFAUOobPNrgC8Gu9o52OXmiV6MeKIFy30QL+Pz8/KI0+Zuko6NN3xPPxxiTboCcCCgCeJE6IEXU0d4m165elXgiIZFwWEmeRBeC60EJR6IKFAACjA/aHbxLwBrAgvGGgArv5MyZUwrs9iMqlhtByGRzks0WtMVzKpuXxbWEljyvR7LazfHmeZ+WOR5HEI4jCOXvktU78xggVG8s9Up7VTEQOHg8Gi7Q891ht8rYXGQzgoDeumpLHB97joAJEIbGjWYhBy1z1HI5xJ4sCK6UCFls+3ajztooodvyGg1SIIf5c6NkzxCP4j/teqmT4fXWx6buROk1zWoG815K/63XKn4Xfxp8DIPEQUqDstTS+9h+v5xJ904lYBarNN5VBMEcXp4JY41HT2QG605UhedH9ntlZUUGTw0o8OFnGHPun+gMzwfIIlIAT4BrbdbDU4etnUdJM6RkcmpaDfulSxc0NUHkgc/b7XB+NjSyoj3iszmNINhsdr0PfkZaiQiC+T5TqbSmNswupntN1HIBAu2eaeRC2XNuoyCReEZcTqtWMOwUQdgiER9vFCbY1DVxAB0EvIDX6FVHdViVVnZ4HQTmpylGdVSHcvO5i1x+opKbhP9dAILbZVM+knZzVEEKi2hr3XA8J9fPNikxqTTXfuQHd5cBwJaToqGKYT2a1c5jB9FBOOrj+64Bwm7jbxr/XD5nVH2UKtlU+NIAWYH1oEaDfF6fahm8rWNfgHDKpw2c0PmgfwAVDcxjs7R4bK5Y5liUWiaCYPKBzWhCObVAb+t538X3qCEqguVKAAKbNf/xjtChqLTu610865v8ToSmIcmS4qrRuOfWUUkEwaxtS2fRKjlW+2RcDSXFErmCvaoYsnkjghCJZ8XltMnkfFR1q2+c92sdNBGEoz5Z91sIOOTJdF7uPw8KglNfXGkRp61yoaT9vueX/vv3FSBUe9yJEhwGZBz0fvYFCIM+QUmREsdoPCONHodGs4KxtO4NS2vJV8scCwUFxsvBlESTuU31wIPe38/5cyZl2WmzSIuvVjvlYcj4395Kij49D+PF/J9ZjUteezH8nEfj8Pduercd/lrpbasTm9XoGcBRLkDQXgzZDW0qtrCW1MjmUR9XLdO3WrRXSFuT0RSMYPBrvRjO+KTOZXZzHA4X1sIp9RiYzA/HQtrIob/ToyV9x8ceI2ARlUldXk/K2Hxcelpc2iVrS4u9fCXFoz7ORwUgvKv3XA5AoDU2qRBSC6QYqINepptjnUPWQmmZKXZzhJOAYBhRhdWIoZNgxys5ot4EgQNSRYlUXsj0ne1tkDYfAlYWrQrbrd3zlUGfWC0WWQgkZHQmKm63Vbqai90cj2CuwbA2GK2CzreV9YwMdHq0jwVjaaQqLRKIpOTRy5B0NNfKud5Go9HgpJHivTzoE+3mmNvQ/iETSzFp8TqkRd+HsfqO4jTl0bM5kaX1lKyHM3KhzysAMC3V37WbYwElxUghld3QsAMnPxkLyeOJsLgdNYow9mNHv6sN7734XoiD+YJGEPra65ThbaQXzBzkHgDhRouc7jlu92y+x5X1lPzl9rI0uOxyrm3HBgAAIABJREFUecCn7VrZdEl7LYcz8vG5JmnwbPUA4HOIVqHw9+BFUBtnnezwaEj820fL0thglz/dbBeM3vFhzNNbQ2tybyQin1/0a7QgXyjI8FRYWzlfK0YQUumcxFN5qXPZhQwIJdBsrBMLRpnjxxf82ukRvtKTiYh8cdUvFwca1Ms7ygdGZzWYlr/cWlIFymunvOJ22rXx1W4A4eqgT9/Bs4mwJLI5+d1HrerZHRMRRFLpvPz3rSVZCWbls4t+cTvhxJUHEJrrHSrsNzQWFHddjfz6Wqs0NdDc7yhCg9JVaZG1UEr+3+8XpdHlkMsDjdpNFGu1U7tn7cUw9CJSSGfyqgoISEil8iqxHIrnlGxGmAx+gpEJ4v8LJQ1EdlJS3D3qYHx2r9/v3rK7VEfJeNEm3jTvyLwv4x4NLLp11+b55mcP32zDfBqL1Lus2prU494SlzJykAZAGF9IyOX+Bmn3u2QxkJS7z4Py66t+uTTYqDmho37gGcwsxeWruyvS7nPLxZPegwOEjYJ892RFvbE/f9Iu3vqd+0MctTHP5gvyw+NVBQi/vkwztm0AochBIN2o3Rwbnbof0F2QTWSqqIMAQKhzWWVkIizBeFr+/HmnGrUj3klXpxOb7Df3V2VuOSkfnPIpOF0PpeXO8/UduzkCELK5ggxNhMTtrpHfXm8TJG6PD6NR01c/LcvIdFy+uOTXDqKA3HIiCACE9WhGhidD0ttRKzcuNktdsf32UR9b1vdf7yxrpdLVfgjXBm/mFYBAiqHWJilTSTEQTImnzq4TelPo2Gg+YBh07UhqGOAtQ/26id0fABjX20lvsSwhxS3R5U2AwB0Z13wVFBgAwbzfLWCy/XvMe9npnsxw1E5gQr+vYMAdM8pidrgzv3s7QOjwuyWS+P/Zew+vxvJrz3cLUAJJSEjkTEHlnDu5bd+2fe3rO/PeP/rmrXlzx3duO7vdlTNFQZEzAoESKAJ667OPDggVQaKoLrqLs1atAnR0wi/s/d3fnTIar1DtrJAznW7x1tA699PGtlipb6dWJRTOyLnOWu1XjmVFzYVyGISuZpcWbHoxAt2Ykc8v1UlLPRbZJ8ormtLQIpq+/PB1WCKxdW0yVm03AhB3MAhuqwoKWARKr1NBdZFOr1RSDKdlejGhDALf5XvJbFZ+90WrxiudHAbb8t2LkIzOJOTqqVp12y4fABDwk7+aiGjdmV/cbJQaxw8XuHqc5wxZ+qdHBkCA8SoXICzHM/JmPCJdLU65dSEg1SfjqtMdX8vKt4+WJJPZlMvdtbsDBLObo5nmGImnpdphVQtYlVu+crFGJ2sv0uO8lD7uswEsSD0zW0aYwTS7MggoPvxr0bRStLHEhlRWGU2pPknyK7+uNjZy6ovtbXFJW0O1WqxmQ6RyAEJnU7U21IqupuWV0rYbUldr003wKS9htvByLC2WTYucbnNLe321EbCVE3ld6GJwW4U0R4ABEeSZ9ZwCC4SrGaRoAoQ3E1FZy2wDhBMGQQRK9rvnIRmfS8iVnvIAAnEcv7zRoMFhJwcxHTn50+OgDE6tqYsB1+NhGAQDIPgV8J4cIjAIAIRsCQAB1tEyMBLLMRkIZASpNmhKZmVmKSWrCaKTTwDCfguL8YGKbapzSpPPoY2VimMQtlwMeYCAMMXHRsQ4FGPeH/LJrl90FZQWwtE09omgJ+K/HIDQAUCgRINFJBrPyNRSQmJr1IL4tDEuTAGxMQTREmVvMlz8XwgQqKSoLoZ4vpuj3Yingd8azqc53sUfbKuUE4Dw7nY9AQhHJ8JOAMLRjWXhlUoFCNrNkTTHl5rmuC5OR6UyCETk949FZS25oZYDCu/k2H0E8l4YoX49B5kfva0uLblrVj/cEYNQABCwmLVgUGHFiiO1cwudJrs5cMp1qhzFKtjbkUSpb4YCgMrxPgCBK/B9iyXvGPvEQS7g31yrphvMTFAqBghkJ1BuHbBAOiYCxeGolLnFhKY5njAIe++DE4BwFDLCuMYJQDi6sTwMQChIc4zkFsNp8XmsGrn8eiyijVkIoAnU2rRR0KfJf5c2QSgifLaD03GhZDWFkvA9ms0kiwECChCLbiWW0bRSUso+aQZBCSqLBmf5vUZgnNkl8/AMgkXHmNbFmcyGUbymtOn8iZ6VE2tlhbI0FKAh93k3gEA3R/zopIgRPEuBGdJPadwWimR2xCCcMAjHh0HYNjK246FKWcjm97QSakF1U77LZwosD/Ad7XVvswqi+fWDrlP8vB8KIOx457xxVvhsxnPv/e6F3zfHyRTgh3GzFY5TYUVaZfnKuGDxc+01/6UyCAAEbeLY/zaaI02PcqpYF8/eRrTAxGeXAuKw5iupmbxvcbBXvp7/NoG7bZXuXHzKU+44CrsyG3GQxsV1znZGQ5YGULauUWiV771NNM7C/Ljw2QrftfDzPRI2jBwEi4wvxOXxYFhun6uT1kD1Vq+DdxiEjU0t3DE0E5eKypy4HNZ8lkgpW/rgc/biBQ7+pnHG+37/oPu8c/2cSDq7oa6A7uZq6W11qzIz8qEP52LgHrNLRvZIemNTqt6j+uFB7/Nj+BwQWpHLSUdDtaaCovzN/bczBsGmQYrJdFbTymB1cIWR7jiZb9ZUqouBuaNENIfd4VBG530OrkVzMEpL04L7Qx1m5Ux2Ak25zKJWvA/3JwiWg/LZlNYuPD4Gg8Dz0gyN3h3O6mptHLZfqXbzeSnpTbdQu92uvUU21te1aRvVPrPZdW3mRsZAdXW1lvLerbgX59INljLj9Ghxu+nkapR1p/cI16PFOzNPe/dy5u2oAQL6jTLqPBNKht4wPGcyldL3t1mNdGjmmGenzDljw1iaiprzGWvKntOmnvenSR2/a48U7WRbXlYa63p5eUXcHrdWauX6q2trUlVZpWPGM+x1mGCGa9BwzmF36HPsdxwCIMRylPfER8kCfzEaVQvi1rk6FSRbDPgedzWLV6hAZ/PkNTwDVYjGir++A/HklbI5EcZnO9FIYc33QtRqXDePVAyHaWkOZ5Bi/mRDeG1nQpQjfLS6qohaVxSZutbr1UC7/FPtSHNs9js1uv7BwIq0BOxyocej2SOlIaBynupHdC4lZtdz8nYqLmOza3K2o1baG5xq5ZZbB6GzqUbX3+xyUganYuL3WqWdoMdSc/QP8rrst7b2Ss05jF4s9z6F073Ld9kvweWUzC6lNB33XKdRt4C/73Qx2LSbo5nmiEzIZo06COPUQQglpRSAgMCcnp6R6ZkZbf5FQylajSNgzT1uWqcI2cKeHIbQjamridbXKKeVlRUZGR3XDpqnTnVLc3OTvrHZZ4T3MCtUptJpicdiKqxRbmbvEt2P+d4fnE+lPVPgowRoosXvdEIdm5jUfhx9vaf0GUBT61k6l05q4y7WJe24Ozrad1h5PzRA4B1Q8k+fPldFdaqnW7q6OpU9Qy7VVNdIJpvRJmEoGt6Jhmrr61mxVFTIy5evpLKqSk6d6hF3TY0sLi1pJ9aZ2Vnp6+1VJWX0YMlJS2uLjqfh+svpnmKsXr8ZVAV55nSftLW1SjqV0uZus3NzMjw8Ig2NDWr8Xbl86UDlVbiMjxog2KosMvDmjQwNvdXbtLa2SktLkzaOq6cnCsG5G0bMXTy2KtlsRuLxNens6tB26oALFDAt3mmUduPaFZmdm5fnz1/q9err/XLh/HkFFIyZqajN8ttkZKEfk4mE9lcBTKHY6c3yeuCN3Lp5Q5qbmuTBo0faqwUwxXx2tLfr+NKrhaZvOvYVFZLNZoXuvtFoRIEsLeJZw9U1NfqZx42ru1Ji8VW9j9vl0mdaTW6UFKQIo5tMb4rl2ZtojuIJdW6bWK2V8mw4rADh5tk6jWTeHyDkZHklJGurq7pw2MyZbFZ8dX7x1vq0Q2A8HhOPx6svYW5iBn9pMSjVNW7tVsc5sWhEm9HU1vrEbnca1QgLqC6QO4PASzPAJpI3ot1zeo14PKrNc3y+wBa634sSYsITyTVxuzxitxlFNMyATE2bzFNNB6laxRY5keklAyBc7/NqKcu9AALFZp4Oh+U3txvkfA+Fkg6jQQ56qh/f5/OhpPzHvQUJuO1GoaT1wxVKYt7uDSxLZmNdfnu3SVqI2D8ZYo0l+MuTRRmdTsjXVxvEQzO2ojRH4g5gEykZDsVILxZKKZPmSLoe3RzvXqjTNMe9XAyMPwrp2z/+WZaXl6XvdJ+cPXNa/7a2mpCKyiqRHAK0Rvz+OlkMLqqyDgT8KsgikaiMjk2oULxx45rU+bxy//5DWQotq0XV3dUp1TXVqshoi+7z+WRtbU0VZE21U63ZgcFB6T11Spth0bIb5ci1UexNTQ3alCsSjkhlVaUMvR3W/X/71k1tpvWP777X81pbm7WVOnKGxlzIFTp4rqxEtPU3CvHKlUsfFSDwHi9f9svY2LhcuXxRAvUBlVvDI2P6Lp3t7doWfHExKHV1ddLe3qaAYm5uQbu+Tk3PSCQalcbGRunsaFelj3Ki7fzlSxdV0aHAaIN+6dJ5bR1vNgarrfXI9/+8J3Q4ONXTo63QUbZDQ8OGFZ0TmZyeUjBnsVTI3ds31VIv9ThqgFBVsSl/+evflfHw+rwyOTUtp/t6VXHCFjAma4k1ZWBQtNOzs/Lieb/8yzc/F3+dT0ZHx6WpsVHPSWcy8vndu9L/ekCePn2m7846A2jxP+uHv6E8Uep0vY3HV3XdBBcXpLq6RsElOuv16zcyv7Ag/+33/yZNTY3yX3/8s+rJjQ3iAp3S3Nys7BBsVX19wAB+LpesLK/I3Ny8grSeU90KiBUQwCbFVqWvr1fsDptMTExKaCkkFy6cl75TpyS9WSHfPjw4i0GDFKmD8OJNNEfUMjUQyGKghGXJACGXk7GxYXnV/0yqKiulra1L5udnpaGxUXp7z2pHutDyktTXN2jbW0xtzguFFmVoaEDOX7gqgfoGGeh/LisrIXE42PB+aW0FNW0qYHA6nTop8WhUFuZnFSG1t3fpICFEOFiYz589ks3NdWlubZe21k6lzJgst1oGG0obgZoRKCxeNk06k5KmphY9b3NjQ1wujyLHdIrv1erzvMtW7FzipQCEkbmEXO3xaEEZmIaB6Zj86ma9nO44qaRojqZWUnxAJUWbXO55j0JJWklxUTyeKvntnUbtKXByGEFfVFJ8OBCTLy/5tTHTO5UU8zEICDgKp8HsUNaW2AUYiFKDFAHfjx4/kYWFoHR0dIjPWysvXr4SWkmzZ1HsyAEU7MT4pEzPzEpbe6vuWZR9JBpTxfuLr78Sm90uf/3rP+TihXNy+nSfCtpXr16rAkRQYxVh0WUzGeUDXTUu7bzZ2tpiWM42u1qBMzAaWMZ9varw7RgSXq88e/5S6d2vv/pSBe7Q27fy1ZdfiB/AkkrLwJtBBRHWKqvUN/i1jXcmnZG+vlNy8eKFjwoQUPaMDUroN7/+Rp8Fy/3Jk2cSXFyUgD+gcs1T61HjymarUiU9ODSs3VQBTrQKB6DFaeHu8SggCq9EpK29TRWT2dEUAMf9MBh7urtUWX777Z/k3LkzcunSRb33+PiEPH/xUkEGVjlzZAKEW7duqDIu9ThqgFBZsSF/+/s/xG61qyL/45/+ola6sxoFXimr8TUFSLjD6MjKGgktLcvdz25LpaVCHjx8qO3uAbWM080b16S/f0D+ee++NDU26FpivCyVFTruc/MLkkompLOjQ6w2m0xNT+kaslptCrySqaS6OaxVVTI1PS0///pnep0//Oe3EloOid3mUMCwsbkh9X6/BBdp+R6XujqftLW26lhTgoDve7xeWQmvGHNVUaFGOoCBz5gzur7euXNLWaHMRkVJDMJ2DMJILEfRBPq/kwP9YsRwMZTCIFAuPLYak2dPHyhq7Dl1Wh4++KcCjaamVmUCsutZnQhYBpQ7RzwWkYXgvNy+8zOpDzTIwwffydpaTP1VTmeNNDe1yUJwVpFUY1OLhMPLCjYmJ0bE5fZId3evshSpVFLP93p9cu/e35QGPNV7RpyOGpmbm5ZYPCL+uoC2UU4m1qSislJaWlqVOpuZmVbw4amtlaXFRf2f+wcX5iWZXJO29i7p6TmtyM1sb7zb4j4UQJiKya9ulQ4QuD+CMbS8LPY8krRZbUbxqi3zmIAisgAMGrfQb6Y0qxjgjL+zkBaXQkoHspGhu0wK1gyUMQN1FM1ubua/ux2xWhjIU8i2mGNV6LsrRSgQDPd/KLVcfRQA4ehLLRubOqWClXVTqj8V8Mo/GDTGhJ+hAI1xxsgwBDXXKyUorJSx3O0cSlfff7UsjwZjmlfuq3kXIMAg0PqdLAb6LVhtFUbLV4vI+Gy+1PKlg9MceT8UFVbXQpC58Khlw1pbja9KfUO9jE9MSEtzs1L2k9PTUl3tkIDfL3U+nyRQwtms3Ll1UwH6n//yV1Xs/AsuLCrYwGpFsCIAEYYIU65Z7azW8YQWnpmdk67OdhXeg0NvZX5hUf8OG3DtymUV9PcfPlIlee3qFXWJ9L9+LXfv3BZ/nV+WV5bl7dsRmZ8Pyko4rKCA9Q0AOtP38RkEANCLl/0yMzMjFy6cE4fTKfNzC0rtQ2fD0jB+jGkqnZK1taS6GXgvQA4GWHNTs8roWDS2RYvDkjQ3NyoAQ2myLnt7epQKX1palm+++bmON+CEz7o6O9T98HZ4RBYWFlRWMaapTMZwB+U25e7dO+Jxu0sOvDtqgACD8Ne//0MZhECdX6Zn5sTr9QguKY5oJCItLc3i8dRKNBZT6585R8GznodHRsVmJS7Ap0oaxun1wIA8efZcrl+9Iq0tLcooEOPQ2FCvjEQmk1bwVlVplUgUXVQnTU1NCiRwV9HRlfUIm/Hzr7+SxoYGXevJZFqyG+sSqKvLu0D8EgwuKeBFHyF/uB77BblRZbVKECZuY10a6xvUEAdoc8DIwbzdvn3TYEBSmwcDhHwlRWIRLS8HYznqHriqjb72VKErGSCIRTY21+X5sydKlaO4v//+r+q3Y+GwUFDKXBfhCHpl0EBhIPrTZy5JfUOj3L/3N1lZDklHZ7f4/Q2SSadlZmZclpYWpb6hSS35hoYmGXzTL4H6eqmt9UowuKCuht7eM9LW1ikLC3P6nbXVuCKmtbVVHUgQG0I5EKjXgeQ+AAEmnU0Eu+CucUnfmfMyMT4mg4OvxOdjItvl3PnLusk+NkCAPu3vfy0LwUXduFhSoEOsAig/3oExon0wixsUifDjHVkoBMGwEUD+KCr8aANv3qoVdeH8OfH7/Xkq1qYbHcGQTCTFarNKPBZXwYlARhCnM2llg/ifxUpgDYE90GWszOWVFZ1rhMZ+ATbFSuw4N2tiHOfnF3TcsEih9NjsHABj1rrhqzV+5zDdaVjRKMmO9jYNbILyjUTCOh+4sgiOwoLlf9Yr/7aimfGZH5F/pJRmTQAE0hwpjuTz2DRYdDW5rq7GmcWE0YuhhDoI0PxjY2Mq+EKhFaVGGZamxiYNwEKwvR0e3hJgAC8oaywohBjW1fj4lFy8eF6pfnzsuBiwuFTBLa+ovCEwi9gG1jQKa3hkRP3EBOAxbDSeYs3j6oR1yFksKkDxwSOYodwnJqbULfHF53c11uDe/fs6d9DpG+ubakho4N76hrS2NOvPAATW95Url3cEpf3QMQg8ZzgcUasdpYMyNuIo5sVT61aLdWJySuUvsRtOh0PbjcO2wCqwj1GYrFnGD1nCWo9EIvo5shPZgiXN+46MjEk4GpVvfvlzCdT7ZXp6VgbfDKmVS4wC34tGokrZI1OId0Dm80xnTveqTCo1Mv+oAYIZg4CiRz5ihft8tWqZo1yXlpbEHwio+6rO61V6nz0PI8CBDMbVUOOiu2SVnDt7Wubm59XQOnv6tBpZs7OzyjghB3FvIY9x18Ag1BKE6HLpOme9ra6tSnItqfKAcYeRYHxYw8SOJJIJlauwMNFoTM9hjpgLZKzXV6t7xWB1chpLApjDZc4YJ5MJfS9kDzLl3Nkz6urL5qoOdjGc8WnwfCqzLpanryM5OjwFvHbNWng2UnoMAg/CYnv+4rEutq6uHnn2/JEGq0DVs1AxXUE5dXV+8ahin5WaaofSj+cvXBO/v16ePLmvIYJXr92QXK5SXjx/JIlkTGmfGpdHmltapb2tW16+eKzgAPrvb3/5o1r5n33+tQbFhEJBWV6el7GxEUklMkodNTa2qNsAgdzS2q5swh//9AcVxrhAYCmgNbEoTp06I7NzszI6MiidnV3S1tYtTc3tGhyyn5vhQzMI3Bs/7Z//8jdlAa5fv6IRxmx8hCYKi+YuIFgsNATz6lpCNySCFLp2fm5efY3/13/7vS7Sf3z3T1Xuly5dULC0kFd+LGrGls1CAAyWVzgSUSvrt7/+lQIGhCPIFgqTjYDgAKXyu9sFfflWLZF//c03KiRKPY4rQGD8l0IhefDgsSou1nZbS6sKvWiMMfIpZY4fEfocIQ1TA5hzuV0SDUfk1esBCQQCOiewBgTdwQaxdtgXUIX4EqHiT5/pU4t7dXVNFR/g4ShAQikAgf4MMA2cS4AyGQ1zS0mtibAcy5ac5oiCnp6eloX5oD4/lhGKB8DIGPE/ApLALYQdcgQrl7+TpcCYT03PqqGBEkf5jY6NK/vAegOAothRYs1NDerz5bvx1VXdr7gcMDKgtE2BPDc3p/EPzA+BYjNzc6rwEfYI0d7eUzruzBt7CMuP/YBw5pl5FsAHP6MQYSoIVCyMWv+hAQJ7i7HCKEAxG+yITRUzMhcLGCAGIDtz5rQCBMaIgDwyHgh/Moy4CvW9m8AWgwrDzjA+NnXcUf5j45Maw4GyMWPKiAWBjgeQMBZYuQATPgeIIZthyQxjrfTGaUcNEMhiAIgCiADmuJpRqACsl/39Egotqw5j/Xz5xedqGPIuzDXvRWYHYJS4FWLeiHdhLfDPZAcBj+xtgClWO+uUfc4a0wDPSotUVvD9TaP/QRJWZ02c1U5lVzgf+crcMa/sI1xEzBnrm/XJfOESR8ZyX+aac212mwIf02DhuZ4+eyEzM7O693C53b51QyxVTvmvEmIQtl0MQ9HcanpdauwG5VgOg8CCgn6em50SCgYTCDM3Py1utxERzMZGIFI6F1dArdcrszNTGqfAgjl79pI4q2tkdhaK0SktLS2SSmZkcPC1xOJhcTiqNcCRSGis+vn5OVlbjenifvH8sZw9e1GuXL2pg4xiX1lekmqXSxrqmyUSWVHLobmlXZ8FJFtXF5DXr18oBdPa0i6xWEQ31OTEuCpK4h/CkWXJZtLS2dWnrIVRdnrvLPoPDRAYYxbNyMio+kIRTCxSKFsWPAuEiFXGvKW1WcIrKzI4+FYFIQi0salBEStK/99+96/6M764SxcvytUrl5SWffL0uYImGBYENqAPocIi04CuSFhu37ypfjWsOJAsAppIdeYN11FPd6f66F68fCl+n0+++uoL3RSlHscVIDAGb9++lbfDoxppDIDayK4rnfqi/7UyOSgaQASuG0BVW1ubjI6j0GLS2tIqwWBQFa/H49JNjgABOeM2g4mprLLK/Py8zmFDQ0CVJYqpq6tD2tvaSkpbO2icSwIIbqvQuA1g4LRVqQsrkV7X1s/TwXyhpBIYBFPRIFSxohB8ZmYSxasMxWY8MeMLQDBT80wL04wvMl05qpgVuBjpl6ztwmubLhv2I4Ka+6HkAFf8bN6H6xHlj9BEoHJfPuN/M/PKdAFxrl4r754zFbI51sUpbR8DIOw378hfFAqyz3QjHrROdvtcjZTFJY2Ib25qVOVUKhNwmPupXvmBSi0z94DCheCCAhvcA7BH5aYrHvY9P9T3mDMYEGVBKipURsHcJ9K5g10M+V4MWgeBds/kocMeFKY5lhKDYL6cuZkZVPwgxkYzaFatcGDBV16hGxp0ShBglZU8U0eenjWEREUFflhDIcJAgDiJADUFiPqBE6syvzCnAKCv75wEAo2KVIlHQECrFeJw6s/QuGYuKygZ9MZ1zQ2PoAA1QscwoCAyg0JM68+lUOQ/BEAAoUNfQY/hV4VebW9rVeYDfyFoGHcDdBTCDWYB6h+rBxcCtC4K7Ze/+FoZne++/179YgQYYWXgK3a7anQhwVYQpIO/F1S9Go+rX+38uXMSiUWkpalFfwccgGw5uM+ZPM0Gg0CcxOef3VEUXupxXAEC6wHab2BgSK5evSz1Ab8qb+aCCO9YNKoR4NCDqXRGZufnlL7E6mJz9vR0qUICxAWXlnS9MX9Yt6xzaEAAF/sDixSrZXxiSv2hN65fVbBwFMLqQIBgdnNMZGU5apRadtiJSypIczyppLjvcj5uAMFM8SxMIy11Pxafh1zhMGNlDnudUr/3QwEEE6QmUwT4WXbUvij1WY/reRgi6ATm36zpUWodBKPUcj7NcSWa1up/VZUWTdUrNQahEEmbgWomCjc/K0SaiuorAAIGgDD9tsWBcdBSmm+b29yy3s3gO4QtKZFcB/eBeT+sBS22RE40baorLFJpofiTYa1xb74LSDAtAaP8rGFpaB0Evpf3+RbmT++3AH4IgIAlgOLFpwsFBiCAjgY8wZ7gNgB4kc4SWllRSgsUDNJva21R0PDsxUvNRyevdmpyUn+HPSG2ACsDRqChwZ+PZM5JfSCgNDfXHZ+cMK5XXaN+L2ISoHyxSvAbA2DC4aj09XUr48DPN65dNVJ9SjyOK0Dg8fHbPnz4SIFRQ31AheTMzJwCJHUT+OpU2fOLw2nXtbsYDOln3T1dOr4AVihqV021RvPjpyWzhsjk9tY2zdTBJUPw6bd/+ot88cVduXv7VsnBkAcNcykAAReDpjkm18VVDRUqEoqktQQ71VYLuzmeVFJ8d8SPG0A4aE0c589/SIBwnMfhqJ+tVIBAVWWIA62D8L4AYX8FahYxMhQwx1YQlv6Sr6KY5xxR4oUR8u+cn7+ZqcjNc7e6KOZz3rWuQb6MsREdbtzMdBfseIb3mIVQNp5uAAAgAElEQVQfAiDA0BgVthJq3eOewRI16NRN9aXxXpnMujIpAB71i1VUqCJibPC9EbUMswD1S1oMFDdgwygYE9dr43slUh/2xgRwKEL86qScEfNgBoECVngWfGUoO2IQtPpeKq0+NfzJpR7HGSAwDvgSySnGDdMAeFozwBOBXLgH8GMDtihUA2onOA+Ahi8SgEcsBz5tQBbzyfoENABqYVoYPxgv5hl3BgChq6PjSNgD5uBAgNDrE0ot4wpBOGMsUGo5FE2J22nVegjTWgdhu91z4qSb447lDUD45/OQjJ10cyx12+953la756k1+fLCIdo9xzLyZsJs93zSzdEc6HLaPWs3x/5hKiluisNG/uR2JcVyXAx7rwaKGBG4EdKsAre7VrwEh2jgilHyzfTxQ7EicOfnpmUtQU6uVwKBhl1rEWwpe/hy9WUCKoj4NmIicDlo8E4krPELLpebhECjotFWgUZ+Lqy3fLg1/UMAhMM92Y/rW8cZIJiMk6ZE0b3TblfwpH018tX3YGnaO9o0yp6/FfrfOdeohrZdstZk3MzURs4BSFAxsMpapRHHBKMela+3VIBAkaTVRFY81VathQCbSAYCVS4LKykOTEQFgPBvX7RKncd2UoyKeix5gDA6uyZXT3mVlaXA1IOhFWlvqJELXR6JxDNayKvRZ9d+N7TU7h+LSE11hfzyVqP2JDk5kOM5+ePDoLyZXNX+NhT2Kqvdcywjryci0tnslNsXA1LjMJjjT/0AIPyfh0HJZnJy5ZRX3SoaMJnZkIdvVlSH3jjt03WIgWB5+TaWSyaJ0KzSSSk3SHGvAUewIUCXlhbk6ZP7Su+fOtUnHZ09GmGM5UvVxI0NUuTiKjyhaZ8+/l4rOpJB0Nbeo3ELRDzj13Y6iQQ1qnSh6RHK2Wx6K7e/2ol1TPnKUQUFmXRKGptaxVXjVjoYPzH3oSYDRZJqatwaSLdfEOJBC+oEIBw0QqV9ftwBwn5vUZji+D4K3ayDz5ovtc5CaaNbGoOAQqPU8nI0JYFah6Y3JtIbGqQ4tZAHCBf8UmOvlP6JqKymsvL7r1qlnqZuJ4caWH97uiRjc2tyo9enqaLL0bQ8GNwbIMDWvBoLy/rmpvzqbpNmkxl9aT7tI7O+If/xz3mZCabkq8v1WtmTscK1TPEuCvo1BxxyrqNW9UH/eETCq1m5TJNBt00rh74YDYvHbZWfXzca6J0cIngL/sd3c1JjtSpAwOPOensHIFRbJUma47PXkdxiJC3+WpsKhGflVFLcZ8QRcOTG9/c/01TCc+cvidVql/n5GQkG58gY1xTH1dW4rK5G86kjNTI1PaE+XZQ3KWDh8IpEo2GlZusC9ZrZwPYBTIRXlqXSWiWNjc0yOzulpSwpFjI3O53PQDDSWYj2T2hdhGoFJTyD1uBuaNJMCKLvTfdHuYvoYwEEs2Y9aTrEIEBlFzePKXwX0hYJgCPIbr/zyn1/LGPAn0aXv0fO/nEDCBqzQjOXZEqZJ1w2+yltxoE1xTnvM76my6zceTjo/NIYhCq1gum/gCzIZHOysJIUYhPo5ji1mJC75+vEU2OTsbm4DEzF5frpWultd2lDLLO3ifEsxR3QzCcs7LNSqAgP6tJW3Cmu8I3N6+yVbbRb97fi7+zXIa7w3Hd/JkUb5+lKNCPfvQhJjb1KrvT6tCQ1fS32AgicQ7zKzOKaNm/DxYPSwzX4KR/sAbrdzi4lpauxRrqaXTomZgzbQQChzmWTbHZDxudXZWIxIc0Bu3aKrfiUgVfeHb0UTsv8clrOd3i0JQA7BtBVDBAAZMgCy6vBaC6WzKqfkQ3+vIxKivstYlJGwpEVefL4e/F6/XLz1h0FDM+ePpQaF+lvlTI7M6uKmZQ8I83EqA7ora2TaJQOV1Q5DGpaH+l1FVIhNnzr+QIfa4lVaW3rFL8/IIOD/VoFsaGhUYP3KPe8sDCvudZE+zc1N8v42KjY7DSN2RCP26sswrVrt9SdYVK+5W7MjwUQiCl4/uKVZjfAjJBj39bWrlXREGFafz6T0eqSKC3qrtOMhaYpxBPA7nAOi4MUL6XF83m9uhEpja3XseXzm5M6D6RDcl2l0CsrNe+XvNzOfDW1csfPPP+4AQQAGHUkqKxnlpclJ98siqS5yqRj5ct9kwI2OTkh9YH6rYI1xdURzcBX2DMTSxFkazZ44XOKf6FcmQvmAHcZqazEc8B2HRaElQwQspsanGS34gYUrazosFZo/AGllu+crxOfyyaxRFZGZuOyGE6J01aha0FjhHcsAPO33Szi4q5SBwGHQtCxW8vV3T7nb3sBgd3AiXmNYrBQDG52rnLOBiTTWjxnqZDznR6p9zml0iISie8NEC4rxUtb7Q3t8EohKlykmpp52I30I/+een03DajZVOfIdx81XdKGMisFIDCOdCKlRw6yRfPp9sOYP/JxO+jxzTWqRaICTmkJOLeaMVKfYTeAgMywDAzHcvxgs1ZqDrTZzfF9YxCMog9JeTs0IIuLC9Ld06cTNDk5Ji4XtL5FlkPLGrXd3d0tk1MTWrmMQDjKXeKaACCMj42IP0DntC69DpUSCbaDgcBf0tTUpiwERY/o9lZf36gFKSj8AeggdZJBofLUwvy8VNe4xGZ1aInnpRDFmi5JbW3djw4gBBeC8ujJU81xxtVCEZ+WpmbNYkCJkAZJmh1R8igWW5VV3SwoOf7OZJBCBzNDyVGyIcgHxp2DQjLL/5LCxzE1Na0FPchMANiR4UCthKXlZQmFQvLrb/5FG5AcNiXvuAEE2ICBgUF58vSZvjcMAtXOeD+Kw5DNgBAjPxy3FT9T4pbAwkCgTjMfqMnO+YAswBXrczWxplUqzTic6hqnZoyEllcksbamZYipQ7G8TAnhGp2Pl69ea/XMSxfOa1DoYY4DAUI+zTGayMhyJKNUNxawAZxFhmdX1aIDINTWWIX4X1Igl8IpiawZdQcOC14O8z7H7TuoNIBUg88uLqdVZR3UbZTurYPLu8YgABBMMMAYU62R/hcnB+20K8RuNUrGF5ahKRUgEGxrxLeJsgnEL5yMrCgowGW4BadzovpytxgE/mZ5/iaSW4llld4iYOH5IdIcd1vQprCgWMzAm35JrFEKtE2FKS4GJo5iRUwixZLIsQc5AiyMil9x7YkwMkxevV3q/AHx19fLwtysdsPidwIbiTWgol1wflap3YbGFnVZYAHCJFBgiZaYoaVFZRpwW2Cd4W5IJFalqalZHA6jZvlhjo/FIFCJkpr0WO6IoucvXmgxJDIJyC7AbYL1Wef3aQojBXoYHwrM8DmR81yDGgbk5IO4+T7NSujCR2Uuxgi2BubB7JlODAhjS5YC7g3TX/6Ln3+thTh+SgDhVf+AVoikcx911mGjKGyEom9srFcWhbEhPZHUXNYCY0l2AiVQjdKyFVoDwWa36nhRx4LMB1xkBnCokt6ebpmcnNL+AzTFWUskZTUW165zZuvk69euaP33cmpLFK7nAwECPnO3VTs5xtfWtXkbIhWfJXTjwoqR5ghA8AAQNkUBOlkrRqzwbgG/h2EQindh8TX2cl0UWv/l7OTifb+bO6GQQShkJQruQ62X/K8UnKMeFDKwFIAA2DIBxXt46cp56WN/LrNigtPChy0HIOhMaQzeSVRHISAwOhfnR3UPgMCez6c5RnIE0njddqFe9VHFIBROKo1CCBikMBIUKoWSeD76BxikJDUPdEnoJkPY4gaYnZ2Ut0OD6obwef1y8fK1rQZFuCP0/Ar6b69LlkIXVVVa9xrFaAIE3AtY2KSecT+t6qY7Ep8WKYJGA6PDHh8LIFCd7+HjJ1sWZSQczSt2u/Y5t1ZaFTihtGn/atDToOmseGs9CqwokQx1Tf93SgFTPhQwRryC1Wb40mnOQtlcSnU2NjRqoSmAF/UP6K+uHdGcTm1wQxOTw47lcWQQqN9PvfXeUz1aaIpy1YwZLjGAACmJRt35gHZXg9kiFoM1ToojAIzYEFwyVF+k4uTi0qK24YXpIeOBzneUsKZZTrOW/q3U8th+vzGWFGXC9XD1ymXp6z116ODFUgACRgKsgKY5Vlk06A4XgqemSpbCRgyCwSBQo78g4uCgEIDDbq4f0/fM9Oq84OXXcgDCj+lVP+azlgsQPuaz/ijuvQ9A0EqKuBhSVFK0VUkme3QuhsLBMVO5CmsQKKLJw5i96EkqHC6HlhQs1Hp94vUaDXIKrX3TcwlG3I9EQjlqWQTNdNQ+iNsQ6j1m8jAA4c10TL6hm2P74ds9o5xe9r+Wudk5te67u7s0O2Q83yUMQPDy5SulxqGtcQeQa19lrZSlxZACI77DGD9+8lzrq1NGFWBFMCOKn3oKWMx03KNIECCiNl9GmyJJcwsLOpbRaFxr2VMn/6fEIFDa+umz50aBI7dLWpob5c3gkAJNXC/URaDfSFd3pyp2BaX5Wuu4cwCn586d1YYt4ZWwuglgZ2i4BZsAsFpcDKkLA/am3h9QBgFWwufz6vUoshSLx7QM+dXLl46GQdinmyMMQiyxLh5nldKRRNdDEozNrspMKPUOQHiPrfOT/uoJQPgw03sCEI54XPcBCNrN8fXbWI56606HkWd6VGmO7/Ua+D0LOuWZgACW4fC2/ns90Z5fLhUgXOnxSJPfqTTtwFRMfn27XvoACId8IaxK4gYIjqt2OjSTAbwVjoTVuiNWgxLKWP7EeODT0/rzlZX6Pc6hj8LLV/0KAK5cuaLdzYzofSOdyDy0MVE0pqCBbmZa+rrCojnysDB01dOuhGW0cy0e0MWVlPyntnu2yuUeX75gz6b0j0YkGM3I3XN14nHZNBXXPKxVFhmZXZWnb8Ny60yddLe4lIn667NFqfVUyb/eaVKq/DCH+c7j4+P6LJRPxl0zNzevLitiNwALdHOj1zoxCelUWjlNAkMJcGxqblTg8OLVa03TvXjhnLolKEjFXMCU4Y4AKNCCN51MS6A+oI8Le4PbB3BMR831jXXp6OjQQleHOXiHe6+W5fFe7Z7NUstrWQlFjawmjAb8kNZKkYn5hNZBKGYQDvMsn8J3TgDCh5nlE4BwxOO6G0DQbo5VkiQG4dlANLcUSUldLfSoRfNLyy21fMSPvONyxaWaP+S9DnPtUgDC6FxCLucBAtHKT0fC8svrAbnQUytV+Xaih7m3lqLexM1iBPNw4CdHyRMgCmOAH5zmVnqAIAj6UXo4p4zD7Nycuh9wH2iNCT0Mn10hI8N1OcxztgKC6bmRB276HIeAcNxndjEh//UgKPW1DrnY7VWwSrR/WQCh2SUbuU35+4uQuGoq5XefNUqt63D5z2YvEaMGPZQ7fUGMxj64tOh9MTs7o+PZ092jcR0AK7PwF3XQibehyiL/2trbtJLidnGwfJ2uvK/aKLxkxM0UM26AFf5poaXKwyVrQRfeexWSR2+i8rPL9eKtMZqzUfBoMZKRa1RSdBnlVYn+djoqhUpquH5qcTFEMprJcOe8b4eL4TDr9lP4zglA+DCzfAIQjnhc92MQcDG8GIzmIqtZjUxGuB1VkOIRv8axvVw5AKHZXy3heFruvV6W9kaHXO6tFTfBYIbuPdJDWwTnO9ntFYDJKWYvC5TbxzqgsYcmYjI0tSpn2z3S2Vgj4JFyAUJXc42ClceDK4Lb7Fe3G6SxbmfU/14haYqf8klxu43EO1nyGt1P9D6gabv63Y7z8n3ZOYkS1nQ83S3ErtQwvL1C/gr/vts7MM8UjvnniyWZnEvJV1fqxU3hmV0AApH0gDOCTwEtkXhWwYKZhnfCIJS2S04AQmnjVO5ZJwCh3BE74Px9YxByRjdHLAV7lZGP+3w0qumG75vmeMSvcWwvVw5AwMWwnt2U2VBCRufXlC532Izod/MoFvClZJDvOTgH5f0aUkyZha1eFkUXM5+n+PkOMyF7KTKUEv6ujvoa6Wl1aRoOTARWczkMQmcT6bMiFP56PR4Vm80irfWOQ8dFHPSOhf1A9jrXOEeTuz9imhUFj9Kq7LsbaqSnzS1VFUZfktcmg6AuBuobUEkRF4ND6xuoS8ciMjqTT3O8sDNI8aAx+lQ/PwEIH2bmTwDCEY/rvmmOm6Q5wiBk1FeL1XnCIJQ3AWUBhDqKNNFVUmQlnhbGnYhxI8Vp51GsmAs/Pexn+73ZXtfc717ljdR2EZ3iEjW8PT6vQK1dbDaj06d28ywTIHQAEDYNlwfU+HwoKan1Db2W3jOfF73Tyt9q56GvU4ypzN/NnGqjuZhxGKDKaGee994U/L1wdPhSvhtIQZS7eUMd44KBLsy4NcHjbn/bAm357+qzmi1GCtqOsN4oztfkc0hroFqs1m03xRZAyKc5rmqaI4yikSUUjmek2lElC8spLTpzwiCUturfFyDsxRaVdvcf4CxSW3eRW8V33ld+HEK4vA9AOMTtdh3IkuXvUd3wkNNZ0u33iEGoceR7MTwdoNRySvykOVor3gEImD0qYD/t6p+G4DcVw2Y+R7egOhfCk1bZ1/u8WsLSVDZj86uyFYNQ51SLzKD2IZy3ae1ihFDyItxj8byv5V/S4jrEwt31ukgaqhIqeDJG+X0AgqnEocopF2rOReHj7vYcR/XOu7kRyh2q3dwOW2Bln4sVMlCFYIdYF9KYgSlGpUzjIoUAYbub46bGxtAPPhhKiodSy1FiEPZIcyz35X5y52+PdOG8lZPmeHAdhGInlymR3oXbO2HuFpzNj/penGQRoN2SdqXQkIXSsfh+xZN90PNun2+m0hZeoWyAgKx9pw7COw7DXcZmN4hWvLuK37tw5+/23vt9vtum2G2uCu9pfmevMTU/376vWVti6y8HpTn2D0dzNGSptpPFsCkvCkot2234ITdlNbkhidR6/m5HJUaPWkp8+OfiDuSH47/FNbBlNeZEratSAQLCmUIz6fUN2dgwq8HuphL2Um3m3/dSI7sJj8LFspew2WvB7bdQ91Jbe6ngd5+dKwBOaTFsWsrvCxAACbjK1jGfCx9ltz26l7zYT2YWL9/CqdhLDuxGT5QiW/eT0bs9+y73qbRYjIDYPIuyG0CgUFIyva7FkiiUomWAM+uasTKxkNBSwIUMggKxfNDrUe/mH9P1zOVljqkZzlMyQMgzSASSZjTIuATT/IMM0IeXoaU8NmwassB2FJUU6bKZpcMvLr7icf0Q73sU5kEpo1TmOXlGESMBWYuc1Sfdx8WgvRj638Zyqcy6OBUg0IshosVS7pzzC/JkZikhw3OrGjRGlsNu+KXMR/1Rns6bo9SJTieg81xnrabkmZx0qQABC5lYj8n5NVmMpg3d9R6Fmn6Ug1n40OoS2NTytD0tNeJ12d7bxcBwBsMpmVxIGKk6FqMV+Kd6EIzI+7fXV0t7Q7WyV+Zw7HQx0AUvLcuxjLp77FYjLqmy0iITc9tpjlRS5KD40uJKWvsymCBMXSWf0KGvq6ArJ46qSqn32RVcGdX7Dqqk6FMZi5uRuJmJhTWjQc5uPsdPaUw3RftY0C+gvdGZb9RkDECpDAIpwuiz+ZWkzCwm9OctOfuJyoIcsYa2CulsrJaA12GU+c5R1rqo1PJWmuOmWHAxUE/dj/+3qkKtYADC5xcDEoqk9Pd6n03OdFLC12y1/Amt1h2vmtNAr5cjUXE5jHaZRHjj9y4JIPidmkI2OBmTpVhKGusc2hL2kz5yolbrVDApLkelpjgiYLW6Zplpjp1NNaqnliMp6R+PSoW1QtobnGqNfMoHaa3zyykhW6m32aXd8TTLRQqCFElzdFu1WBo9Wey2Ku0NQDdH4hFMF8NtbdZESeYNGZ1d1XXvsFcqmPjEsMH2koIR3MhJIrkpDqtFznfXKsBijCPx/Xox+FQ4L64kdb0iX1sbjCY6n/KBqxGdFI5n5Vy7R1oCRhVYjU0qoVmT32XTAl/TdMmcXhWvp0oafQQrf9pygP0cXElLfG1DLnV7pbHOrrprr14MaSPNMZJjInYEKW5symcXAzI4EZXxxTX5/efN0tfu/pTX7Na7o8weDazI/f6IfHE5IA21tIrOaRnag1wMzX6nUHPiu/5luXWuVq70+aTaUVncAu+TGmeUCgKBKPnvX4Skq8mlFSb522HSHNFSj4dWJJ7Kyq9uNUhTwHmIygw/vSmI5NMcZ4Jp+dmVeiEICTarsA4CLgZYAU1zrKjQn+lGyBqdDxGkiIvBr0BifHZVXo5F5doZj5zp8GghLo5PESQo1MptSjiWkb88XRJvjd0wHkpo94w74s1YRGKprPzsWkCaA848ePvprcFS34g1tJpcl28f0mxuU+6e9+saZF2WBBDcNv3+y9GwVFkt8tWVgDYf+7ThgbE3AaP/+35Q/C67XOqp3aq5smc3R9Ic09lN9alvlVoGIFwIyOuxsCytZuTfPm+WjsZ8sZ1SZ/kneh7sysB4TL59uCi3z9ZpdUQstP0AwshcQqikCEAg0OvleER+fbtBznRSavlTX7aGVgmuJOUP94Liq7EJXe4OUygJyxiw9tfnNK2qlN/ebZRa9yfO0OT3IeN57+WSFkr66nK9sgCAsGKAEE+uq9Xrc9uUFdCWrxaR8dk1jUG4e9EvLmelDIxHJRRPy7990SLNfsdPdLeX91oI2T8/XpK5UEpu9HnF67Irm/VgaGXXbo5Xe33avfHVWFiqnZXyy1uN4oI9OxEJysh8+zAobybX5OvLfnFXW0sGCAG3TVbiGXk9HpGOJofcueiXaufhKqqWtwKO+dk5kXgiK//5ICjrmZxc7aXduFEvZwdAyLsYCFK2vByK5qJrWcOfLvlCSRugtoAMjIcltJqR350AhK2Zx0eIcPzTo5DcOuMrGSBc7fFo0R4AgvZiuFkvpztK78WANU0FPy1zXFn5Xrn9KFGjct+m0XOBHLiPfGip5QdB8ThtcrkHgMD7llcHQUstbwIQFpVW/M17lFouHg7GjKqK5Y4/44w/lJLLjLM57oXX5+/M6Yc8GM/7r5bl0V6lls00x2RWXREABIQHzAP1EGj1rADhgl/bQAMsUtms/PaLVqlz27YqSJp9VY4irob1yfGh16d5H7OC5WHnAdnw/cuQjEwn5OqpWvG5DwYIBNC9Go+Ix1Ulv7jZKDUwiieHxmX8+XFQBibX5MuLftVPpTIIAATiaN5MRqS7xSk3lYHYLmb2KQ8vKcx/fLQk6fSmXO6pVRfXOwDhtE+BqgKEp6+juWA4aQQl2Srl2XBYhfMJQNh9GR0FQKAXw69o1lQiQECp0PVvdGRUql012tWPtr+lCmG+T4lg6vvzndW1NRkeHpFYLC6nT/dqCeC9FBRBmfQWoP3zQYIa5ZDJZPQ8ygKXcxy3bo6Fz8570cXx9cCAjlNvb6/463wHjgfXoF10KLQs7W2t2i+DeYzGYpLT8smUyRapq6sTb23tBwVrO7o57tGsCTcjoAzXAxkPyfSGzC4ntIDSStTo5lgIEBKZrPzui1bxewyAQI+PtURCXDUu7RJa6vrcbZ0AxlifWNOMzYcAUMwr+4KGWBubG9pdk74Yh31uZMN3z0MyrowhAMEmy5H0vgyCAoSJiLhrquSXNxry8Tfl7Jyf5rkAhD89Dsrg1Jp8AUBwlgcQYBAGxiPS1eKUW4DaE4CgC4WKqt8+WpJsZlMud+8NEIgD08BOmjWtpdeNNMfNfLOmE4Cw5677GACBDoD37z/UNsy0Hu7q7pKN9XVZS6xpe2YAgJueCw6HhEJL6mtC6ScSSVVGCwsLKryvX7+mQvDV69cyOjKunQPPnO6T6ppqCYfD2oCottajAAKhWe10yko4IkODQ3Lt+lXxuN2STKUULKytroq1yiqBQJ2sJZKysryi7bZnZma1cdPly5fE5Sq9sdBxBQgmOHjy7Ll2XGxuapKe7i5tK86Y1tbWitNh16ZN6xsb2rSJ4LRQaEXoeLkUCsmbN4PS1NQop071SCaTlZWVFQUNnFfnr1OFxO+13lrp7urShkzJZFJBFg21DquwChdxqe2eU6Q5pje0cBXuL4JqSe3VZk1LCXUxVNsq5c1EVNbyAKHObdX3pHsojaXOnD0tXV2denuAkFnO225nrW5qh1DejdbYWdbx6qrMLwR1vbS3tSnIHBgYlPGJSalvCMjlSxd1bQMauIalokJBK9fi2rTQRtHT8dKMzObeNLjifNI1M5y/vqGNxZaXQ9LY0KDNxUbHxuTJ4+fiq/PK6b5ebW5GB1T2lAF4aaplMdrIZ7OaxUTfDcBLKBSSlpZm8Xq9+q4nAOHowMoJQDi6sSy8UjkAIZPNl1rG/+CwV0nWbPd8AhCODUBASC2vrMj33z+QtbWEXLp0QQXW2Pi4dgxEQOImoFUzHQcnJqZkcTEofX19+r3selZbDS+vhOX//u//rgLzb//4TlpbWuTK5YsqMAeH3qqArvN6FUAsh8PaZRBFBVB41f9avvnmF5LNZBV8NDU2yMzsnAr2trZWvQaNn1xutwp2j8clv/nVN2oZl3ocV4CAohgZGZWBN4MKeuoDflXYI2PjMjT0VsersbFR5ubmJJXOSFNTgzQE6mVsbFzWNzekzueVickpVTaMm6e2VtLJlCpBXA9mitzU1Ix4PG7t2Ehr7kgkIi3NTaqwjsJ6LgUgEKQYXctspTniWtC0O+ogzG3HIBQDBJ+rUoZHRuT+/Ufi99fJlSuXFeDQ+TKdSqlVzrrppB24xaJr1GqzSnNzkywGFyUSiyqI6urslF/+4uc6lv2vB6SpsVFbkjPes7OzEonGFGgxHkuLS3lg7Nbx5X7XrlzWtuQ1NS5ttT0/v6BMj9fnlcXFJZ0DQPPAmyH57M5NOXPmtDx5+kwePHgst2/fEL+fua2QxsaArKyEJZVKK/CtslZJY2OD7je6mrIGANGs9S+//FzOnzur+/AEIJS62w8+7wQgHDxGhzmjVIBA2jm4wPLsTTS3FE2rH9FamS+1fABAMKk5/i/Fh63nbxglb/cTdkaVJ6M7IRLFLFKR9Y0AACAASURBVGNxFBbUYQZzt+98DAYBZU1HwMGhYWUEGBmbzcieiEai4vXRFbJKrX9AxPDwqNTV+bThzqmeHlXgfP83v/mVtnb+y9/+Iaf7TqkgHx+bkBcvX6pgh/KenpnRNsRdne0Sj8dldRXaOCnXr11RgV9f71cBPDE+ITOz8xq9jvV15fJlvd+LF6/E5/PKZ3fvqCVW6nFcAQKWKUAAl8zt27f03WAOhoaGFVhF4zFVbG6XWy1jlBLWMy6JmZkZZQ2YL7fLJQvBpXwsgkXdDShPmId6WjxbROoD9coKhZZCapVeu3pFGhrqS3JlHDTOpQEEo8VrMrWhWQ7ZzZwshpPiqbHJUjit8TOmi6GYQQiHVxRILi0tK2hcCYdVmdJRFKCJ1U1nUd5nZHRMFhaC0tHerkCpttYtr1+/kdOn++QXP/+5PH36VEIrK3L39k2pr2+Qx0+eyOys0XWU9ZhKpVTu0DYbYJDOZJRhaG5u1vV77uwZBRU8D2Ps8/kUpPR0d0twcUkZtH/5xdfS1dkhDx8+lnsPH8nXX32p5w0PDysrBEADkKyvZ5VJc9jtCviUtaDGAQ2wYqvy1ZdfSF/fKb3fxwQIZkO2o5CVhS3fj+J6B63N3T4/AQiHGbWDv1MqQMDFgPtLezFQb13THCst8oJ2z/sABFVK0ajMzM3L5vqGdHd3KlVnBicprZhX9KbPOpFIqMBAKEJTc2y3tCUQyQjbxX/JtfE58t1wJCK1UOdOoyOfeT2Cigpb4mrp2HygnZbqBWToJjbq+Refq9Xfir7DE5h/N98FSpPv47s3r/8xAAKKenRsXKZnZmVxcVGVTEd7m9jtDhVkWEiJtaSOMQIXKwlrtNbrkXNnzgjj3z8wIJ/fvSsut0sePX6idDmKrMJSoYofS9nucKjA5X1PdXdJaHlFFRbWV19vr14bi5bzp6anFcHZbTa1BgOBemlsrJepqWkd288+u6PzWOpxXAEC78KYP3j4RP3UWJKsL1wpsCswNFj8sAHaRjuXUzo6GokoJc4YM/6GYqkQRzX09bqCp8RqQiLRqCpUlB7uCSzYv/zt73L3zi25c/uWMj5HcZQCELTUcr66Z1WVYREvx9IKFoLLSU1z3AsgxOMxWVxakjdvhhQksc5gAABTsCy4n1hzuKcAXfPzQQVbvDNA4emzF8oofP7ZHb3G2+Fh6evrVaUPYEins8rOwBYk1hIqd6qd1TI+OalggfWOiwz50dt7SqanZxQUA1IYw/b2drly+YIChDeDb+XOrevK/Dx68kRe9Q/Iz774QhqbGnRvjI9PaswIbAT7vq2lRdMYcVNUV9dIMBjUVujsk6tXLuvzfyyAwL4FhCVTaXV1IWNLYZzMQGXej2fXYNoNo0U5axW5AiAzXVxmy3Gu/UOAhhOAcBS7/t1rlAMQyLCxDIzEcqTu2aoqtbENpZZZIHsFKSL0Hj5+LMPDY9LU0CBXr16S6poaRfYsJvyK8dU12dzY0E2LEgsth3TB+bw+pf44F6WGgkkk+F61LuzR0TH5/t59uXbtqlRWVsmDRw9143pqPSpUvLVerboXi8aUZgfp48NECNR63CqYEdoIZLerRu+NcmUjY21gXbPJUbBYyzwfVi9ABCGDpZBKpyWZSCooIcAM/z9UJD59jo8BEGAAoKxRSjwzsQMOu0OZlkw6owKQOYvFYurL5p2wShHG0KYUHBp6+1b95/hMARJvBgZ17BCmKP7JqSmp89Wp0MZvDOhLppP63enpWXUf1Hpceg7+5smpaR3jhvoGSaytyUIwqBQy88N4nu7tU1ai1OO4AgSenzU/MzurDA7Bd7hzIuGoKnW70yGRcERm5+bUxcN4wvgAorCcGxobNL4Dqhpl5/a49HqU0wWM5WRTfLU+iUYjOoes85ev+uXzz++qT/ygwNBSx/dAgKDdHK0SJ4tB0xwJWq7QfcI+HZldldmQkeb4jovBXaVKE7cA4AAK3uP2aFwMY4R1D9OEyysai+v+QtEQvwLrBTAgJiYai8qtmzd0Hz9/9kJBKGPGmmR9Ed/APmQ/8z3WNyAWi34ptCw+L4XLHNLY1CgDb95IcGFRmRjORS7YHTZ1rQEAGur9cvbsGY1B+P7+Q2lpapILF87r87582S9XrlzSeRoeGZX6QEBaW5olmUzos4XDUWWFYIk6Otrk7Jkzqlh/aAbBiI+JyN/+/p2yfGdO9+r6Y92ZxhHMLYqfuKDtIOJKyWYzEgwuKmvC+CwuhmRpOSS9Pd06N2PjE1Ln84nXS658hcoWwBegij3A2FitRnCqsZ5zCnrNe3ANZCryVkup22wlARdzPZ8AhFJ3dnnnlQMQKH9geTUYzcWS69pfAFv+xcj+DALK5B//+F59gtdvXFPraWR0VClABENVlVUmp2dUeWAZoczwObJYCKhjkSVTSVUm+PmwzlqamxUUIBD+67/+qLR4zpKTwcEh+dff/Eo3N9ZzY0O9WrkoSxbipYsXVEggTJoJFqr16nMshZYM363FYCGI+CcACj97KplS9I+CxQoH1LwZGlJhpv730IoKbhQsgj24GJJv/uVrFQKmn/F90xzLzWIw0b7JhuAC2O7yt11C1DxPSwvnGRXzf4QEB/PAeYADLGHD2sCCWNfv7KaQ9Lt5RgYrGGvKTA3j++9YI5ubGhhWiiVjLu/jDBB4RtPCYqxQdub7IwDHx8Ylk13XAFLWWeE8MAam9WWOr0kHm0yVMlebObVYocWZ2+vXripwPiprrVSAQNlkIsADHptmMqwms2K3Vmq52r0YBLIYUDgwCMlkSlkWAlg5YPQ011pLledUycJw8W5mxgBGA4qZwD9lAvKxL6HlZQXz7EUjcDaucS02q9Fp0kwbhTSEicENwDVxZ+CKW42vKYsGaMCIYF8jj4gtYL2jHJlXnpv/ARPIAAU1zmrZ3NxQxanuH+ITNBvYYCVxf+KuY35Rovz/QwMEngNA9j//138oWwM4ACy53R41Ehgv5B8MQ1NTk8YQzS8s6DuizAGivb096spCvsLO3Ll1U+cGmc5CBPyj3BlP5PgNjLeqCpmbDxrxIBaLBJdIm8toLAZgAfYGl1qd36c/A9xgg8rJEDkBCOUp/lLPLhUgaJojMQjazTFfatmeL7W8n4uBRYkSfjM4qHQdNDJ+P/zS3lqPIk02EdbPQnBB3RUOm12y2XWN3oY5OHv2tKyuJZQ6RGERuQylihVw794DFSBWW5V+duHcWWUkhoaHla4kyhsLFxYCy4KN8eLVK6msqNQNz2ZgsxJBPjw6Kg2BgEbpY2kjSKDDeUaATTQSU8YAQQC9yDXTqbRa3URAI1CwhG7dvK5WzsdiEEqd/B/zeccdIOw1thr4lkyqle2sfr8qeAhXBDqKDkbtqNgDZUHydRAeUwfhgt8olFRUSdHrMiopGowifRg2tYAV7sdQZGeaY2EMgpnmiLXK3mTf7gVsAAycUwhit63GDX1n09VngFqLKjvDhbOpe7v42obPfOc1CylxA5zQBMkAxMUuUPMzvTfAOu+iNK9rfq/4vsV1Gj4KQFhYkP/n//2fyoBgMMG0RCIx8bhdyjhu5DbzoMmq8sxVXa3yFBYApU+GCLIacIAyx63Fe35//4GRxZJMKXsIaF0JrUggEJDF0JJmd8A8JBMJqaisVNYMUAD4ymQzymIAQtAVX3xxV12UAI1SjxOAUOpIlXdeqQCBGATkgOXV22huNUEOMJbOwQwCmxZAAJok8phgOBacz1urVjuRviDFixfOqT9vemZOrSGC6aCmQadY7lRxe9XfL66aajnd1ydnzvTJQnBRWQPoMlC/zVallggR+OGIEVVMDQCUv2lRwARMzczq4mRTcH+3x6204ODQkLo1oAdxOyAAcIeo3762Vmbn5tVawLdMABMbiPMAA6arAurw4oXzyoaYfsYfmkEoXgKmgOPvuykR/XzT8JkirPm31wGlzT8E5161C8z74Z/mZyy+o7JsjyuDsENp7NJMS6lUYlQ2NraCMXcbE2Vr8hSsWYdit7kwlREMXbl0bCkiohSAQBYDVgP1DygTjOVMZ0cMh6mg0c1xNxeDCRBKeY7DnmOyLke97g77PLt974cGCMhigj3/v//4g7q9rl29LOFwRB4+fmK4Yzc3VZ7hFmDPAghwIQAcYLyQe4CD7q5OBQgDA2/k0sWLKqOfPHumMpI1jmGHu4H7IUtgLZzV1ZplQxaKr86nbkrcm6m0kbUCK6zszOKS/PrX35RcN2QbLP746yCwZjE60SuAXAO05pQhO6r05XLXb9kAgRgEfJ9Wa6XmPL8Yje4bpIiSePt2WNOaWCxnz5xW3z60Pr4/FDq0IL5uXAaLwSWNTkahk4dM7vByeEV6e07pwKGsOzratyK/8Y8TEW6tqlTKlQjlufl5zUEm5gCKEQoRoQvTAKVJ8Znmlib1CU7mg5a4PwGOKHrYgpqaaqUFUYLqO7bbFAWjGCcmJpWNwO+OsgT9QsFDyRGHAJUGfaw+tSOopFiui6F4ERh0bEzfhTEpBAk8P2PDv2BwSerqvDpmplWmJGmBwoOaxZUCUwLYY4yMXHKjqj7/cz8OaFoN1GtokMoqw5Iz+gLms08MDvZQx3FiEBBsjG8calaF67blwyZn3fA/QXewWqxvE4QVKzKYM9Y812xoaFBBUTj+/MxcsTdY6yuRsIJbaODCuXpfBXkgQOjzSZ3LJuHVjCxGUtLgdWg1NQWHkpOR6VUDIFx6NwbhQwAEs7iXOa6GkCVzwciMUUClXSqNYOTjcPzQAIExIK7jf//h/2jg5tWrVzSVtn/gjSppAi3fDA6pUursbFM3QFNDvboEiIFZwYVTVSm3b93UuKRv//gXZa9IkV5fNzJDAAcYaJ1dnQo+ABqs1Vh8Vc6e6dP7MifIHeQELBKGIOm6GGzEOdy8cU1laznz9FNgEJAR4xMTaogCCNazyOZ16exoV4PzKBnCUtd/SQBBSy1bjU64ZDEYaY5WsVYa3RwPqqSIQEMx44tlcTAQZuqRKUx5+UKaz/S3gjT556BimYiyAig6FHbxpjd9feTYc2xZYPnWXqavF2VOEM7rN4Ma6Ij/GzcBvjVtbWuxaECN0fcA5WfQkQg+FBzvwsMQI8GlzYnj+lBn0I5snOPAIPBMU9MzWjiJmI9bt25sZWQA9IjpoMAMVCAADeTf09Ot/6PM8PPiM2W8QbeAKgJFcc8Q34HAIFgTAYCflvTJp8+fK8ggAwUhjU8R8MZ5sDkANVw7UOyMO5kN5R7HCSAwTvfuP5S3b9/K73//O2WhzLUDoGV8AamcB5t25/ZttaZYRAS1Vlmtan2xJ8gCYcxZnwhJMzgWoAV4BQggUIOLQQnU+RWg4cNnj+EWA7gSJAaDxlplHohzKEfYMhcHAoR8qeUEhZJS6+J2GL0aaC5Glb/FcGbPNMcPARBQLHPzC9LW1qJjRNCc+rXztTWIeVhYXJR6f0ALTGn2jdWq65NxZ5wJTOZ3PmNu+B0QhlxxOpy61o/y+KEBgs5rlriC4Na+BuRrcSeLRZkAGFXALqnImnFkteZLhlcYKaLptMZ4IFdgBhgf1i7fJcWTNap73ufVnxGQXJs17XYbgeB8TnCyArdNA7QwF7ggkElYzOWO9U8BIJgMQiKZMMYo7+ZiPR9lfFE5a7gkgGCWWs5ommMktxzNiJfa61UHpzmaD1Ns0ZRj4ZhgwbQEShF2hd8pHhDzMxAuAUccsAYsarOK23732O/ZDUN6OxDwYzMIIHXSsr7//r6+49VrlzW6G6CWyqS1gMzY2Jicv3BeI+mhwLEmOjs6JBYnLz2hCoZNSxAYGRB07iMNDf83gaBtbW0aCEpkPoVmXrx8pQVr+DsCAKGCdY014a5xKQsEQLA7nVovgZiSco/jBBAQlH/9+3cyNzsnd+7cVGXCeAEsca3NB4Mq/ACNxOIQFwONyzpB2XM+YIDIfr4He4WAgIJFwF48f04DdQcGhvLuhAo9l+BcivIQKU8tBAQ9mSD4dGHJWMtn8u64ctMfSwEIpDnid0Q4a5pjdkNbvrtrrBJcThtBihfr3sli+BAAgewBChFdvnRBUyHfDo+okkeBkSkFoH/67LmcOX1aaytoaqWrRsd9fm5BNjbXpaW5Rf8GoIYpRHnC+jAnp3t7NTapFNlT6lr+GADBYHiMipXK6BWwKSZriGLay1rl+4Xp48g74zrGW+8m5zVDIs/e7DY2xd85zBj/FACCOX46HtsD+s48lbq+juK8UgHCVgwC3RwpiGCzkfpysIvhKB7yQ13D9ONyfTPY6ajv9bEBAsr4u3/e00I9BLJ1dXdIOpXRrBHqSPDeZIqcO39WpqdmFBzMz82rL9Hj9UhLU7Mqfw6YBCK3YR3IIccawfol0ntpaVH9kkSVx6JxuXz5oiJgUh4RDmdP9ynAgD4j4In0MyKkr1y6pOeWKxSOC0BgDT179lwePnqibiasU3d1jSohxpBALtA/aXIEzgEYOjvbZXZuQdLplIIF6HGCs2BZSNsjCBaLCxkBawO9iIUL28UYElfDmLa1NCs7QdAjVhyFhXBxAXyx8hhTXEFQtsxdOceBACGf5kjWAkKk1oW1WSEbBCpZRMbo5rhHmuOHAghDQ0Ny8eJF8Xo98vjRUx2zaDyu+f5+v0/rJQBaocfVbehwKmiNRaLicDo0cBnLlc9rPbUaTIe7B2bx6pVLZQXNlTLWHwMglPJcP8ZzfioA4biNfakAAfeikeY4FMutJakWBk10cJDicXvhH/p5DIAQkz89Wjp0N8f3iUFAQRFARJEYIw4joYqMegXQh+RlY00RN4Glr66GqRlVOsR1aMpXLKaAAIbFU+uWyclpBQJQ2gSK5shtTme0CBB0dzy2qjUUyCzBJQH1SOwDrhmCkrhWaxv55VPS09OlFvKPFSAAgv75/T2Nt8B6x/pEMWG14hojC8aLsqmwSIU2NEpLe2urTE5MarAuNDh/x7WAv/HmjetakhralUwf2B38tMwV9QCYQzOrhywgxheb0JxPGCP6XxD0ZR6U2y6nCBXfKxUgxBMZTXP0e6COLZJIrou1qkLdCz9kkCKVK589f6F9R4jJeP78hSp5ABzxTqTtAWxxaRF3RFoiLA7uMsACwFfTmlMpBc2nerrVncl3vvrqC62iWO4aPUjWnACEg0ao9M9PAELpY1XOmeUAhBQuBro5LtDN0WvX/u/PzUqKFwIyMHbS7rl48KFgAQi0zHyvds90c2wvvd2z+Rz4FLGIsChR6FDa+AbVz+jzaYYIUcooOgUAGqgZVxcCymdpKajK3uv1qbC1O+xq3dL8idKyHPyN/g3EmNAAhyBUXAj0FYCexacGO0G2CEFRZL9Uu6r1OmSzINDLPbTd8/2g1Fbb5NL7tHvO5eSvz4Li9VgP1e4ZOh/XDPEVgCCjYmJca3ZYCL5tbtIYF4K3yIiBTaipdmoAGMqIgkoOh1Or/gEoAv6A0TFw1SjgxRxQ1Av3AYwPwAz2hWhvg9XxaiwHFSkBFgTwMg8wO/DqKDUo9w/nYthQN4OdwmnZDZkLpQTXw3KUUss72z0Xd3Msd873O59eH48ePZZ0JqtVE0m3I+gNEMYeoLw1adQ2h10rVMa0ImWbtq8FeFHxkDEHHBAXQoAorh4CcgsLnx3lM58AhKMbzfcFCMvxjLw56eb4zoSUChC20xyHYjmKo5gRy2YWw2cXAvJ6LCyLsbT8/ssW6Wg0oqo/9QPh2T8alW8fLsnd83XS7CdIU7QVLgGe1/u80lafj0AXkbH5VRmdS8jlHo801TnVEhuYjMqv7zRIH+2eywzANgM3UVKmSwVL1SyTSvAcigmlpJ3s8lUjsXj5G6wC8QpmAR/TiuL7RsBolVKvWK0EI3ENDUJNp8VWZfjH+R3QwLlGkCp+TMMvyfX4XrkHAOEP9xfE47TJlVM+DZQlwKl/NCLBaEbunqsTj8umgXPmYa2yaIW/p2/DcutMnXS3uPRZ/vo8KLUeq/zrnUalyss5zDE1XVS8K2PDmDJmjI0Gr6bSUmmt3CoIZPp7jXEjeNcYN3N8eS7GnjgG3D5ck3kjWFQLcOWD5wj6AhBoRPg6KZTGHBL7ka9IfqjoZzq13n8VkoevI/Llpfo96yBkyKbIUruEIGOReIJnrNBCSTNFACGZzcrvPm+Vuny753LG+aBzGSviLlDyZCOxzjQ4Lk4LaIsG6MKE4eYh5gPXGzEhgAAODZLWIk0V6qJhHgiohZ2BfSsnJ/+gZzU/ByB8/yIko7Nltnsej4jbVSm/vNUoNfa9U5JLfY6fwnnslz8+CsrAxKp8dSkgnuoy2z3HMvJ6IiJdrU65fSEg1aTtnhwST2Tlvx4uSjq1KVdPeRVQs59Ib374hqqkIjdO+7TteL7UclxjEGAPEAzPR42SrwCE0ZmYvJqMyy+u++Vyn0+qKkSrLX6qBwIqupqVvz1dlLHZpPzscr34PIbCQPEfBBCa/dWyEErK9wMh+fmNgFw/69PMkU/9QJBPzq/Jf94LSmvAKZe6vZLdyJUPEJpdQo27f75c0kqc//5ls9T7Sm8Y9VOeh0R6Q/78OChvxlbll9cbVODuKJSUT3OMrGaErKZ6r01bwG/QcNKSM0ot53sx1Dgq5fVYVOLpjPz7V60SqD2afhHF428Gu/F3E2gVBsBtf26k2haeV3itcgKo32cN4Mb527MlGZ1KyPXTXqlz22U5kpYHQ8vS3lAjF7o8Wsb63sCyNPrscrUXICzyaiws2dyG/Paz5g82lu/zXh/ju+nMhvyvf87J9FJafna5QdyOSlnfMAyR5VhKme7mgEPOddTq1PePRyS8mpXLvT4JuG0SXcvKy5EVqfVUyS9uNCkLdnKIMoH/4x9z4qyqkmu9eYAgRQBhZ5pjJN+syaYlUZ+PRJRipClLMrUuAxNRSWY3pNlvF5v100ZhCBosKlK+OhpqpLvZJTZrhVp300sJHbtr+zAIzX6nrCbX5floWKu1tTVWi6vaKHV85IfZCrPUC5d7fqnX3SGpd3nVnEh2fUOt02RqU8511kp9rU02KWkLgzAWkWDkIAYhou6ezqYaVRRQ4cOzUWnw2aUp4DSUyzbxsP1E5rCb777X/+Y3Shmj4vsU34NrlXsdU/9t68HtJWPeb7d3UY1p3BBFNbuYEr/bLue6ajWuAGDG/l6MZOSapjlWSSK9qf0YPFoDQWQllpJqp1UWVtLKIty9UCe11VYZnV2VwZm4XD/rle6WGsMSKX6vwrEoXuKF5+43Zgets8L33nrfLbywc5x222Z7rYvicTXnrfAehXNJued4Rv75alnslZVy5ZRXrbCVaFoeDK7sChBgylB408GEDM/FpN5nk6Y6gisrNA7oWB+7jc9Be72EF+K1WZfReEYmFhLS5q+Wnla3lv02mcqDAAL1PMjAGZ9blelQQtobHVLnsRtdgo/iKGX/lnqf/fZvKY+727Pssg8RgRj+oUhapoIpOdPuUa8Ae1wrZr7DIFh1DLXUciiclrpamwoNEyDcPucXu9WiSGxifk0tZ6NIwC6b7yABWix4Sx284vOKhcpeQme/xXvQwt7n2XKkf1VYpCXglLaG6m2hKCIzSwl5NhyWa6d9O10Mc6syOp+Qy6cMFwOLHD/Qm6mYWmrQ0SYlXzhMe8mhQjllPupuMvKg19xtXRZf7yBddph98q5eyGmkPB0Dz3W6pbHOqI+hqVSbm/J6LCIL4Yy6c/Z2MazI7bN+aW+sUbCGgJlYWFOrl5bFWkxnNxC2m/IuEvqHwm77Kca9FM1ua323Cdltfe4lJPJbFRoe7d3V4JS+do/2VjBf/TUAIZyRa30+8bqr1ErjdIyFVGZdyC6h3TPpjqQ53rlQJ3U1NomssoajEoqlhRLNyA4uupu+Pex2/7F8T5XaRk7iyXXZWM/JxW6vNAeqla6NrKblwZvdAIJDLp+qVTAAczvFep1blXVNH6zIlx/bHoG9lmqxTi6WG4Wi+aDP9vp8N5lTiuzZbf4KRfZu4py/aU2FnEhng1MVGdk0+bptqswArc92YRBYk1d6fboekbOwZoCEycWkMouFcmAv+bifDC5lPe4lVw+yRYrnqZS52A/vFtoS5rWRA7bKCjnVVC0dTbRgN9yIgHsFCIMrUiE5uXG6TsHtOt0czTRHh41mIxtK3SSzm/L5hYDwN2YKgcvJZs5tKcBmt4W5l6FwkCIqxh+7XadwYop/3s8AK2XSCzdIVaVF0Sz3YB3rWFhQSPjCIwKwAkCYE0wMwsjsmlw5VSswCOpKtohkMhtakEYnIe+zPyqAUPhOBxlNxeBit42/13yXCxB23TzELVRY1EdY7TDYFMYIg1TLcY+EZSGSls8u+FVRFccgjM6uyaPBZbl9lhgEtxEHkbdCEql1SWYMYbMNEEoZ5eJzzNnc6433U4vFZv9u6GEfDb9DVex3reJnNK5pZMlTZMyicUbWioq828BgF14Mh2UplpGbfXVKw7Im8VPigiDGg/XJeWNzawoQPrtQJ14XbjWRZGZdgXFsbT1fcqzU3fTTOk9HmG6G1gqNSdKaMvmeEuF4Wu4NhKSzsUYudNYKLpx7r5eV3bra59syDli3a8l1SWWN9Vp87EVEFSqSg+Rr8d4+jFLa77lKmdX9AEKhHrBZLWo0qKw1GorqoQAhmpKnw+GdLoYxw8WA24aYGICuWs3ESyXXJZ01rrCXMbUvAVf0Yu8aOe9et3A37vdz4TMV6pnivxc+wn7gpnCOd5NKxBYhB4yYKV22RmBvZkPu9YekqiInN87WSY3D6E5qefU2lkukNsRpq5TKqpz6FsfmE3Kl16v+MFN5HRU7U8oiOu7nmAOrk2gRtbSGpuMSimY0oAYBodSNxSLzK0lFu611Dultd2mqoRYn0diQQsu2VNtrN2xYvAQLR3Cvpb+faNlLDOw3M7up/53bcecZ2++BSteCvhR9yZ+kAWlr4y9sLgAABYlJREFUWXk0tKIBc3fOB8RJ4FzBMGHlUhb4fv+yxoLAQNhtVQYg0IqYWuJqD7N2P3hTCBBKhcO7iY3iMS5W8OWMZ7nnFjwPay0PmrTgXf73WGJd6CvisFfIjT6fOJ1VOuZhKqvW2rUHA1aYzVYh86GkvByLyoUut7rXtABZvpAOsQwGCDv8US7YPPyd3v3mUd2b/Ux3Q6PXoyF8ZxbXhLRmXA5dTS5VVig3LDYCmt3VVsNoyCu/QiC793PtpuYM9bL7d4plRqlAcz+5UqiKTNVWrP73m6W9n8Hc4trYKw8OCt8YdhBm4FynRzqba8SSs8jwdEzGFhJyqrlG/6akmRa4g/TOy1nLXnu0+F0KVXUpJlQp47SbTD1I5u9nmhXL+P2vZX5q7tnCcWXdLkdTcm9gRToaHAqyqB+C69fybCCaC4ZTSsv4PHZZXElK/1hUVlNZteq0VHGBV2E31WP+bS9kU87n+wmZQrG91/DstexK3SL7Wdx7PRvoiy3e01Ijp1pcGoVuFs/KZDbl9URMxudXxe+2aRMcw+LYhrPvI1iPUlB+rGuZoGDr/vkBwb3F2F7qqZVTLe4tBmtrO6tfLSejc3EZno4rLe6wb9PnH+t9jvN9zWWHUsIwsNsr5XynR5r8RidK4o/wPdptVFLMyVwoqYYCXcFxP4Zj262guVa+evlxfuUf7tly0OOGpEFqImAjaxllXK5rZLgRib+QNxogaN01tq1+Jqaa+eEe+PjeaS+ZwPqkX0h9rV0u93qVZUD24sp5NRaTUDQljV67FslSuKTCFkRsMIuf8rGld3YoT4uyLLFERplFssEa8oHdysa+HIzmsBqcDihew3fDyfgesR5Ojv1HgIWM24HAOiLmTUpsW4lZBKp7enFNlmMZtRZO8hYOXlVYpWTWtNY5pcHvEBvd0N6RGgZTgNClLTHjW+iCOPgun/YZxBjRlIkALm3QJYzlplKLjD1WGJQ4QrjaAbtgtHxGXphOm4NsoE9thIs5M1w1HQ3Vmm5rgjPW9sJyUmtMaLW6PKPzqY1Vue9rjp/HVaUslqfGusUOgsvCMWp1JCSe2DgZ0xIGV9mE/Hk19gqNnVOvQYXpfsiJZWA4lkMoaGU49ZsZ39im0U9EwEFjvbN2+btnG1H0OckA0d6Tij3oWX4qn4P+UVq4ZIw4mL3fbOeaPVmvpa4Bo5HZ9l5nvIk/WI6nxe+xi9NmNJhh/QKCadbJEl5fN5KdP3WLbL9xzjsZ1GAwa5ZsMaz5gYP9MgJI///2rqWnYRgGZ2xFEyANIf7/b9qBw8SZGxdAoKlANeTPc5dFWeyEhxi417pJ+sV24leSTaG1TuO/oRsxnU3hLYxDkoB0EmDgUra+c6eNLYQnyUNId/JwCILD3yTnk+XqYfP4/ArvAR+WxA3zrtZVgAozPIrbC1OURYxzDvyxIDDGzKK8hNJ3OyvMEbbgK3FDSTwWmaewAx2cdnneQUlQSdnFWYdYOSELDt5C7EiXkWaX7i6OHlOP+tW9ByZ2FaIiprJuNRzUVjWIP0YsmMZGGDyztEGgMkcKJ1CcjLKY97y4P8i8UUg+C3/6Ps5HSBWVlgvxW+ZX+2fLOHO4tFp3341b2v5X/H+KkbXNEl0LDrlvDvVhGWPLGLAeJbZTSU6AXZQhzusZL2jkXVj3Q7i7fwlXi3m4Xpyiaidd5GLF/Rk5rMGklb9r5alVtlrnzsLLGk7aewsGGk1NHzW0Wr+W93F/h2QhJyc1bWu6Q0sttObZtbZTq3d4g5BBgHIQbm6fNv3bgBP96IpX7GyxAyNF4TaChXGcxhE4NgQkaVeqk8R6WPfvOMyLvAbdlK5XHsKsO4F+EG2AenKEJqSI0vXEsc2/j9cR2Nvso+KDj8uXBHsKgX0AL64h1h+r4ScAAAAASUVORK5CYII=;" vertex="1" parent="124">
                    <mxGeometry x="60" y="70" width="711.58" height="260" as="geometry"/>
                </mxCell>
                <mxCell id="131" value="Public subnet" style="points=[[0,0],[0.25,0],[0.5,0],[0.75,0],[1,0],[1,0.25],[1,0.5],[1,0.75],[1,1],[0.75,1],[0.5,1],[0.25,1],[0,1],[0,0.75],[0,0.5],[0,0.25]];outlineConnect=0;gradientColor=none;html=1;whiteSpace=wrap;fontSize=12;fontStyle=0;container=1;pointerEvents=0;collapsible=0;recursiveResize=0;shape=mxgraph.aws4.group;grIcon=mxgraph.aws4.group_security_group;grStroke=0;strokeColor=#147EBA;fillColor=#E6F2F8;verticalAlign=top;align=left;spacingLeft=30;fontColor=#147EBA;dashed=0;" vertex="1" parent="4">
                    <mxGeometry x="130" y="90" width="130" height="130" as="geometry"/>
                </mxCell>
                <mxCell id="133" value="Public subnet" style="points=[[0,0],[0.25,0],[0.5,0],[0.75,0],[1,0],[1,0.25],[1,0.5],[1,0.75],[1,1],[0.75,1],[0.5,1],[0.25,1],[0,1],[0,0.75],[0,0.5],[0,0.25]];outlineConnect=0;gradientColor=none;html=1;whiteSpace=wrap;fontSize=12;fontStyle=0;container=1;pointerEvents=0;collapsible=0;recursiveResize=0;shape=mxgraph.aws4.group;grIcon=mxgraph.aws4.group_security_group;grStroke=0;strokeColor=#147EBA;fillColor=#E6F2F8;verticalAlign=top;align=left;spacingLeft=30;fontColor=#147EBA;dashed=0;" vertex="1" parent="4">
                    <mxGeometry x="555" y="90" width="130" height="130" as="geometry"/>
                </mxCell>
                <mxCell id="134" value="Public subnet" style="points=[[0,0],[0.25,0],[0.5,0],[0.75,0],[1,0],[1,0.25],[1,0.5],[1,0.75],[1,1],[0.75,1],[0.5,1],[0.25,1],[0,1],[0,0.75],[0,0.5],[0,0.25]];outlineConnect=0;gradientColor=none;html=1;whiteSpace=wrap;fontSize=12;fontStyle=0;container=1;pointerEvents=0;collapsible=0;recursiveResize=0;shape=mxgraph.aws4.group;grIcon=mxgraph.aws4.group_security_group;grStroke=0;strokeColor=#147EBA;fillColor=#E6F2F8;verticalAlign=top;align=left;spacingLeft=30;fontColor=#147EBA;dashed=0;" vertex="1" parent="4">
                    <mxGeometry x="1000" y="90" width="130" height="130" as="geometry"/>
                </mxCell>
                <mxCell id="136" value="" style="rounded=0;whiteSpace=wrap;html=1;shadow=0;fillColor=#CCE5FF;" vertex="1" parent="4">
                    <mxGeometry x="250" y="120" width="790" height="80" as="geometry"/>
                </mxCell>
                <mxCell id="137" value="" style="outlineConnect=0;dashed=0;verticalLabelPosition=bottom;verticalAlign=top;align=center;html=1;shape=mxgraph.aws3.application_load_balancer;fillColor=#F58534;gradientColor=none;shadow=0;" vertex="1" parent="4">
                    <mxGeometry x="600" y="124" width="70" height="66" as="geometry"/>
                </mxCell>
                <mxCell id="147" value="Load Balancer" style="text;html=1;strokeColor=none;fillColor=none;align=center;verticalAlign=middle;whiteSpace=wrap;rounded=0;fontSize=15;fontColor=#000000;" vertex="1" parent="4">
                    <mxGeometry x="670" y="145" width="180" height="30" as="geometry"/>
                </mxCell>
                <mxCell id="145" value="" style="edgeStyle=none;html=1;fontSize=15;fontColor=#000000;strokeColor=#001DBC;fillColor=#0050ef;" edge="1" parent="1">
                    <mxGeometry relative="1" as="geometry">
                        <mxPoint x="794" y="364" as="sourcePoint"/>
                        <mxPoint x="794" y="507.70000000000005" as="targetPoint"/>
                    </mxGeometry>
                </mxCell>
            </root>
        </mxGraphModel>
    </diagram>
</mxfile>